<?xml version="1.0" encoding="UTF-8"?>
<svg version="1.1" xmlns="http://www.w3.org/2000/svg" width="1080" height="1080">
<path d="M0 0 C3.56397237 0.00570774 7.1278703 0.0022909 10.69184017 -0.00342751 C31.48160036 -0.03196304 52.18363767 0.11865427 72.83496094 2.75537109 C73.49467896 2.8386264 74.15439697 2.92188171 74.83410645 3.00765991 C109.72594395 7.4710132 144.25338004 16.25398427 177.64746094 27.13037109 C178.50678223 27.40816406 179.36610352 27.68595703 180.25146484 27.97216797 C222.39309704 41.73064138 262.5910568 61.93613726 299.64746094 86.13037109 C300.70449219 86.81228516 301.76152344 87.49419922 302.85058594 88.19677734 C316.97065276 97.43654785 330.50857764 107.55090224 343.64746094 118.13037109 C344.56527344 118.86513672 345.48308594 119.59990234 346.42871094 120.35693359 C349.18978992 122.59015924 351.92388983 124.85153967 354.64746094 127.13037109 C355.2051416 127.59636719 355.76282227 128.06236328 356.33740234 128.54248047 C364.54432413 135.43246205 372.32860748 142.60844739 379.8125 150.28125 C380.69760254 151.18689697 380.69760254 151.18689697 381.60058594 152.11083984 C382.11782227 152.64604248 382.63505859 153.18124512 383.16796875 153.73266602 C384.80203513 155.35487974 384.80203513 155.35487974 387.64746094 157.13037109 C387.64746094 157.79037109 387.64746094 158.45037109 387.64746094 159.13037109 C388.30746094 159.13037109 388.96746094 159.13037109 389.64746094 159.13037109 C390.98730469 160.49365234 390.98730469 160.49365234 392.58496094 162.44287109 C395.56972461 165.96749847 398.71744941 169.21666069 402.02246094 172.44287109 C406.45885511 176.80682202 410.46435149 181.39399714 414.34277344 186.25927734 C416.39764313 188.81915738 418.49784516 191.32428737 420.63183594 193.81762695 C430.61631113 205.48663176 439.78780034 217.5303925 448.37597656 230.26220703 C450.22127962 232.97347028 452.12738227 235.64124538 454.02246094 238.31787109 C463.73716935 252.35988254 472.43316268 267.08047089 480.54492188 282.09716797 C481.568893 283.98548318 482.60917582 285.86362663 483.65527344 287.73974609 C513.8737921 342.43465563 532.1383437 404.49849208 540.95996094 466.13037109 C541.10723633 467.13970703 541.25451172 468.14904297 541.40625 469.18896484 C544.4723619 492.19557497 544.95750577 515.32573091 544.84307861 538.49688721 C544.83219727 541.27293797 544.83266465 544.04894095 544.83306217 546.82500935 C544.83250173 568.23715759 544.57909832 589.37474087 541.33496094 610.56787109 C541.10726146 612.09736403 540.87989053 613.62690592 540.65283203 615.15649414 C540.00474582 619.48439045 539.33214181 623.80812673 538.64746094 628.13037109 C538.47843262 629.1999707 538.3094043 630.26957031 538.13525391 631.37158203 C523.71960541 720.43369037 484.92382163 805.80700671 428.64746094 876.13037109 C427.93976562 877.03271484 427.23207031 877.93505859 426.50292969 878.86474609 C422.52950583 883.91185647 418.36586565 888.71367236 414.02807617 893.45043945 C411.84892622 895.90357545 409.82095596 898.41723524 407.79589844 900.99755859 C402.1929887 907.87598382 395.97707755 914.10228748 389.68823242 920.3503418 C387.68197887 922.34570122 385.68685854 924.35176155 383.69238281 926.35888672 C382.41893648 927.6310143 381.14487143 928.90252288 379.87011719 930.17333984 C378.97644188 931.07308784 378.97644188 931.07308784 378.06471252 931.99101257 C373.87748026 936.13037109 373.87748026 936.13037109 371.64746094 936.13037109 C371.64746094 936.79037109 371.64746094 937.45037109 371.64746094 938.13037109 C370.24902344 939.54052734 370.24902344 939.54052734 368.27246094 941.19287109 C365.12567886 943.86103422 362.05538406 946.58345358 359.02246094 949.38037109 C353.42673492 954.42248647 347.54639271 959.04424717 341.58203125 963.63720703 C339.59476427 965.17104409 337.61698518 966.71657274 335.63964844 968.26318359 C325.26886915 976.3332864 314.58204819 983.84605407 303.64746094 991.13037109 C302.9362207 991.60716309 302.22498047 992.08395508 301.4921875 992.57519531 C258.88263919 1021.05799352 210.99123794 1044.01357925 161.64746094 1058.13037109 C160.48762695 1058.46633301 159.32779297 1058.80229492 158.1328125 1059.1484375 C131.52666477 1066.82486138 104.78207359 1072.34678916 77.39746094 1076.44287109 C76.11705933 1076.63700089 76.11705933 1076.63700089 74.81079102 1076.83505249 C53.28926567 1080.06967105 31.96329667 1080.3184503 10.23779297 1080.31567383 C7.19183373 1080.31559288 4.14602589 1080.32249999 1.10009766 1080.33618164 C-24.48407126 1080.44901711 -49.65344936 1079.38840755 -74.97753906 1075.44287109 C-76.23932983 1075.2497081 -76.23932983 1075.2497081 -77.52661133 1075.05264282 C-105.33146265 1070.77374757 -132.42225565 1064.21890534 -159.35253906 1056.13037109 C-160.79814209 1055.69821289 -160.79814209 1055.69821289 -162.27294922 1055.25732422 C-196.30320178 1044.92253803 -229.49875547 1029.65372287 -260.35253906 1012.13037109 C-261.18366211 1011.66244141 -262.01478516 1011.19451172 -262.87109375 1010.71240234 C-277.85303745 1002.2662059 -292.3819239 993.16866317 -306.35253906 983.13037109 C-307.70006711 982.17706484 -309.04773702 981.22395912 -310.39550781 980.27099609 C-320.71378799 972.93855495 -330.65126554 965.25976076 -340.35253906 957.13037109 C-340.95018066 956.63182617 -341.54782227 956.13328125 -342.16357422 955.61962891 C-355.8796053 944.14611407 -368.73789843 931.83918774 -381.41763306 919.24050903 C-382.60734024 918.05886602 -383.79852176 916.87870522 -384.99130249 915.70016479 C-391.50642278 909.25464632 -397.71380615 902.77434131 -403.39355469 895.5690918 C-405.49464841 892.95346054 -407.71086676 890.47819571 -409.97753906 888.00537109 C-414.02511017 883.54747921 -417.71527767 878.92494294 -421.35253906 874.13037109 C-422.33071412 872.86918471 -423.30997975 871.60884379 -424.29003906 870.34912109 C-434.33760064 857.39099225 -443.70249761 844.06428221 -452.35253906 830.13037109 C-452.94035156 829.19837891 -453.52816406 828.26638672 -454.13378906 827.30615234 C-494.03779189 763.44339373 -518.65532085 694.10476982 -531.35253906 620.06787109 C-531.50074097 619.22311218 -531.64894287 618.37835327 -531.80163574 617.50799561 C-536.00271859 593.30229244 -535.56624603 568.85578566 -535.59277344 544.36621094 C-535.59714793 540.88986663 -535.61103141 537.41377192 -535.63378906 533.9375 C-536.09573482 461.82038478 -520.82593369 391.36081134 -492.35253906 325.13037109 C-491.84062012 323.93516846 -491.84062012 323.93516846 -491.31835938 322.71582031 C-472.61612628 279.27115922 -447.64747037 238.39995411 -417.70751953 201.78955078 C-416.43754589 200.23446233 -415.17786477 198.67098441 -413.91894531 197.10693359 C-409.65677668 191.83277692 -405.26395483 186.71737953 -400.68847656 181.71240234 C-398.78570469 179.60917123 -396.91618269 177.48551859 -395.05566406 175.34521484 C-385.27562559 164.14802602 -375.01219447 153.48111498 -363.93798828 143.56298828 C-362.29001784 142.07387671 -360.66476498 140.56303084 -359.04394531 139.04443359 C-352.36053498 132.78536678 -345.53200058 126.82272879 -338.35253906 121.13037109 C-337.3095217 120.29449425 -336.26655494 119.45855426 -335.22363281 118.62255859 C-321.38347708 107.58629778 -307.16679767 96.98753259 -292.29101562 87.38427734 C-290.96661571 86.52758742 -289.64579511 85.66534517 -288.328125 84.79833984 C-257.04483347 64.22294662 -223.28498367 47.5144309 -188.35253906 34.13037109 C-186.57532471 33.44612061 -186.57532471 33.44612061 -184.76220703 32.74804688 C-147.29888275 18.48272401 -107.85587772 9.1088189 -68.22753906 3.25537109 C-67.54366119 3.15155121 -66.85978333 3.04773132 -66.15518188 2.94076538 C-44.26031672 -0.33705192 -22.08560462 -0.03547181 0 0 Z M-441.35253906 410.13037109 C-441.55062532 413.14454078 -441.62167253 416.06696704 -441.60650635 419.0823822 C-441.60962633 420.0211914 -441.61274631 420.96000059 -441.61596084 421.92725855 C-441.62397765 425.09260031 -441.61760287 428.25775231 -441.61132812 431.4230957 C-441.61403637 433.68450534 -441.61759636 435.9459141 -441.62194824 438.20732117 C-441.63109483 444.36425446 -441.62751852 450.52112101 -441.62119007 456.67805552 C-441.61614118 463.10955538 -441.62081848 469.54104937 -441.6239624 475.97254944 C-441.6278392 487.46891702 -441.62160695 498.96525036 -441.61144373 510.46161259 C-441.60250992 520.89019499 -441.60405791 531.31873286 -441.61328125 541.74731445 C-441.62397913 553.84884162 -441.6279709 565.95033381 -441.62205672 578.05186659 C-441.618933 584.461005 -441.61853864 590.87011273 -441.6251297 597.27924919 C-441.63089275 603.30463156 -441.62692535 609.32992958 -441.61534119 615.35530281 C-441.6126889 617.57130925 -441.61346932 619.78732275 -441.61786652 622.00332642 C-441.62330107 625.01944002 -441.61651323 628.03528033 -441.60650635 631.05137634 C-441.61096779 631.93619169 -441.61542923 632.82100703 -441.62002587 633.73263496 C-441.5989196 638.72803131 -441.5989196 638.72803131 -439.35253906 643.13037109 C-436.65931227 643.43805806 -434.19413691 643.55018328 -431.49731445 643.53442383 C-430.27979996 643.5447187 -430.27979996 643.5447187 -429.03768921 643.55522156 C-426.34168199 643.57358844 -423.64625199 643.56963433 -420.95019531 643.56396484 C-419.07368276 643.56852564 -417.19717189 643.5738309 -415.32066345 643.57984924 C-411.377037 643.58880248 -407.43361273 643.58633651 -403.48999023 643.57641602 C-398.45980334 643.56499021 -393.43032512 643.58502767 -388.40023136 643.61433315 C-384.51803713 643.63278301 -380.6360094 643.63238414 -376.75378227 643.62669563 C-374.90120902 643.62654313 -373.04862397 643.63252821 -371.19609261 643.64498711 C-361.24788033 643.70240524 -352.45584569 643.7034891 -343.35253906 639.13037109 C-342.59695206 638.75259018 -341.84136505 638.37480927 -341.06288147 637.98558044 C-332.48614696 633.42360125 -328.02402266 625.65902176 -325.16430664 616.65933228 C-323.62772251 609.97940825 -323.7797735 603.26952524 -323.82128906 596.45458984 C-323.81858721 594.8742499 -323.81469906 593.29391159 -323.80969238 591.71357727 C-323.80383842 588.424855 -323.81223181 585.13657118 -323.83105469 581.84790039 C-323.85393695 577.64706485 -323.84063753 573.44724663 -323.81676483 569.24644756 C-323.80227519 565.99233905 -323.8069256 562.73846994 -323.817276 559.48435402 C-323.81992969 557.93550302 -323.81672169 556.38662976 -323.80735779 554.83780479 C-323.60514321 542.73047019 -323.60514321 542.73047019 -329.72888184 532.69364929 C-333.01187259 529.67983998 -336.19144581 528.48514564 -340.35253906 527.13037109 C-340.68253906 526.14037109 -341.01253906 525.15037109 -341.35253906 524.13037109 C-340.65128906 524.04787109 -339.95003906 523.96537109 -339.22753906 523.88037109 C-332.91464461 522.23352906 -329.11304879 518.18019844 -325.35253906 513.13037109 C-324.21048758 509.70421664 -324.21155974 507.04508659 -324.19140625 503.4309082 C-324.18644135 502.75402954 -324.18147644 502.07715088 -324.17636108 501.37976074 C-324.16175239 499.13906839 -324.15493705 496.89844701 -324.14941406 494.65771484 C-324.14365832 493.09412129 -324.13790064 491.53052774 -324.13214111 489.9669342 C-324.12163257 486.68425163 -324.11579001 483.40159351 -324.11230469 480.11889648 C-324.10684257 475.93512031 -324.08286334 471.75167331 -324.05433273 467.56799984 C-324.0355969 464.33440752 -324.03049481 461.10089243 -324.02896881 457.86725044 C-324.02596265 456.32644427 -324.01800387 454.78563879 -324.00478363 453.2448864 C-323.90422468 440.61614289 -325.04550986 428.15202418 -333.95019531 418.37646484 C-346.23680474 407.20936425 -361.44138689 407.82317962 -377.07519531 407.86474609 C-378.87072299 407.86339667 -380.6662503 407.86145382 -382.46177673 407.85894775 C-386.20103478 407.85601639 -389.94019658 407.86023426 -393.67944336 407.86962891 C-398.47802035 407.881097 -403.27637539 407.87440532 -408.0749445 407.86248398 C-411.77143545 407.85527482 -415.46787326 407.85754765 -419.16436577 407.86273956 C-420.93505314 407.86407484 -422.70574531 407.86243261 -424.47642708 407.85778046 C-426.9392503 407.85272265 -429.40170624 407.86041129 -431.86450195 407.87158203 C-432.59743973 407.86753357 -433.3303775 407.86348511 -434.08552551 407.85931396 C-438.17030871 407.77211522 -438.17030871 407.77211522 -441.35253906 410.13037109 Z M-285.84863281 422.78271484 C-290.79138102 430.49853737 -292.47084501 439.97681972 -292.49298096 448.99085999 C-292.49595208 449.66861856 -292.4989232 450.34637714 -292.50198436 451.04467386 C-292.51063515 453.3090107 -292.51217655 455.57329445 -292.51367188 457.83764648 C-292.51830275 459.46421419 -292.52332777 461.09078082 -292.52871704 462.71734619 C-292.54182027 467.13300387 -292.54828237 471.54864635 -292.5527277 475.96432042 C-292.55566281 478.72684574 -292.55976852 481.48936694 -292.56423187 484.25189018 C-292.5779036 492.90593193 -292.58757089 501.55996423 -292.59143376 510.21401602 C-292.59590874 520.183185 -292.61343194 530.15221648 -292.64243436 540.12134367 C-292.66410395 547.83961771 -292.67414091 555.55785321 -292.67547488 563.27615732 C-292.67651947 567.87973125 -292.6823528 572.48317587 -292.70029449 577.08671761 C-292.71686585 581.42304822 -292.71888706 585.75915361 -292.71015549 590.09550476 C-292.70938984 591.67884363 -292.71366481 593.26219506 -292.72361374 594.84550285 C-292.81234765 609.85893728 -290.89127404 623.65164603 -280.35253906 635.13037109 C-278.01056649 636.53334523 -275.80787994 637.7348878 -273.35253906 638.88037109 C-272.73636719 639.18330078 -272.12019531 639.48623047 -271.48535156 639.79833984 C-266.38953542 642.25876609 -262.47397617 643.25023324 -256.84057617 643.30737305 C-255.73520004 643.32020828 -254.62982391 643.33304352 -253.49095154 643.3462677 C-252.29929886 643.35365463 -251.10764618 643.36104156 -249.87988281 643.36865234 C-248.02974327 643.38075996 -248.02974327 643.38075996 -246.14222717 643.39311218 C-243.52883302 643.4069449 -240.91542087 643.41767068 -238.30200195 643.42553711 C-234.32963376 643.43871146 -230.35788437 643.48659116 -226.38574219 643.53076172 C-223.84212849 643.54089348 -221.29850774 643.54940807 -218.75488281 643.55615234 C-217.57739975 643.57366043 -216.39991669 643.59116852 -215.18675232 643.60920715 C-204.06947456 643.58035922 -193.83796637 640.59026918 -185.35253906 633.13037109 C-178.19894616 624.69320134 -175.23850579 615.10632466 -175.21209717 604.1559906 C-175.20912605 603.46598136 -175.20615492 602.77597213 -175.20309377 602.06505352 C-175.19444138 599.75925831 -175.19290144 597.45351522 -175.19140625 595.14770508 C-175.18677549 593.49158112 -175.18175049 591.83545822 -175.17636108 590.17933655 C-175.16325682 585.68310292 -175.15679556 581.18688422 -175.15235043 576.69063449 C-175.14941551 573.8778563 -175.14530984 571.06508214 -175.14084625 568.25230598 C-175.12717431 559.44128706 -175.1175071 550.63027741 -175.11364436 541.81924862 C-175.10916919 531.66839908 -175.09164519 521.51768457 -175.06264377 511.36687607 C-175.04097619 503.50847585 -175.03093732 495.65011348 -175.02960324 487.79168373 C-175.02855852 483.10427374 -175.02272228 478.41699073 -175.00478363 473.72961235 C-174.98821577 469.31448846 -174.98618941 464.8995858 -174.99492264 460.48444176 C-174.99568847 458.87207697 -174.99141087 457.25969986 -174.98146439 455.64736557 C-174.90489686 442.4520234 -175.81724676 429.86646747 -184.35253906 419.13037109 C-186.85131263 416.8128811 -189.45810619 414.92056946 -192.35253906 413.13037109 C-193.10422363 412.63361374 -193.8559082 412.13685638 -194.63037109 411.62504578 C-202.36817121 407.37641231 -212.41617859 407.82168342 -221.04003906 407.82958984 C-222.10440186 407.82530472 -223.16876465 407.82101959 -224.26538086 407.81660461 C-226.49722589 407.81090717 -228.72908948 407.81032681 -230.9609375 407.81469727 C-234.34440158 407.81786348 -237.72699467 407.79431754 -241.11035156 407.76904297 C-243.29524631 407.76676987 -245.48014337 407.76606653 -247.66503906 407.76708984 C-249.15620239 407.75327522 -249.15620239 407.75327522 -250.67749023 407.73918152 C-264.83123348 407.83088195 -276.6357392 411.68876638 -285.84863281 422.78271484 Z M-96.06680298 409.94012451 C-97.92887335 413.11215438 -98.52498915 416.45798201 -99.21972656 420.02490234 C-99.38119171 420.80814377 -99.54265686 421.59138519 -99.70901489 422.39836121 C-100.22498137 424.91131712 -100.72670784 427.42685956 -101.22753906 429.94287109 C-101.72122357 432.37498614 -102.21788267 434.80648189 -102.71461487 437.23797607 C-103.05536291 438.90722254 -103.3949672 440.57670285 -103.73350525 442.24639893 C-105.63051498 451.57614297 -107.67391922 460.87321645 -109.70812988 470.17379761 C-110.78121309 475.09714361 -111.83819823 480.02393037 -112.89550781 484.95068359 C-117.55473426 506.63865893 -122.25929598 528.31463747 -127.09664917 549.96362305 C-130.5576947 565.46017748 -133.92136886 580.97590437 -137.21777344 596.50830078 C-138.85464983 604.21112438 -140.51027572 611.90657212 -142.28222656 619.57958984 C-142.57129883 620.8394873 -142.86037109 622.09938477 -143.15820312 623.39746094 C-143.68504996 625.67721951 -144.22018239 627.95508766 -144.765625 630.23046875 C-144.99282227 631.21450684 -145.22001953 632.19854492 -145.45410156 633.21240234 C-145.65342285 634.05005127 -145.85274414 634.8877002 -146.05810547 635.75073242 C-146.53526795 638.58190605 -146.53526795 638.58190605 -145.35253906 643.13037109 C-133.47253906 643.13037109 -121.59253906 643.13037109 -109.35253906 643.13037109 C-106.80987363 637.43614511 -106.80987363 637.43614511 -105.36938477 631.75561523 C-105.22762817 630.96465454 -105.08587158 630.17369385 -104.93981934 629.35876465 C-104.80402466 628.55249634 -104.66822998 627.74622803 -104.52832031 626.91552734 C-104.39373413 626.15590698 -104.25914795 625.39628662 -104.1204834 624.61364746 C-103.62600788 621.80835012 -103.14636846 619.0004539 -102.66503906 616.19287109 C-101.57191406 609.90224609 -100.47878906 603.61162109 -99.35253906 597.13037109 C-81.53253906 597.13037109 -63.71253906 597.13037109 -45.35253906 597.13037109 C-44.42441406 601.60599609 -43.49628906 606.08162109 -42.54003906 610.69287109 C-42.24033203 612.13774902 -41.940625 613.58262695 -41.63183594 615.07128906 C-40.0051379 622.9297696 -38.40931842 630.79235005 -36.89550781 638.67333984 C-36.4596774 641.11916017 -36.4596774 641.11916017 -35.35253906 643.13037109 C-30.2439001 643.1550212 -25.13529547 643.17320717 -20.02661133 643.18530273 C-18.28734739 643.19034314 -16.5480877 643.1971754 -14.80883789 643.20581055 C-12.3142797 643.21788901 -9.81977733 643.22360218 -7.32519531 643.22802734 C-6.54290054 643.23318863 -5.76060577 643.23834991 -4.9546051 643.2436676 C-3.08686792 643.24386335 -1.21924702 643.19236804 0.64746094 643.13037109 C1.86265897 642.14865024 1.86265897 642.14865024 1.66479492 640.28564453 C0.88748094 630.80514141 -1.24102467 621.6483239 -3.29003906 612.38037109 C-3.69303411 610.53474642 -4.0952795 608.68895791 -4.49682617 606.84301758 C-5.12871737 603.93823557 -5.76103672 601.03355567 -6.39570618 598.12937927 C-7.92158459 591.14187519 -9.41580821 584.14814573 -10.89160156 577.14990234 C-11.09998154 576.16233444 -11.30836151 575.17476654 -11.52305603 574.15727234 C-11.94338027 572.16520194 -12.36370396 570.17313142 -12.7840271 568.18106079 C-16.03472743 552.78720172 -19.39291589 537.42799808 -22.96405029 522.10540771 C-25.92708157 509.35783026 -28.52338095 496.5488592 -31.05422974 483.70925903 C-33.06518929 473.50766886 -35.10546264 463.32707182 -37.4855957 453.20361328 C-38.76148439 447.77452755 -39.95522911 442.33306188 -41.10644531 436.87646484 C-41.5754035 434.67049804 -42.04488698 432.46464342 -42.51437378 430.25878906 C-42.81994506 428.81334046 -43.12236276 427.3672211 -43.42141724 425.92041016 C-43.84070762 423.89350037 -44.2713386 421.86928444 -44.70410156 419.84521484 C-44.9498291 418.67079834 -45.19555664 417.49638184 -45.44873047 416.28637695 C-46.65244892 411.79311378 -46.65244892 411.79311378 -49.35253906 408.13037109 C-52.68960943 407.37805616 -55.97586527 407.45437105 -59.38378906 407.50146484 C-60.37125122 407.49905289 -61.35871338 407.49664093 -62.37609863 407.49415588 C-64.46415217 407.49513552 -66.5522313 407.50855684 -68.64013672 407.53344727 C-71.84073902 407.56774465 -75.03858031 407.55411525 -78.23925781 407.53466797 C-80.26661335 407.54156639 -82.29396173 407.55123874 -84.32128906 407.56396484 C-85.28071411 407.55900497 -86.24013916 407.5540451 -87.2286377 407.54893494 C-88.56517395 407.57268944 -88.56517395 407.57268944 -89.92871094 407.59692383 C-90.71242065 407.60312241 -91.49613037 407.60932098 -92.30358887 407.6157074 C-94.51334677 407.97595967 -94.51334677 407.97595967 -96.06680298 409.94012451 Z M32.64746094 408.13037109 C29.99629106 412.10712592 30.37009729 415.54857399 30.39349365 420.16467285 C30.39037367 421.10025292 30.38725369 422.03583299 30.38403916 422.99976397 C30.37603456 426.14818066 30.38239242 429.29640594 30.38867188 432.44482422 C30.38596311 434.69652927 30.38240282 436.94823344 30.37805176 439.19993591 C30.3689119 445.32581938 30.37247859 451.45163569 30.37880993 457.57752037 C30.38386167 463.97831788 30.37918078 470.3791095 30.3760376 476.77990723 C30.37216203 488.2196293 30.37839043 499.65931407 30.38855627 511.09902984 C30.39749204 521.47586581 30.39594007 531.85265703 30.38671875 542.22949219 C30.37602093 554.2735272 30.37202891 566.31752839 30.37794328 578.36156988 C30.38106674 584.73939431 30.38146202 591.11718791 30.3748703 597.49501038 C30.36910739 603.49003745 30.37307437 609.48497975 30.38465881 615.47999763 C30.38731106 617.68471702 30.38653075 619.88944349 30.38213348 622.09416008 C30.37669884 625.09489395 30.38348684 628.09535315 30.39349365 631.09606934 C30.38903221 631.97631161 30.38457077 632.85655389 30.37997413 633.76347017 C30.40340048 638.7426843 30.40340048 638.7426843 32.64746094 643.13037109 C35.31941449 643.42225714 37.75625241 643.52651368 40.42871094 643.49365234 C41.19799927 643.49415085 41.9672876 643.49464935 42.7598877 643.49516296 C44.38731467 643.49282115 46.01474517 643.48308622 47.64208984 643.46655273 C50.13769812 643.44296338 52.63223832 643.44599008 55.12792969 643.45263672 C56.70736316 643.44705996 58.28679212 643.4399501 59.86621094 643.43115234 C60.98968933 643.43251945 60.98968933 643.43251945 62.13586426 643.43391418 C66.35052422 643.51509762 66.35052422 643.51509762 69.64746094 641.13037109 C69.86456726 638.69342697 69.95881663 636.36651802 69.96630859 633.92675781 C69.98137703 632.81441269 69.98137703 632.81441269 69.99674988 631.67959595 C70.02769489 629.22309155 70.04464813 626.76669667 70.06152344 624.31005859 C70.08022602 622.60896861 70.09979874 620.90788798 70.12020874 619.20681763 C70.17163226 614.7253775 70.2112031 610.24390726 70.24835205 605.7623291 C70.28832782 601.19092294 70.33944939 596.61964315 70.38964844 592.04833984 C70.48652872 583.07576334 70.56986479 574.10313512 70.64746094 565.13037109 C77.24746094 565.13037109 83.84746094 565.13037109 90.64746094 565.13037109 C94.02193825 574.12897726 94.02193825 574.12897726 94.88671875 577.49731445 C95.08436325 578.2577002 95.28200775 579.01808594 95.48564148 579.80151367 C95.68857315 580.59968506 95.89150482 581.39785645 96.10058594 582.22021484 C96.3217659 583.07454102 96.54294586 583.92886719 96.77082825 584.80908203 C97.24097777 586.62584244 97.70934819 588.44306405 98.17605591 590.26071167 C99.38896833 594.98044386 100.61819151 599.69592342 101.84667969 604.41162109 C102.08789047 605.338452 102.32910126 606.2652829 102.57762146 607.22019958 C104.56689594 614.85151156 106.60167228 622.46842777 108.70996094 630.06787109 C108.98420898 631.07132568 109.25845703 632.07478027 109.54101562 633.10864258 C109.79399414 634.01171143 110.04697266 634.91478027 110.30761719 635.84521484 C110.52039307 636.60954834 110.73316895 637.37388184 110.95239258 638.16137695 C111.6544514 640.40746216 111.6544514 640.40746216 113.64746094 643.13037109 C116.33114223 643.40974184 118.78110285 643.5025362 121.46386719 643.45849609 C122.62135719 643.45568634 122.62135719 643.45568634 123.80223083 643.45281982 C125.43387165 643.44609426 127.0654962 643.43216968 128.69702148 643.41162109 C131.20343897 643.3804522 133.70922821 643.37065032 136.21582031 643.36474609 C137.79851032 643.35557694 139.3811939 643.34520145 140.96386719 643.33349609 C141.71801407 643.32924622 142.47216095 643.32499634 143.24916077 643.32061768 C146.7409581 643.58612099 146.7409581 643.58612099 149.64746094 642.13037109 C149.69809119 633.68699334 147.09974549 625.50264919 144.90136719 617.43505859 C144.52574329 616.03380771 144.15083287 614.63236539 143.77659607 613.23074341 C142.7961668 609.56598734 141.80657684 605.90376966 140.81481934 602.24206543 C139.81040559 598.527863 138.8140525 594.81150141 137.81738281 591.09521484 C136.69448673 586.90873747 135.57095721 582.72245062 134.44032288 578.53805542 C132.78752615 572.41464867 131.15400057 566.29150159 129.64746094 560.13037109 C130.36933594 559.88158203 131.09121094 559.63279297 131.83496094 559.37646484 C138.64879766 556.35755663 144.28870822 550.68541365 147.64746094 544.06787109 C152.09504018 532.35248775 151.94585855 519.09103274 151.87792969 506.72802734 C151.87673093 505.31188499 151.87628619 503.89574183 151.87654114 502.479599 C151.87499486 499.53932572 151.86685286 496.59917739 151.85327148 493.65893555 C151.8362983 489.94323195 151.83255619 486.2276633 151.83307171 482.5119257 C153.91161991 448.07149725 153.91161991 448.07149725 140.64746094 418.13037109 C128.68796428 406.80032163 112.63437914 407.81617768 97.26855469 407.82958984 C95.40576584 407.82569717 93.54297788 407.82136133 91.68019104 407.81660461 C87.79970399 407.80918478 83.91930804 407.80940586 80.03881836 407.81469727 C75.05857289 407.82053241 70.07869445 407.80344383 65.09850979 407.78035259 C61.26304436 407.76566325 57.42766882 407.76473617 53.59218025 407.76786232 C51.75449958 407.76734819 49.91681399 407.7620934 48.07916069 407.7520504 C45.52282055 407.7397759 42.96721614 407.74641924 40.41088867 407.75805664 C39.26940369 407.74659103 39.26940369 407.74659103 38.1048584 407.7348938 C35.78841695 407.72300765 35.78841695 407.72300765 32.64746094 408.13037109 Z M182.64746094 410.13037109 C182.45158189 413.12991693 182.38273338 416.0370604 182.40022278 419.03768921 C182.39780836 419.97170929 182.39539395 420.90572936 182.39290637 421.86805308 C182.38724274 425.01724841 182.39595261 428.16624328 182.40454102 431.31542969 C182.40346878 433.56536413 182.40153097 435.8152983 182.39878845 438.06523132 C182.39392707 444.19124625 182.40161233 450.31718871 182.4117415 456.44319487 C182.42050311 462.84352764 182.4187649 469.24385801 182.41838074 475.64419556 C182.41931838 486.39643833 182.42796122 497.14864663 182.44165039 507.90087891 C182.45573189 518.96696483 182.46282147 530.03302609 182.4621582 541.09912109 C182.46211825 541.78035602 182.46207829 542.46159095 182.46203712 543.16346936 C182.46199677 543.84351697 182.46195641 544.52356457 182.46191484 545.22421968 C182.46125995 557.1758372 182.46640783 569.12744442 182.47470665 581.0790596 C182.47824227 586.17227889 182.4800703 591.2654946 182.48060036 596.35871506 C182.48160344 602.35535376 182.48769732 608.35196645 182.49776649 614.34859657 C182.50069248 616.55289488 182.50191666 618.75719618 182.50133896 620.96149635 C182.50084975 623.96405398 182.50648945 626.96653826 182.51374817 629.96908569 C182.51219957 630.84709725 182.51065096 631.7251088 182.50905544 632.62972677 C182.51227988 633.43415515 182.51550433 634.23858353 182.51882648 635.06738853 C182.51988312 636.10695546 182.51988312 636.10695546 182.52096111 637.16752374 C182.65552592 639.25551216 183.08101829 641.11995525 183.64746094 643.13037109 C194.67041759 643.2233549 205.6932798 643.29427961 216.71654987 643.33761978 C221.83599589 643.35842871 226.95517211 643.38662319 232.07446289 643.43212891 C237.02172152 643.47582651 241.96872184 643.49955846 246.91615868 643.50988007 C248.79667408 643.51722872 250.67717654 643.5315782 252.55758095 643.55329132 C266.47197036 643.70746351 278.65723951 642.72534957 289.64746094 633.13037109 C299.30486884 622.28734392 300.24087193 608.99276863 300.16503906 595.18530273 C300.17047067 593.51005956 300.17759911 591.83482117 300.1862793 590.15959167 C300.2043937 585.6429236 300.19749429 581.12662418 300.18476295 576.6099503 C300.17457158 571.86214473 300.18404572 567.11436882 300.19030762 562.36656189 C300.19756697 554.39527779 300.18804217 546.42414235 300.16894531 538.45288086 C300.14718736 529.26533365 300.15422703 520.07814172 300.17625093 510.89060313 C300.19446285 502.97341997 300.19693484 495.05634315 300.18649626 487.13914579 C300.18029208 482.4232972 300.17934011 477.70761502 300.19264221 472.99177742 C300.20428454 468.55511724 300.19602371 464.1189104 300.17306519 459.68229866 C300.16782217 458.06391143 300.16921526 456.44548536 300.17811584 454.82711411 C300.24383581 441.65233899 298.86281634 428.34305934 289.64746094 418.13037109 C277.82215981 406.95960693 261.85671346 407.67887596 246.63183594 407.76708984 C244.84059652 407.76760973 243.04935653 407.76708707 241.25811768 407.76557922 C237.53673596 407.76566819 233.8155743 407.77595421 230.09423828 407.79418945 C225.31927354 407.81707349 220.54462373 407.81737714 215.76961899 407.81067181 C212.08599021 407.80733961 208.40243375 407.81394441 204.71881866 407.82380104 C202.95650866 407.82765148 201.19419063 407.8288019 199.43187714 407.82721519 C196.98372336 407.82684596 194.53598254 407.83941786 192.08789062 407.85571289 C191.35966599 407.85323547 190.63144135 407.85075806 189.88114929 407.84820557 C185.81417265 407.77427534 185.81417265 407.77427534 182.64746094 410.13037109 Z M340.33496094 420.50537109 C330.89818587 432.45164868 331.33346664 446.1040135 331.34667969 460.64990234 C331.3427866 462.43967283 331.33845068 464.22944241 331.33369446 466.01921082 C331.32626927 469.75185153 331.32649855 473.48439755 331.33178711 477.21704102 C331.33760684 481.99636674 331.32057279 486.77530808 331.29744244 491.5545702 C331.28271243 495.24261227 331.28183188 498.93056127 331.28495216 502.61862755 C331.28443957 504.38126073 331.27921342 506.1438992 331.26914024 507.90650368 C331.25679383 510.36655474 331.26355399 512.8258496 331.27514648 515.28588867 C331.26750275 516.00961166 331.25985901 516.73333466 331.25198364 517.47898865 C331.29757729 521.85984053 331.90862101 524.67347181 334.64746094 528.13037109 C337.01619167 529.33398683 339.09886903 530.21024306 341.59277344 531.03662109 C342.29411407 531.28383911 342.99545471 531.53105713 343.7180481 531.7857666 C346.02105123 532.58901892 348.33239964 533.36261085 350.64746094 534.13037109 C351.82109192 534.52409912 351.82109192 534.52409912 353.01843262 534.92578125 C358.83849534 536.87321021 364.67817757 538.75713208 370.52246094 540.63037109 C372.22440286 541.17817857 373.92622616 541.72635474 375.62792969 542.27490234 C376.46793518 542.5455249 377.30794067 542.81614746 378.17340088 543.0949707 C379.84760823 543.63565025 381.52124302 544.17810618 383.1942749 544.72241211 C387.41250752 546.09425923 391.63621273 547.43751895 395.87890625 548.73193359 C397.5335736 549.2500192 399.18819775 549.76824282 400.84277344 550.28662109 C401.61523407 550.51418091 402.3876947 550.74174072 403.18356323 550.97619629 C405.31982422 551.65576172 405.31982422 551.65576172 408.64746094 553.13037109 C409.69730215 556.05639035 409.77602799 558.79147016 409.78027344 561.88427734 C409.78236816 562.81264404 409.78446289 563.74101074 409.78662109 564.69750977 C409.77961182 566.18021362 409.77961182 566.18021362 409.77246094 567.69287109 C409.76907715 568.70905518 409.76569336 569.72523926 409.76220703 570.7722168 C409.71737267 577.45931349 409.57644645 584.1374275 409.27246094 590.81787109 C409.24168457 591.6004126 409.2109082 592.3829541 409.17919922 593.18920898 C408.80064769 600.27566221 408.80064769 600.27566221 406.64746094 603.13037109 C401.64395803 606.27575465 395.91844578 605.45906078 390.20996094 605.44287109 C389.07751953 605.45898438 387.94507813 605.47509766 386.77832031 605.49169922 C385.68455078 605.49234375 384.59078125 605.49298828 383.46386719 605.49365234 C382.46814697 605.4966333 381.47242676 605.49961426 380.4465332 605.50268555 C377.15675766 605.06510092 375.2835908 604.12612656 372.64746094 602.13037109 C371.53029351 598.77886881 371.47296458 596.13029507 371.40136719 592.59912109 C371.36849609 591.31392578 371.335625 590.02873047 371.30175781 588.70458984 C371.25429152 586.66378532 371.20981973 584.62301266 371.1706543 582.58203125 C371.13093381 580.60837487 371.07881856 578.63498018 371.02636719 576.66162109 C371.00131104 575.48148438 370.97625488 574.30134766 370.95043945 573.08544922 C370.86079976 569.94452352 370.86079976 569.94452352 368.64746094 567.13037109 C365.89288637 566.85110723 363.36606633 566.75831805 360.61230469 566.80224609 C359.42152061 566.80505585 359.42152061 566.80505585 358.2066803 566.80792236 C356.52796227 566.81464842 354.84926005 566.82857394 353.1706543 566.84912109 C350.59181266 566.88028829 348.01358163 566.89009165 345.43457031 566.89599609 C343.8063076 566.90516529 342.17805114 566.91554079 340.54980469 566.92724609 C339.77378403 566.93149597 338.99776337 566.93574585 338.19822693 566.94012451 C334.62616492 566.6605008 334.62616492 566.6605008 331.64746094 568.13037109 C331.52113913 571.00821161 331.45871632 573.8606034 331.44433594 576.73974609 C331.43863586 577.61753723 331.43293579 578.49532837 331.42706299 579.39971924 C331.41758778 581.26939686 331.41106907 583.13909138 331.40722656 585.00878906 C331.39764253 587.82697459 331.3666964 590.64439208 331.33496094 593.46240234 C331.24769945 608.05686598 331.70706351 622.29351105 342.08886719 633.71630859 C351.44827436 642.13212431 362.36694135 643.44351385 374.41308594 643.46630859 C375.64226746 643.47296539 376.87144897 643.47962219 378.13787842 643.48648071 C380.73334258 643.49658372 383.3288326 643.50129846 385.92431641 643.50097656 C389.8702334 643.50534098 393.81502345 643.54166445 397.76074219 643.57958984 C400.29068631 643.58546039 402.8206357 643.58942819 405.35058594 643.59130859 C406.51865784 643.60567963 407.68672974 643.62005066 408.89019775 643.63485718 C419.84435424 643.57455454 429.50407899 640.87701801 437.64355469 633.26318359 C446.4515772 624.18041542 448.78908909 613.65231617 448.80859375 601.27661133 C448.81355865 600.51323456 448.81852356 599.74985779 448.82363892 598.96334839 C448.83816405 596.45521118 448.8450441 593.94713708 448.85058594 591.43896484 C448.85634259 589.68831889 448.86210025 587.93767293 448.86785889 586.18702698 C448.87833945 582.52466541 448.88420226 578.86232561 448.88769531 575.19995117 C448.89319301 570.51021369 448.91726047 565.82076462 448.94566727 561.13111782 C448.96429362 557.51857152 448.9694991 553.90609498 448.97103119 550.29350471 C448.97405508 548.56435623 448.98207472 546.8352089 448.99521637 545.10610771 C449.0122872 542.68875953 449.01039506 540.27212047 449.00390625 537.85473633 C449.01312103 537.14343063 449.02233582 536.43212494 449.03182983 535.69926453 C448.99518472 531.33723672 448.37579763 528.56572583 445.64746094 525.13037109 C443.92636328 523.80574154 443.92636328 523.80574154 441.95532227 522.98657227 C441.24832184 522.66522308 440.54132141 522.3438739 439.81289673 522.01278687 C436.4924049 520.65968539 433.1431487 519.50059967 429.72167969 518.43115234 C428.98402878 518.19452377 428.24637787 517.9578952 427.4863739 517.71409607 C425.10439988 516.95114669 422.7197537 516.19695812 420.33496094 515.44287109 C417.01773137 514.38424196 413.70179424 513.32158818 410.38574219 512.25927734 C409.5609436 511.99577484 408.73614502 511.73227234 407.88635254 511.46078491 C402.68238133 509.79509505 397.49278363 508.09183311 392.31542969 506.34521484 C390.45301636 505.71715942 390.45301636 505.71715942 388.55297852 505.07641602 C386.24568998 504.29476838 383.93948586 503.50991043 381.63452148 502.72143555 C380.61527588 502.37685303 379.59603027 502.03227051 378.54589844 501.67724609 C377.66595215 501.37657227 376.78600586 501.07589844 375.87939453 500.76611328 C373.55337299 499.99339962 373.55337299 499.99339962 370.64746094 500.13037109 C370.73977176 493.36742476 370.84708309 486.60483591 370.96484375 479.84228516 C371.0031351 477.5415589 371.03798768 475.24077274 371.06933594 472.93994141 C371.11498264 469.63340848 371.17297841 466.32728797 371.23339844 463.02099609 C371.24494965 461.99169983 371.25650085 460.96240356 371.2684021 459.9019165 C371.28827179 458.94122253 371.30814148 457.98052856 371.32861328 456.99072266 C371.34193695 456.14689026 371.35526062 455.30305786 371.36898804 454.43365479 C371.67397692 451.91105414 372.32013959 450.28647052 373.64746094 448.13037109 C376.73265559 445.99933426 379.38703314 445.87354255 383.07714844 445.86474609 C384.12 445.86216797 385.16285156 445.85958984 386.23730469 445.85693359 C387.32140625 445.86466797 388.40550781 445.87240234 389.52246094 445.88037109 C390.59882812 445.87263672 391.67519531 445.86490234 392.78417969 445.85693359 C403.45187011 445.88324109 403.45187011 445.88324109 407.64746094 448.13037109 C409.02109915 451.74305595 408.92085905 455.66606584 409.11230469 459.48583984 C409.19074807 460.9266132 409.26953416 462.36736794 409.34863281 463.80810547 C409.46878962 466.07282697 409.58592842 468.33759803 409.69702148 470.6027832 C409.80612029 472.79351564 409.9270839 474.98333428 410.04980469 477.17333984 C410.11675537 478.48326904 410.18370605 479.79319824 410.25268555 481.14282227 C410.38296143 482.12871338 410.5132373 483.11460449 410.64746094 484.13037109 C413.62767906 485.62048015 416.68670285 485.31370642 419.95605469 485.33349609 C420.67857925 485.33919617 421.40110382 485.34489624 422.14552307 485.35076904 C423.67455582 485.36021828 425.20360892 485.36675273 426.73266602 485.37060547 C429.07246335 485.38031921 431.41138516 485.41134486 433.75097656 485.44287109 C435.23599738 485.44940046 436.72102449 485.45465119 438.20605469 485.45849609 C439.25616982 485.4770163 439.25616982 485.4770163 440.32749939 485.49591064 C443.01773218 485.48356566 445.17319606 485.37475447 447.58764648 484.13061523 C449.32574087 480.85021734 449.07362211 477.42170377 449.04589844 473.79833984 C449.04876862 472.97014236 449.05163879 472.14194489 449.05459595 471.28865051 C449.0566391 469.52925944 449.0510917 467.76984578 449.03857422 466.01049805 C449.02274696 463.36566642 449.03829596 460.72241593 449.05761719 458.07763672 C449.07558134 444.40957575 448.7267977 430.20920225 439.64746094 419.13037109 C437.15423552 416.78644061 434.56409281 414.91111388 431.64746094 413.13037109 C430.71933594 412.55287109 429.79121094 411.97537109 428.83496094 411.38037109 C420.57524591 408.14126716 411.83310717 407.82158596 403.05761719 407.82958984 C401.99183945 407.82530472 400.92606171 407.82101959 399.82798767 407.81660461 C397.59016628 407.81090129 395.35232636 407.81033125 393.11450195 407.81469727 C389.7221672 407.81785971 386.3307041 407.79433794 382.93847656 407.76904297 C380.74902452 407.76676956 378.55957017 407.76606667 376.37011719 407.76708984 C375.37287125 407.7578801 374.37562531 407.74867035 373.34815979 407.73918152 C360.46240884 407.82238743 349.2290087 410.79067553 340.33496094 420.50537109 Z " fill="#020202" transform="translate(535.3525390625,-0.13037109375)"/>
<path d="M0 0 C1.21494141 -0.01998047 2.42988281 -0.03996094 3.68164062 -0.06054688 C13.62090967 -0.0551007 13.62090967 -0.0551007 17.28515625 2.15234375 C21.27258341 6.15344991 21.81248636 9.98930806 21.82319641 15.50315857 C21.83028122 16.72141327 21.83736603 17.93966797 21.84466553 19.19483948 C21.84237193 20.53671302 21.83986226 21.87858621 21.8371582 23.22045898 C21.84150756 24.64001737 21.84669146 26.05957341 21.85264587 27.47912598 C21.86602281 31.32831007 21.86661603 35.17739589 21.86408257 39.02659869 C21.86301202 42.2423068 21.86789838 45.4579951 21.872688 48.67369896 C21.88377857 56.26107809 21.88422306 63.84840771 21.87817383 71.43579102 C21.87213297 79.25828684 21.88444885 87.08060285 21.9057439 94.90306801 C21.92336685 101.62423772 21.92936018 108.34535024 21.92610615 115.06654221 C21.92429432 119.07859027 21.92691948 123.09051005 21.94082069 127.10253716 C21.95340584 130.87582339 21.95144862 134.64882952 21.93840981 138.42211151 C21.93604599 139.8047832 21.93877178 141.18747464 21.94703293 142.57012367 C21.95751748 144.46167578 21.94758758 146.35330784 21.9367218 148.24485779 C21.93688954 149.3021128 21.93705729 150.35936781 21.93723011 151.44866085 C21.36535304 156.00993981 19.89002135 159.39701029 16.25 162.25 C9.87807618 165.06550122 3.30557795 164.48398062 -3.5 164.1875 C-4.48033203 164.16042969 -5.46066406 164.13335938 -6.47070312 164.10546875 C-15.69913066 163.71703528 -15.69913066 163.71703528 -19.4375 160.4375 C-21.58936145 157.07387879 -21.69070167 154.31886541 -21.69819641 150.37147522 C-21.70528122 149.12790756 -21.71236603 147.8843399 -21.71966553 146.60308838 C-21.71737178 145.22766077 -21.71486209 143.85223351 -21.7121582 142.47680664 C-21.71650609 141.02621702 -21.72168949 139.57562969 -21.72764587 138.12504578 C-21.74103883 134.18703011 -21.74161423 130.2491104 -21.73908257 126.3110764 C-21.73801308 123.02324985 -21.74289567 119.73544273 -21.747688 116.44762033 C-21.75878417 108.69105828 -21.75921995 100.93454466 -21.75317383 93.17797852 C-21.74713275 85.1765535 -21.75944815 77.17530427 -21.7807439 69.17390925 C-21.79835753 62.30330759 -21.80436164 55.4327619 -21.80110615 48.5621385 C-21.79929279 44.45900566 -21.80193469 40.35599822 -21.81582069 36.25288582 C-21.82839063 32.39425726 -21.82646301 28.53590283 -21.81340981 24.67727852 C-21.81104265 23.26193652 -21.81378374 21.84657528 -21.82203293 20.43125534 C-21.8324892 18.49769825 -21.8226033 16.56406316 -21.8117218 14.63050842 C-21.81188954 13.54890977 -21.81205729 12.46731112 -21.81223011 11.35293674 C-21.24872208 6.9687894 -19.6043646 4.34288789 -16.13647461 1.65209961 C-11.02181046 -0.64961492 -5.51831147 -0.03210017 0 0 Z " fill="#0E0E0E" transform="translate(302.4375,443.5625)"/>
<path d="M0 0 C32 0 32 0 38 3 C40.93004535 6.65304026 41.37601626 9.45577217 41.38095093 14.0723877 C41.39364014 15.90193748 41.39364014 15.90193748 41.40658569 17.76844788 C41.40075336 19.1119093 41.39460889 20.4553694 41.38818359 21.79882812 C41.39225069 23.22001041 41.39759334 24.64118953 41.40411377 26.06236267 C41.41777693 29.91566424 41.41249294 33.76872453 41.40297651 37.62203026 C41.39537471 41.65692158 41.40242697 45.69179242 41.40713501 49.72668457 C41.41259105 56.50223495 41.40540496 63.27768718 41.39111328 70.05322266 C41.37478702 77.88370075 41.38007564 85.71394449 41.3965925 93.5444169 C41.41021171 100.27067522 41.41212491 106.99686305 41.40427649 113.7231307 C41.39960236 117.73904861 41.39896794 121.75485641 41.40888596 125.77076721 C41.41755972 129.54652932 41.41152646 133.32198964 41.39420319 137.09771919 C41.3902405 138.48241742 41.39136869 139.86714109 41.39799118 141.25182915 C41.40620451 143.14374756 41.39407251 145.03572156 41.38095093 146.9276123 C41.37981985 147.98578911 41.37868877 149.04396591 41.37752342 150.13420868 C40.93115133 153.52263223 40.090251 155.30291602 38 158 C27.10462711 164.53722373 12.70607904 161 0 161 C0 107.87 0 54.74 0 0 Z " fill="#0D0D0D" transform="translate(757,445)"/>
<path d="M0 0 C1.10853081 -0.01210762 1.10853081 -0.01210762 2.23945618 -0.02445984 C3.80894616 -0.03831931 5.37846651 -0.0490331 6.94799805 -0.05688477 C9.3363683 -0.0740256 11.72332812 -0.11788258 14.11132812 -0.16210938 C15.63670857 -0.17224256 17.1621008 -0.18075671 18.6875 -0.1875 C19.75190559 -0.21376213 19.75190559 -0.21376213 20.83781433 -0.24055481 C25.91712667 -0.21860602 28.85287098 0.91016327 32.67578125 4.23828125 C34.63982989 8.0846455 34.93261264 11.29960169 34.95043945 15.58569336 C34.96473747 17.47806984 34.96473747 17.47806984 34.97932434 19.40867615 C34.97906289 20.77765938 34.97812575 22.14664263 34.9765625 23.515625 C34.98045291 24.92900213 34.98478829 26.34237809 34.98954773 27.75575256 C34.99699604 30.71375321 34.99672875 33.67163446 34.99145508 36.62963867 C34.98566145 40.41023693 35.00259509 44.19034512 35.02579975 47.97086239 C35.04056949 50.88862438 35.04140443 53.80626921 35.03829002 56.72406197 C35.03880158 58.11744724 35.04400823 59.51083935 35.05410194 60.90418816 C35.06651091 62.85657857 35.05771125 64.80906844 35.0480957 66.76147461 C35.04872513 67.87002304 35.04935455 68.97857147 35.05000305 70.12071228 C34.61392039 73.75363199 33.59589329 76.13474786 31.67578125 79.23828125 C26.74799076 82.08564901 22.65692233 82.60695208 17.02734375 82.56640625 C16.32934662 82.56453308 15.63134949 82.56265991 14.91220093 82.56072998 C13.45167187 82.554058 11.99115918 82.54024152 10.53076172 82.51953125 C8.28596562 82.48807363 6.04187079 82.47852424 3.796875 82.47265625 C-7.16036176 82.40213824 -7.16036176 82.40213824 -8.32421875 81.23828125 C-8.42455741 78.74874428 -8.46039818 76.28693172 -8.45361328 73.796875 C-8.4553656 73.01804962 -8.45711792 72.23922424 -8.45892334 71.4367981 C-8.46334224 68.84977014 -8.46040374 66.26280996 -8.45703125 63.67578125 C-8.45770428 61.88598619 -8.45867429 60.09619123 -8.45993042 58.30639648 C-8.46140744 54.55028414 -8.45925269 50.79419553 -8.45458984 47.03808594 C-8.44889255 42.21227632 -8.45217153 37.3865223 -8.45816231 32.56071472 C-8.4617678 28.86339902 -8.46062939 25.16609661 -8.45803452 21.46878052 C-8.45736521 19.68889357 -8.45819378 17.90900543 -8.46051407 16.12911987 C-8.4630404 13.64594303 -8.45920029 11.16285751 -8.45361328 8.6796875 C-8.45563751 7.93679474 -8.45766174 7.19390198 -8.45974731 6.42849731 C-8.42984527 -0.70880109 -6.46820399 0.06638674 0 0 Z " fill="#101010" transform="translate(613.32421875,444.76171875)"/>
<path d="M0 0 C5.32125 -0.0825 10.6425 -0.165 16.125 -0.25 C17.79320801 -0.28641602 19.46141602 -0.32283203 21.18017578 -0.36035156 C22.51854164 -0.37204587 23.85692184 -0.38223594 25.1953125 -0.390625 C25.877146 -0.41108887 26.55897949 -0.43155273 27.26147461 -0.45263672 C32.30770371 -0.45628152 35.23718921 0.64614495 39 4 C41.56629746 8.99307703 41.30640173 14.28795673 41.30078125 19.78125 C41.30506638 20.71296021 41.3093515 21.64467041 41.31376648 22.60461426 C41.31949104 24.56794423 41.3200239 26.53129541 41.31567383 28.49462891 C41.31251027 31.49027771 41.33600896 34.48494159 41.36132812 37.48046875 C41.36360102 39.39322793 41.36430466 41.30598975 41.36328125 43.21875 C41.372491 44.10953247 41.38170074 45.00031494 41.39118958 45.91809082 C41.35375696 50.97261302 41.05102273 54.75663742 38 59 C33.49356113 62.08363034 29.79313301 62.3575176 24.4140625 62.29296875 C23.12967285 62.28547607 21.8452832 62.2779834 20.52197266 62.27026367 C18.09797119 62.22929565 18.09797119 62.22929565 15.625 62.1875 C10.46875 62.125625 5.3125 62.06375 0 62 C0 41.54 0 21.08 0 0 Z " fill="#131313" transform="translate(133,445)"/>
<path d="M0 0 C1.00305176 0.00012085 1.00305176 0.00012085 2.02636719 0.00024414 C4.04123712 -0.00192187 6.05554107 -0.02001321 8.0703125 -0.0390625 C9.35164063 -0.04099609 10.63296875 -0.04292969 11.953125 -0.04492188 C13.71100342 -0.05108521 13.71100342 -0.05108521 15.50439453 -0.05737305 C20.08475591 0.26598864 24.48364849 0.72388287 27.8203125 4.06054688 C29.64416444 7.50560054 30.07065556 10.64067975 30.09057617 14.50756836 C30.09695602 15.35202011 30.10333588 16.19647186 30.10990906 17.06651306 C30.11102188 17.97075516 30.1121347 18.87499725 30.11328125 19.80664062 C30.11827385 21.21200829 30.11827385 21.21200829 30.12336731 22.64576721 C30.12842481 24.62524933 30.130776 26.60473995 30.13061523 28.58422852 C30.13280189 31.60837877 30.15097058 34.63216425 30.16992188 37.65625 C30.17285602 39.58137896 30.17484067 41.50650966 30.17578125 43.43164062 C30.18296677 44.33385849 30.19015228 45.23607635 30.19755554 46.16563416 C30.17838704 51.4465084 29.9956232 55.68951646 26.5078125 59.93554688 C22.9116178 62.81250263 18.78612788 62.31500697 14.43359375 62.28320312 C13.70536911 62.28178818 12.97714447 62.28037323 12.22685242 62.27891541 C9.90379711 62.27332346 7.58083862 62.2607725 5.2578125 62.24804688 C3.68164202 62.24303083 2.10547002 62.23846811 0.52929688 62.234375 C-3.33206848 62.22335668 -7.19336158 62.20609761 -11.0546875 62.18554688 C-11.07781514 54.24940901 -11.09560473 46.31328512 -11.10649967 38.37712193 C-11.11172758 34.69240189 -11.11882355 31.00770485 -11.13012695 27.32299805 C-11.14095912 23.76983857 -11.14696503 20.21670125 -11.14956474 16.66352654 C-11.1514184 15.30509021 -11.15503788 13.94665516 -11.16041756 12.58822823 C-11.16763225 10.69172464 -11.16809559 8.79519895 -11.16821289 6.89868164 C-11.1704335 5.8172438 -11.17265411 4.73580597 -11.17494202 3.62159729 C-10.89599475 -2.02916433 -4.41115761 0.0200913 0 0 Z " fill="#060606" transform="translate(144.0546875,543.814453125)"/>
<path d="M0 0 C2.30777815 2.30777815 2.43605318 3.25365638 3.01806641 6.39404297 C3.27982666 7.77473465 3.27982666 7.77473465 3.546875 9.18331909 C3.72992188 10.19274567 3.91296875 11.20217224 4.1015625 12.2421875 C4.29927246 13.29761749 4.49698242 14.35304749 4.70068359 15.44046021 C5.34986587 18.91725031 5.98766542 22.39602019 6.625 25.875 C7.06894842 28.26963333 7.51345151 30.6641639 7.95849609 33.05859375 C9.09400491 39.17959734 10.21945859 45.30240782 11.34277344 51.42565918 C12.17354611 55.94383424 13.01235551 60.46049497 13.85171509 64.9770813 C14.60403673 69.02997651 15.35181664 73.08369736 16.09783936 77.13775635 C16.44796981 79.03880621 16.79923899 80.93964672 17.15167236 82.840271 C17.63945979 85.4760479 18.12138151 88.11282825 18.6015625 90.75 C18.74480957 91.51845245 18.88805664 92.28690491 19.03564453 93.0786438 C19.69976081 96.76210092 20.16497524 100.25441695 20 104 C16.83685847 105.58157077 13.43710457 105.1418935 9.96484375 105.1328125 C8.77405968 105.13424759 8.77405968 105.13424759 7.55921936 105.13571167 C5.88054322 105.13639251 4.20186445 105.1345449 2.52319336 105.13037109 C-0.05556097 105.12501441 -2.63414168 105.13032292 -5.21289062 105.13671875 C-6.84114622 105.13605809 -8.46940171 105.13477718 -10.09765625 105.1328125 C-11.26168724 105.13584885 -11.26168724 105.13584885 -12.44923401 105.13894653 C-17.88504417 105.11495583 -17.88504417 105.11495583 -19 104 C-19.3118141 97.20432443 -18.47466632 91.05039089 -17.13671875 84.40234375 C-16.94406937 83.40981094 -16.75141998 82.41727814 -16.55293274 81.39466858 C-15.93898825 78.24068016 -15.31356453 75.08910254 -14.6875 71.9375 C-14.2785117 69.84976304 -13.87030213 67.76187336 -13.46289062 65.67382812 C-12.67186544 61.62329743 -11.87774094 57.57339462 -11.08129883 53.52392578 C-9.18311878 43.85103946 -7.36460732 34.16641882 -5.68359375 24.453125 C-5.47669922 23.25945312 -5.26980469 22.06578125 -5.05664062 20.8359375 C-4.63590749 18.39913612 -4.21939099 15.96160372 -3.80664062 13.5234375 C-3.60103516 12.34523438 -3.39542969 11.16703125 -3.18359375 9.953125 C-3.00368896 8.90286133 -2.82378418 7.85259766 -2.63842773 6.77050781 C-2.05080665 4.22047948 -1.28752582 2.26343849 0 0 Z " fill="#1D1D1D" transform="translate(463,459)"/>
<path d="M0 0 C1.00305176 0.00012085 1.00305176 0.00012085 2.02636719 0.00024414 C4.04123712 -0.00192187 6.05554107 -0.02001321 8.0703125 -0.0390625 C9.35164063 -0.04099609 10.63296875 -0.04292969 11.953125 -0.04492188 C13.71100342 -0.05108521 13.71100342 -0.05108521 15.50439453 -0.05737305 C19.29531848 0.21025639 22.33968213 1.02534204 25.9453125 2.18554688 C25.9453125 3.17554688 25.9453125 4.16554688 25.9453125 5.18554688 C24.9553125 4.52554688 23.9653125 3.86554687 22.9453125 3.18554688 C20.48146347 2.94589641 18.11990674 2.81312687 15.65234375 2.77148438 C14.94631516 2.75211823 14.24028656 2.73275208 13.51286316 2.71279907 C11.26130189 2.65309463 9.00968922 2.60665547 6.7578125 2.56054688 C5.22979561 2.52235859 3.70180005 2.48330635 2.17382812 2.44335938 C-1.56883685 2.34740092 -5.3116026 2.26333676 -9.0546875 2.18554688 C-9.04888672 3.1567749 -9.04308594 4.12800293 -9.03710938 5.12866211 C-8.98880525 17.17506029 -9.24573625 29.20620539 -9.5546875 41.24804688 C-9.60305648 43.19400566 -9.65123463 45.13996919 -9.69921875 47.0859375 C-9.81516793 51.78587741 -9.9350005 56.48569483 -10.0546875 61.18554688 C0.5053125 61.18554688 11.0653125 61.18554688 21.9453125 61.18554688 C21.9453125 61.51554688 21.9453125 61.84554687 21.9453125 62.18554688 C11.0553125 62.18554688 0.1653125 62.18554688 -11.0546875 62.18554688 C-11.07563265 54.25664373 -11.09567079 46.32784022 -11.10643768 38.39893341 C-11.11172752 34.70694297 -11.11880124 31.01497533 -11.13012695 27.32299805 C-11.14095912 23.76983857 -11.14696503 20.21670125 -11.14956474 16.66352654 C-11.1514184 15.30509021 -11.15503788 13.94665516 -11.16041756 12.58822823 C-11.16763225 10.69172464 -11.16809559 8.79519895 -11.16821289 6.89868164 C-11.1704335 5.8172438 -11.17265411 4.73580597 -11.17494202 3.62159729 C-10.89599475 -2.02916433 -4.41115761 0.0200913 0 0 Z " fill="#BCBCBC" transform="translate(144.0546875,543.814453125)"/>
<path d="M0 0 C0.66 0.33 1.32 0.66 2 1 C-4.95584033 8.97345401 -12.31485557 16.50110008 -19.79443359 23.97973633 C-21.76558756 25.95310508 -23.72856115 27.93438615 -25.69140625 29.91601562 C-26.95524031 31.18277958 -28.21954622 32.44907299 -29.484375 33.71484375 C-30.06467468 34.30232895 -30.64497437 34.88981415 -31.24285889 35.49510193 C-34.29175531 38.52697958 -37.1599434 40.96842549 -41 43 C-39.45872649 39.28731906 -37.19156766 37.01884302 -34.3125 34.25 C-31.29014469 31.33575382 -28.43261934 28.37295378 -25.70703125 25.18359375 C-21.87065584 20.75190971 -17.67834145 16.78510761 -13.375 12.8125 C-11.9029907 11.44471513 -10.43162035 10.07624226 -8.9609375 8.70703125 C-8.27870117 8.0723291 -7.59646484 7.43762695 -6.89355469 6.78369141 C-4.54391365 4.5703756 -2.26214535 2.30238114 0 0 Z " fill="#868686" transform="translate(179,136)"/>
<path d="M0 0 C2.70331017 2.70331017 3.19915686 5.71542796 4.125 9.3125 C4.30675781 9.97701172 4.48851562 10.64152344 4.67578125 11.32617188 C6.52040688 18.3371362 6.52040688 18.3371362 6 22 C2.36322191 24.42451872 -0.38141597 24.32284992 -4.58984375 24.3359375 C-5.33077774 24.3425943 -6.07171173 24.3492511 -6.83509827 24.35610962 C-8.40102661 24.36622694 -9.96699799 24.37092692 -11.53295898 24.37060547 C-13.92569149 24.37497842 -16.31657827 24.41130267 -18.70898438 24.44921875 C-20.23176454 24.45508727 -21.75455344 24.45905643 -23.27734375 24.4609375 C-23.99099594 24.47530853 -24.70464813 24.48967957 -25.43992615 24.50448608 C-28.88838085 24.4728496 -30.68322541 24.24556121 -33.44458008 22.10498047 C-35.90265685 18.77841667 -35.72856795 16.07148078 -36 12 C-34.46075452 14.96854486 -33.25353997 17.86615008 -32 21 C-20.45 21 -8.9 21 3 21 C2.34135837 14.41358374 1.79804997 9.9934999 0 4 C0 2.68 0 1.36 0 0 Z " fill="#D9D9D9" transform="translate(681,621)"/>
<path d="M0 0 C2.2476599 3.37148985 2.79798837 5.9237222 3.625 9.875 C4.01558594 11.69644531 4.01558594 11.69644531 4.4140625 13.5546875 C5.3609736 19.12252475 5.3609736 19.12252475 5 22 C1.25995683 24.49336211 -1.62561609 24.25481228 -5.94921875 24.1953125 C-7.10814384 24.19106766 -7.10814384 24.19106766 -8.29048157 24.18673706 C-10.75631243 24.17554878 -13.22177906 24.15044703 -15.6875 24.125 C-17.36002079 24.11496843 -19.03254728 24.10584289 -20.70507812 24.09765625 C-24.80352559 24.07561392 -28.90170106 24.04109363 -33 24 C-33.33 23.34 -33.66 22.68 -34 22 C-22.12 21.67 -10.24 21.34 2 21 C1.24774132 12.65287499 1.24774132 12.65287499 0.4375 4.3125 C0.35371094 3.48363281 0.26992188 2.65476562 0.18359375 1.80078125 C0.12300781 1.20652344 0.06242188 0.61226562 0 0 Z " fill="#DCDCDC" transform="translate(534,621)"/>
</svg>
