<?xml version="1.0" encoding="UTF-8"?>
<svg version="1.1" xmlns="http://www.w3.org/2000/svg" width="1080" height="1080">
<path d="M0 0 C3.68504619 0.0057074 7.37002042 0.0022861 11.0550642 -0.00341892 C32.91544992 -0.03253573 54.5632482 0.14792108 76.23046875 3.31787109 C77.37725601 3.48218124 77.37725601 3.48218124 78.54721069 3.64981079 C117.38710777 9.23721006 156.07767746 18.15667811 192.79296875 32.13037109 C193.41480042 32.36628967 194.03663208 32.60220825 194.67730713 32.84527588 C230.74685396 46.56488968 265.9547413 63.40014899 298.03369141 84.95019531 C299.64789599 86.03305196 301.27268024 87.10009397 302.8984375 88.16552734 C316.86039272 97.34160318 330.22868422 107.05282203 343.08447266 117.72167969 C345.33645737 119.57848903 347.62541848 121.38650604 349.91796875 123.19287109 C359.53806251 130.8889461 368.73630921 138.87286381 377.34765625 147.68505859 C379.42791812 149.76532046 381.54057429 151.68023687 383.79296875 153.56787109 C387.74518813 156.9381686 391.18451272 160.73169615 394.65185547 164.58496094 C397.48299396 167.72577051 400.38420607 170.74382081 403.41796875 173.69287109 C407.40163453 177.62709422 410.91941506 181.82184661 414.41796875 186.18896484 C416.50164703 188.76957298 418.62569058 191.30197687 420.78149414 193.82177734 C431.53999851 206.40083511 441.4172466 219.49062189 450.79296875 233.13037109 C451.22996094 233.76587891 451.66695312 234.40138672 452.1171875 235.05615234 C466.70363819 256.37481105 480.22038647 278.68965562 490.90478516 302.22070312 C492.28607357 305.19058711 493.79476028 308.09312317 495.29296875 311.00537109 C519.35107444 359.01321263 533.47421545 412.87658662 541.04296875 465.81787109 C541.26944092 467.36027466 541.26944092 467.36027466 541.50048828 468.93383789 C544.59089952 491.82622461 545.10491187 514.8522691 544.98858643 537.91674805 C544.97772144 540.62858376 544.9781764 543.34037045 544.97855759 546.05222416 C544.97806565 569.84306353 544.42821926 593.05076154 540.66796875 616.56787109 C540.51268707 617.55961334 540.3574054 618.55135559 540.19741821 619.57315063 C533.16568241 664.37635062 521.16049896 707.21390149 503.99658203 749.18261719 C502.89674553 751.87621272 501.81049038 754.57487876 500.7265625 757.27490234 C496.43103289 767.85505104 491.43087589 777.91702013 485.97607422 787.94482422 C484.88965358 789.95176552 483.8226661 791.9672145 482.765625 793.98974609 C467.84361392 822.5079582 450.14163045 849.40931201 430.05078125 874.55224609 C428.9054928 875.98919185 427.77052942 877.43435169 426.63671875 878.88037109 C422.66558753 883.9230774 418.50476386 888.72122114 414.16992188 893.45410156 C412.00960655 895.88645331 410.00412006 898.37804652 408 900.93896484 C402.14565791 908.12359276 395.61412882 914.60932635 389.04638672 921.13769531 C386.92181195 923.25154729 384.80814814 925.37588652 382.6953125 927.50146484 C376.05428183 934.14861897 369.40284062 940.52945562 362.02392578 946.35839844 C359.2478801 948.56331631 356.72509766 950.92616068 354.16796875 953.38037109 C346.84931973 960.23448017 338.82888948 966.15279353 330.79296875 972.13037109 C329.52985195 973.07946214 328.26682697 974.0286754 327.00390625 974.97802734 C313.07987279 985.3792692 298.52336616 994.86567831 283.71337891 1003.95117188 C282.44030123 1004.73288624 281.16911282 1005.51768635 279.89990234 1006.30566406 C271.28417545 1011.65266085 262.50861403 1016.46740596 253.37646484 1020.87548828 C250.33616596 1022.35225414 247.309322 1023.85525973 244.28125 1025.35693359 C217.54659768 1038.54014685 190.21632757 1049.19878541 161.79296875 1058.13037109 C160.59559082 1058.50822754 159.39821289 1058.88608398 158.16455078 1059.27539062 C131.6622951 1067.52626921 104.58008264 1072.43204106 77.16796875 1076.50537109 C76.31941315 1076.63292786 75.47085754 1076.76048462 74.59658813 1076.89190674 C72.12944058 1077.25932807 69.66088574 1077.61493413 67.19140625 1077.96630859 C66.49346451 1078.07013855 65.79552277 1078.17396851 65.07643127 1078.28094482 C51.64330465 1080.13568762 38.01826638 1080.29129759 24.48046875 1080.29833984 C22.97281873 1080.30157252 21.46516898 1080.30493788 19.95751953 1080.3084259 C16.82144446 1080.31434942 13.68539666 1080.316273 10.54931641 1080.31567383 C7.39268224 1080.31559285 4.23619409 1080.32250179 1.07958984 1080.33618164 C-24.45679001 1080.44487501 -49.49097937 1079.36018969 -74.76953125 1075.44287109 C-76.03506836 1075.2497081 -76.03506836 1075.2497081 -77.32617188 1075.05264282 C-133.00714509 1066.5038825 -187.050395 1049.72748507 -237.27441406 1024.10400391 C-239.14582678 1023.16120528 -241.02823751 1022.24674242 -242.91796875 1021.34130859 C-265.09756545 1010.64793486 -286.19627156 997.450571 -306.20703125 983.13037109 C-307.78484375 982.02822266 -307.78484375 982.02822266 -309.39453125 980.90380859 C-317.69297284 975.08644127 -325.65026374 968.91750886 -333.50537109 962.51611328 C-335.02261828 961.28054728 -336.5460476 960.05258167 -338.0703125 958.82568359 C-350.93445619 948.4200207 -363.08814141 937.5402262 -374.65869141 925.71118164 C-377.98071705 922.31948879 -381.35659249 918.98202189 -384.73046875 915.64208984 C-397.48842811 902.99269486 -397.48842811 902.99269486 -403.20703125 896.13037109 C-404.02171875 895.18162109 -404.83640625 894.23287109 -405.67578125 893.25537109 C-436.23667346 857.6292282 -463.30762067 817.70881945 -483.20703125 775.13037109 C-483.6757666 774.1286084 -484.14450195 773.1268457 -484.62744141 772.09472656 C-505.68501454 726.77274341 -519.8925125 680.16527207 -529.20703125 631.13037109 C-529.41247559 630.07269531 -529.61791992 629.01501953 -529.82958984 627.92529297 C-535.24401459 599.77578581 -535.54492887 571.3675003 -535.46777344 542.80541992 C-535.45631555 538.52763954 -535.46321493 534.25010616 -535.47463608 529.97233391 C-535.53048837 505.4702532 -534.41488 481.59914415 -530.45703125 457.38037109 C-530.26145126 456.1657872 -530.26145126 456.1657872 -530.06192017 454.92666626 C-527.67987679 440.19027795 -524.85334634 425.61180005 -521.20703125 411.13037109 C-521.04889954 410.50233582 -520.89076782 409.87430054 -520.72784424 409.22723389 C-504.75373942 346.0647863 -478.10044598 286.85605533 -441.20703125 233.13037109 C-440.75005859 232.46086426 -440.29308594 231.79135742 -439.82226562 231.1015625 C-432.88421779 220.96910225 -425.50981668 211.32225782 -417.65869141 201.88183594 C-415.652766 199.461636 -413.68256137 197.01290563 -411.70703125 194.56787109 C-403.99455744 185.16829363 -396.2117298 175.75225979 -387.40234375 167.35302734 C-385.48851287 165.41535871 -383.73127305 163.43151927 -381.9609375 161.36474609 C-378.22834919 157.06530204 -374.1943988 153.18322425 -370.01953125 149.31787109 C-369.27558105 148.6242749 -368.53163086 147.93067871 -367.76513672 147.21606445 C-366.2728009 145.82650969 -364.77870112 144.43884659 -363.28271484 143.05322266 C-361.45741327 141.36231755 -359.63788973 139.66550379 -357.8203125 137.96630859 C-351.49557967 132.07867136 -344.97183115 126.50588994 -338.20703125 121.13037109 C-337.66288574 120.69724609 -337.11874023 120.26412109 -336.55810547 119.81787109 C-316.63569616 103.98340747 -296.18338804 89.00499114 -274.20703125 76.13037109 C-273.39685547 75.65390137 -272.58667969 75.17743164 -271.75195312 74.68652344 C-210.3785092 38.72737241 -143.80192867 14.56674522 -73.39453125 3.88037109 C-72.48213684 3.73944031 -71.56974243 3.59850952 -70.62969971 3.45330811 C-47.18785042 -0.10252291 -23.65460148 -0.03664268 0 0 Z M-192.20703125 418.13037109 C-192.78195312 418.67822266 -193.356875 419.22607422 -193.94921875 419.79052734 C-201.40752636 427.63844804 -203.32195735 437.67808115 -203.34747314 448.18704224 C-203.35044427 448.87382234 -203.35341539 449.56060245 -203.35647655 450.26819408 C-203.36511049 452.55706382 -203.36666728 454.84588093 -203.36816406 457.13476562 C-203.37279607 458.781185 -203.37782124 460.42760331 -203.38320923 462.07402039 C-203.39630002 466.53920405 -203.40277191 471.0043727 -203.40721989 475.46957254 C-203.41015651 478.26342754 -203.41426246 481.05727849 -203.41872406 483.85113144 C-203.43239141 492.60448185 -203.4420613 501.35782294 -203.44592595 510.11118329 C-203.45040234 520.19297255 -203.46793397 530.27462594 -203.49692655 540.35637391 C-203.51859418 548.1638393 -203.52863297 555.97126662 -203.52996707 563.77876174 C-203.53101163 568.43485807 -203.53684464 573.09082654 -203.55478668 577.74689102 C-203.57135505 582.13165992 -203.57338067 586.51620606 -203.56464767 590.90099525 C-203.56388192 592.50207303 -203.56815847 594.10316322 -203.57810593 595.70421028 C-203.6552055 608.89692074 -202.69232383 621.37977416 -194.20703125 632.13037109 C-187.14419117 639.04420611 -177.68494289 643.18900694 -167.83447266 643.32324219 C-166.75880035 643.33930511 -165.68312805 643.35536804 -164.57485962 643.37191772 C-159.63275973 643.41674023 -154.69079152 643.45748151 -149.74853516 643.48046875 C-147.15534445 643.49695706 -144.56219784 643.52415134 -141.96923828 643.5625 C-118.31281473 644.24348521 -118.31281473 644.24348521 -97.64453125 633.94287109 C-86.95906893 623.32759243 -85.98772983 610.39111909 -85.93127441 596.05807495 C-85.93283034 594.3062883 -85.93787799 592.55450152 -85.94628906 590.80273438 C-85.95711982 588.10833815 -85.94628696 585.41459226 -85.93359375 582.72021484 C-85.93491351 581.00276546 -85.93747209 579.28531648 -85.94140625 577.56787109 C-85.93735779 576.76478516 -85.93330933 575.96169922 -85.92913818 575.13427734 C-85.96177411 571.2771901 -86.01765307 569.41443837 -88.20703125 566.13037109 C-90.73790221 565.85061098 -93.02105034 565.75795738 -95.55078125 565.80224609 C-96.27567749 565.80411926 -97.00057373 565.80599243 -97.74743652 565.80792236 C-99.28072709 565.81464768 -100.81400036 565.82857183 -102.34716797 565.84912109 C-104.69775282 565.88024823 -107.04766709 565.8900884 -109.3984375 565.89599609 C-110.88672695 565.90516724 -112.37500956 565.91554337 -113.86328125 565.92724609 C-114.92113831 565.93362091 -114.92113831 565.93362091 -116.00036621 565.94012451 C-119.72867142 565.94503836 -119.72867142 565.94503836 -123.20703125 567.13037109 C-123.23676025 568.34768921 -123.23676025 568.34768921 -123.26708984 569.58959961 C-123.36274962 573.29099858 -123.47226339 576.99186474 -123.58203125 580.69287109 C-123.61296875 581.9696875 -123.64390625 583.24650391 -123.67578125 584.56201172 C-124.07824758 597.47447306 -124.07824758 597.47447306 -126.20703125 602.13037109 C-129.93089719 604.92254815 -132.63472533 605.50688909 -137.2421875 605.49365234 C-138.38107422 605.49300781 -139.51996094 605.49236328 -140.69335938 605.49169922 C-142.46356445 605.4675293 -142.46356445 605.4675293 -144.26953125 605.44287109 C-146.04553711 605.44770508 -146.04553711 605.44770508 -147.85742188 605.45263672 C-157.61655142 605.39181495 -157.61655142 605.39181495 -161.20703125 603.13037109 C-165.27334824 596.49013023 -164.63165919 588.04216329 -164.59521484 580.56762695 C-164.5992876 579.21968665 -164.6046334 577.8717497 -164.61114502 576.52381897 C-164.62473966 572.8874827 -164.61955313 569.25140379 -164.61000776 565.61506343 C-164.60237174 561.79647463 -164.60946752 557.97790675 -164.61416626 554.15931702 C-164.61961173 547.74980748 -164.61246336 541.34040193 -164.59814453 534.9309082 C-164.58181332 527.53551817 -164.58711473 520.14037624 -164.60362375 512.7449922 C-164.61726486 506.37783791 -164.61914569 500.01075803 -164.61130774 493.64359385 C-164.60664651 489.84840841 -164.6059636 486.05333937 -164.61591721 482.25816154 C-164.62462323 478.6899874 -164.61849929 475.12213133 -164.60123444 471.55399132 C-164.59541673 469.63047083 -164.60425353 467.70692324 -164.61361694 465.78341675 C-164.5655451 459.19645839 -164.11602811 454.08491344 -161.20703125 448.13037109 C-158.18868273 445.66538647 -155.07268495 445.87297294 -151.26953125 445.86474609 C-150.12742187 445.86216797 -148.9853125 445.85958984 -147.80859375 445.85693359 C-146.62007813 445.86466797 -145.4315625 445.87240234 -144.20703125 445.88037109 C-142.42425781 445.86876953 -142.42425781 445.86876953 -140.60546875 445.85693359 C-139.46335937 445.85951172 -138.32125 445.86208984 -137.14453125 445.86474609 C-136.10167969 445.86700195 -135.05882812 445.86925781 -133.984375 445.87158203 C-131.15500074 446.13521922 -129.54284004 446.53604197 -127.20703125 448.13037109 C-123.41595878 455.27108979 -123.69538293 462.6292053 -123.58203125 470.56787109 C-123.53129842 473.10831773 -123.47682707 475.64869347 -123.41796875 478.18896484 C-123.40040527 479.30585693 -123.3828418 480.42274902 -123.36474609 481.57348633 C-123.4944246 484.06372178 -123.4944246 484.06372178 -122.20703125 485.13037109 C-119.70948984 485.24364475 -117.24063135 485.294543 -114.7421875 485.29833984 C-113.99368027 485.30166824 -113.24517303 485.30499664 -112.47398376 485.3084259 C-110.88769141 485.31349802 -109.30138835 485.31583414 -107.71508789 485.31567383 C-105.28318756 485.31785882 -102.85174176 485.3360069 -100.41992188 485.35498047 C-98.88151197 485.35791459 -97.34309991 485.35989926 -95.8046875 485.36083984 C-95.07443863 485.36802536 -94.34418976 485.37521088 -93.59181213 485.38261414 C-89.44433132 485.49746543 -89.44433132 485.49746543 -86.20703125 483.13037109 C-86.00657162 480.41225202 -85.92729579 477.79853764 -85.94140625 475.07958984 C-85.9394928 474.26980179 -85.93757935 473.46001373 -85.93560791 472.62568665 C-85.93424425 470.90320527 -85.93795328 469.18071369 -85.94628906 467.45825195 C-85.95683426 464.86628928 -85.94648034 462.27504426 -85.93359375 459.68310547 C-85.91920465 444.84561768 -85.92220004 430.53991171 -96.25 418.81005859 C-106.45315001 409.02225806 -117.8832949 407.98362171 -131.37109375 407.92724609 C-132.97469254 407.91869598 -132.97469254 407.91869598 -134.61068726 407.90997314 C-136.86821513 407.90055487 -139.12575656 407.89400183 -141.38330078 407.89013672 C-144.8000552 407.88046164 -148.21619973 407.84941968 -151.6328125 407.81787109 C-173.71774739 407.35235003 -173.71774739 407.35235003 -192.20703125 418.13037109 Z M-54.20703125 409.13037109 C-54.22982129 438.79617014 -54.24752926 468.46196878 -54.25809658 498.12777474 C-54.25934736 501.62644294 -54.26064167 505.12511112 -54.26196289 508.6237793 C-54.2622252 509.32033023 -54.26248751 510.01688116 -54.26275777 510.7345397 C-54.26711453 522.02765528 -54.27500211 533.32076579 -54.28418405 544.61387836 C-54.29352043 556.19312022 -54.29901193 567.7723585 -54.30111974 579.35160404 C-54.30242729 585.85907143 -54.30551591 592.3665273 -54.31276131 598.87399101 C-54.31951745 604.99124068 -54.32164904 611.10847403 -54.32013893 617.22572708 C-54.32041544 619.4780505 -54.32242296 621.73037442 -54.32623672 623.98269463 C-54.33116764 627.04332873 -54.33003177 630.10390015 -54.32728577 633.16453552 C-54.33019861 634.06821363 -54.33311145 634.97189175 -54.33611256 635.90295404 C-54.71878249 639.83090523 -54.71878249 639.83090523 -53.20703125 643.13037109 C-50.54077095 643.2189227 -47.90056011 643.24561783 -45.234375 643.22802734 C-44.43673233 643.2266124 -43.63908966 643.22519745 -42.817276 643.22373962 C-40.2596569 643.21812426 -37.70212407 643.20556921 -35.14453125 643.19287109 C-33.4147148 643.18785807 -31.68489699 643.18329482 -29.95507812 643.17919922 C-25.70569572 643.16814984 -21.45637813 643.15087496 -17.20703125 643.13037109 C-15.7301609 640.1766304 -16.02822166 637.1672885 -16.00170898 633.92675781 C-15.99180939 633.1851944 -15.98190979 632.44363098 -15.97171021 631.67959595 C-15.94006762 629.22311622 -15.91532694 626.76661713 -15.890625 624.31005859 C-15.87005785 622.60897309 -15.84906144 620.90789273 -15.82765198 619.20681763 C-15.77240661 614.72536373 -15.72300822 610.24386353 -15.67480469 605.7623291 C-15.62460765 601.19095733 -15.56891221 596.61965296 -15.51367188 592.04833984 C-15.40606016 583.07574115 -15.30462189 574.10308398 -15.20703125 565.13037109 C-13.45398682 565.10849731 -13.45398682 565.10849731 -11.66552734 565.08618164 C-7.26305962 565.0275076 -2.86106714 564.95028972 1.54101562 564.86791992 C3.43383987 564.83499146 5.32675477 564.80686366 7.21972656 564.78393555 C31.41582033 564.57117544 31.41582033 564.57117544 52.078125 553.05615234 C56.76886692 548.17812127 59.31303843 543.69882895 60.79296875 537.13037109 C60.9525365 536.4967802 61.11210424 535.8631893 61.27650738 535.21039867 C62.54493349 529.96525291 63.08611293 525.09728912 63.06762695 519.71166992 C63.07529335 518.52911118 63.07529335 518.52911118 63.08311462 517.32266235 C63.09689106 514.74416273 63.09606231 512.16593416 63.09375 509.58740234 C63.09764473 507.7729228 63.10198098 505.95844417 63.10673523 504.14396667 C63.11417275 500.34895875 63.11392504 496.55404388 63.10864258 492.7590332 C63.10286468 487.93236213 63.11975034 483.1060769 63.14298725 478.27946949 C63.15783365 474.53272837 63.15858136 470.7860777 63.15547752 467.03931236 C63.15598572 465.26178921 63.16112744 463.48426031 63.17128944 461.70676613 C63.24520934 446.96497802 63.08112918 430.58379764 52.8203125 418.88037109 C43.21035589 409.66023635 32.46474731 407.96453699 19.57275391 408.00097656 C18.79451263 407.99922424 18.01627136 407.99747192 17.21444702 407.9956665 C14.67028503 407.99130394 12.12619381 407.99416435 9.58203125 407.99755859 C7.8046365 407.99688436 6.02724185 407.99591333 4.24984741 407.99465942 C0.53976557 407.9931904 -3.17029208 407.99531292 -6.88037109 408 C-11.64198395 408.00572186 -16.40354075 408.0023978 -21.1651516 407.99642754 C-24.8281802 407.99282172 -28.4911954 407.99396017 -32.1542244 407.99655533 C-33.91095613 407.99722325 -35.66768908 407.99640087 -37.4244194 407.99407578 C-39.87070724 407.99154623 -42.31690267 407.99539298 -44.76318359 408.00097656 C-45.49148376 407.99895233 -46.21978394 407.9969281 -46.97015381 407.99484253 C-50.71356746 407.95399182 -50.71356746 407.95399182 -54.20703125 409.13037109 Z M102.72265625 420.42333984 C93.94839881 431.96938154 94.32975699 444.76620876 94.359375 458.62255859 C94.35480675 460.50058174 94.34949927 462.37860322 94.3434906 464.25662231 C94.33460171 468.17163945 94.33693807 472.08645206 94.34692383 476.00146484 C94.35846742 481.01516558 94.33809856 486.02816762 94.30900669 491.04177666 C94.29066687 494.91084249 94.2909317 498.77973966 94.29664421 502.64883804 C94.29679738 504.49799716 94.29075659 506.34716773 94.27835274 508.19628525 C94.26346887 510.77616336 94.27409615 513.3547331 94.29125977 515.93457031 C94.2815918 516.69412521 94.27192383 517.45368011 94.26196289 518.23625183 C94.3123748 521.85628125 94.68412947 523.95691771 96.62510681 527.05018616 C99.38508163 529.69853656 102.21180027 530.73192258 105.79296875 531.82177734 C106.48952072 532.04874298 107.18607269 532.27570862 107.9037323 532.509552 C110.1955209 533.25265498 112.4939492 533.97248572 114.79296875 534.69287109 C116.39030327 535.20712519 117.98705764 535.72318447 119.58325195 536.2409668 C122.9277642 537.32420887 126.27468738 538.39947772 129.62353516 539.46923828 C137.29431536 541.92596579 144.93601774 544.47014774 152.5769043 547.01803589 C154.9594648 547.8108816 157.34380292 548.59817607 159.72851562 549.38452148 C161.18103745 549.86606658 162.63351392 550.3477485 164.0859375 550.82958984 C164.75400925 551.04882111 165.42208099 551.26805237 166.11039734 551.493927 C170.67922752 553.01662987 170.67922752 553.01662987 171.79296875 554.13037109 C171.90123567 555.48486034 171.94196375 556.84485814 171.95410156 558.20361328 C171.96370911 559.06831238 171.97331665 559.93301147 171.98321533 560.82391357 C171.98746521 561.76551331 171.99171509 562.70711304 171.99609375 563.67724609 C172.00179382 564.64059875 172.0074939 565.60395142 172.0133667 566.59649658 C172.02283439 568.64097998 172.02935767 570.68547876 172.03320312 572.72998047 C172.04288484 575.85330061 172.07388175 578.97595626 172.10546875 582.09912109 C172.1120009 584.08349218 172.11725054 586.06786798 172.12109375 588.05224609 C172.13344055 588.9857489 172.14578735 589.91925171 172.1585083 590.88104248 C172.14180623 595.76353844 172.0615966 599.2183578 168.79296875 603.13037109 C164.04507254 606.29563523 158.99998738 605.45858624 153.41796875 605.44287109 C152.28101563 605.45898438 151.1440625 605.47509766 149.97265625 605.49169922 C148.874375 605.49234375 147.77609375 605.49298828 146.64453125 605.49365234 C145.64244629 605.4966333 144.64036133 605.49961426 143.60791016 605.50268555 C140.24919732 605.05844989 138.44628853 604.23232563 135.79296875 602.13037109 C133.60337797 598.28624771 133.50659833 594.70023533 133.4140625 590.33349609 C133.37990234 589.04572266 133.34574219 587.75794922 133.31054688 586.43115234 C133.28320134 585.08090499 133.25651643 583.73064411 133.23046875 582.38037109 C133.17271596 579.71869331 133.10727067 577.0574521 133.0390625 574.39599609 C133.01513428 573.21811523 132.99120605 572.04023437 132.96655273 570.82666016 C133.09624439 568.2135743 133.09624439 568.2135743 131.79296875 567.13037109 C129.13840682 567.02941545 126.51041699 566.99066111 123.85546875 566.99755859 C123.06019775 566.99660187 122.26492676 566.99564514 121.44555664 566.99465942 C119.76090415 566.99397766 118.07624904 566.99583167 116.39160156 567 C113.80397678 567.00534834 111.21652559 567.0000549 108.62890625 566.99365234 C106.99609336 566.99431313 105.36328059 566.99559429 103.73046875 566.99755859 C102.95131104 566.99553436 102.17215332 566.99351013 101.36938477 566.99142456 C97.78502675 566.6719753 97.78502675 566.6719753 94.79296875 568.13037109 C94.66661529 571.165343 94.60421667 574.17619026 94.58984375 577.21240234 C94.58414368 578.13695724 94.5784436 579.06151215 94.5725708 580.01408386 C94.56309663 581.98211517 94.55657729 583.95016253 94.55273438 585.91821289 C94.54313228 588.89222296 94.51217655 591.86551092 94.48046875 594.83935547 C94.39804637 609.36031168 94.71244965 622.53307448 105.234375 633.65380859 C114.55607039 642.03571453 125.27968051 643.44305946 137.3046875 643.46630859 C138.5093013 643.47296539 139.7139151 643.47962219 140.95503235 643.48648071 C143.49922159 643.49658344 146.0434372 643.50129847 148.58764648 643.50097656 C152.4501597 643.50533688 156.31151774 643.54164918 160.17382812 643.57958984 C162.65494404 643.58546126 165.13606535 643.58942848 167.6171875 643.59130859 C168.75822433 643.60567963 169.89926117 643.62005066 171.07487488 643.63485718 C182.35016098 643.57165032 192.39993915 640.93262919 200.79296875 633.13037109 C208.5234928 624.97037348 211.11166911 614.63317814 211.05175781 603.66650391 C211.05526245 602.86221451 211.05876709 602.05792511 211.06237793 601.22926331 C211.07110958 598.59725054 211.06537888 595.9655111 211.05859375 593.33349609 C211.05994233 591.49363148 211.06188448 589.65376721 211.06439209 587.81390381 C211.06733128 583.97095321 211.06308261 580.12809596 211.05371094 576.28515625 C211.04228489 571.3600184 211.04890339 566.4350978 211.06085587 561.5099678 C211.06807962 557.71645466 211.06578472 553.92299314 211.06060028 550.12947845 C211.05926688 548.31299565 211.06090067 546.49650814 211.06555939 544.68003082 C211.0706366 542.14544723 211.06289908 539.61121738 211.05175781 537.07666016 C211.05580627 536.32749832 211.05985474 535.57833649 211.06402588 534.80647278 C211.03390452 531.10883426 210.93338846 528.22700332 208.79296875 525.13037109 C201.86488697 520.52646233 192.66430293 518.6431052 184.79296875 516.06787109 C183.35408892 515.59333706 181.91537097 515.11831191 180.47680664 514.64282227 C177.46838662 513.64884432 174.4592727 512.6570073 171.44970703 511.66650391 C164.44206751 509.35777043 157.44445784 507.01892071 150.44604492 504.68240356 C146.91493156 503.50376072 143.38323224 502.3268768 139.8515625 501.14990234 C137.83203125 500.47672526 135.8125 499.80354818 133.79296875 499.13037109 C133.71673657 492.83162207 133.66429255 486.53299258 133.62817383 480.23388672 C133.61311234 478.09223993 133.59265903 475.95062385 133.56665039 473.80908203 C133.53015147 470.72599698 133.51321573 467.64332072 133.5 464.56005859 C133.48451614 463.60670624 133.46903229 462.65335388 133.45307922 461.67111206 C133.45176328 456.44155289 133.68746981 452.56554722 136.79296875 448.13037109 C141.31370079 444.80902914 147.37793645 445.80202582 152.73046875 445.81787109 C154.35758789 445.79370117 154.35758789 445.79370117 156.01757812 445.76904297 C157.59055664 445.76807617 157.59055664 445.76807617 159.1953125 445.76708984 C160.14913818 445.76410889 161.10296387 445.76112793 162.08569336 445.75805664 C165.41518799 446.21594097 167.18313998 447.00559688 169.79296875 449.13037109 C171.71260688 453.26935299 172.04996158 456.99340943 172.1015625 461.51708984 C172.12669922 462.70238281 172.15183594 463.88767578 172.17773438 465.10888672 C172.21305647 467.59320716 172.24426848 470.07758925 172.27148438 472.56201172 C172.31112305 474.33415039 172.31112305 474.33415039 172.3515625 476.14208984 C172.37174438 477.75796997 172.37174438 477.75796997 172.39233398 479.40649414 C172.61635947 482.08438559 172.61635947 482.08438559 173.85546875 483.98193359 C176.84478035 485.75382394 179.85988791 485.53804487 183.234375 485.49365234 C184.31959694 485.4944001 184.31959694 485.4944001 185.42674255 485.49516296 C186.954038 485.49282499 188.48133747 485.48311262 190.00854492 485.46655273 C192.35044648 485.44292177 194.69121235 485.445998 197.03320312 485.45263672 C198.51693389 485.44706108 200.00065985 485.43995191 201.484375 485.43115234 C202.18647598 485.43206375 202.88857697 485.43297516 203.61195374 485.43391418 C207.65084207 485.48310399 207.65084207 485.48310399 210.79296875 483.13037109 C211.00598633 480.12407769 211.0969099 477.21259215 211.09375 474.20458984 C211.10017769 472.85673149 211.10017769 472.85673149 211.10673523 471.48164368 C211.11249007 469.5708602 211.11297034 467.66005482 211.10864258 465.74926758 C211.10552242 462.86743944 211.12878636 459.98667851 211.15429688 457.10498047 C211.27457358 436.68500633 211.27457358 436.68500633 201.79296875 419.13037109 C190.99500069 408.89229767 179.79757323 407.98714193 165.49609375 407.92724609 C164.42607117 407.92154602 163.35604858 407.91584595 162.25360107 407.90997314 C159.99785335 407.90056512 157.74209215 407.89400595 155.48632812 407.89013672 C152.06745996 407.88044055 148.64919597 407.8493801 145.23046875 407.81787109 C143.02734728 407.81133864 140.82422155 407.80608912 138.62109375 407.80224609 C137.61443665 407.78989929 136.60777954 407.77755249 135.57061768 407.76483154 C122.72968615 407.80438457 111.55215693 410.64425136 102.72265625 420.42333984 Z " fill="#010101" transform="translate(535.20703125,-0.13037109375)"/>
<path d="M0 0 C2.18187165 -0.00966499 4.36278493 -0.04065469 6.54443359 -0.07226562 C7.93635508 -0.07879971 9.32828332 -0.08404859 10.72021484 -0.08789062 C12.6194873 -0.10190918 12.6194873 -0.10190918 14.55712891 -0.11621094 C18.21040589 0.26707337 20.04865927 1.04204063 22.95458984 3.24023438 C26.41339661 8.05785809 27.0758919 12.07188237 27.11572266 17.9074707 C27.1253302 19.04577835 27.13493774 20.184086 27.14483643 21.35688782 C27.1490863 22.58296249 27.15333618 23.80903717 27.15771484 25.07226562 C27.16341492 26.33737473 27.16911499 27.60248383 27.17498779 28.90592957 C27.18443451 31.58323766 27.19133308 34.26043375 27.19482422 36.93774414 C27.20030132 40.35393137 27.22432073 43.76971851 27.25279617 47.18578053 C27.27599821 50.46041154 27.27787717 53.73506395 27.28271484 57.00976562 C27.29506165 58.22976761 27.30740845 59.44976959 27.32012939 60.70674133 C27.30373551 66.97654915 27.13708265 71.76374996 23.95458984 77.24023438 C19.23040789 81.61874447 16.59579929 82.36725816 10.23193359 82.37304688 C9.57125381 82.3740036 8.91057404 82.37496033 8.22987366 82.37594604 C6.83366806 82.37662653 5.43745929 82.37478138 4.04125977 82.37060547 C1.89706371 82.36524681 -0.24692368 82.37055917 -2.39111328 82.37695312 C-3.74593145 82.37629249 -5.1007495 82.37501162 -6.45556641 82.37304688 C-7.69443604 82.37191895 -8.93330566 82.37079102 -10.2097168 82.36962891 C-13.04541016 82.24023438 -13.04541016 82.24023438 -14.04541016 81.24023438 C-14.14574882 78.75069741 -14.18158958 76.28888484 -14.17480469 73.79882812 C-14.17655701 73.02000275 -14.17830933 72.24117737 -14.18011475 71.43875122 C-14.18453365 68.85172326 -14.18159515 66.26476309 -14.17822266 63.67773438 C-14.17889568 61.88793932 -14.1798657 60.09814435 -14.18112183 58.30834961 C-14.18259885 54.55223726 -14.1804441 50.79614866 -14.17578125 47.04003906 C-14.17008396 42.21422944 -14.17336294 37.38847543 -14.17935371 32.56266785 C-14.1829592 28.86535215 -14.1818208 25.16804973 -14.17922592 21.47073364 C-14.17855662 19.6908467 -14.17938519 17.91095856 -14.18170547 16.131073 C-14.18423181 13.64789615 -14.1803917 11.16481063 -14.17480469 8.68164062 C-14.17682892 7.93874786 -14.17885315 7.1958551 -14.18093872 6.43045044 C-14.14296261 -2.63403953 -7.41810974 0.01991884 0 0 Z " fill="#090909" transform="translate(533.04541015625,444.759765625)"/>
<path d="M0 0 C1.08317505 0.00012085 1.08317505 0.00012085 2.18823242 0.00024414 C4.38089652 -0.00193376 6.5730506 -0.02006101 8.765625 -0.0390625 C10.16080557 -0.04199812 11.55598853 -0.04398179 12.95117188 -0.04492188 C14.85829956 -0.05108521 14.85829956 -0.05108521 16.80395508 -0.05737305 C19.86134789 0.16878901 21.53507424 0.56642358 24.08789062 2.18554688 C23.42789063 2.51554687 22.76789062 2.84554688 22.08789062 3.18554688 C21.09789062 2.85554688 20.10789062 2.52554687 19.08789062 2.18554688 C9.51789062 1.85554688 -0.05210937 1.52554687 -9.91210938 1.18554688 C-9.91210938 27.25554687 -9.91210938 53.32554687 -9.91210938 80.18554688 C0.31789063 80.18554688 10.54789063 80.18554688 21.08789062 80.18554688 C19.08789062 82.18554688 19.08789062 82.18554688 16.12280273 82.4284668 C14.88280518 82.42435791 13.64280762 82.42024902 12.36523438 82.41601562 C11.7045546 82.4155574 11.04387482 82.41509918 10.36317444 82.41462708 C8.96695153 82.41160609 7.57073195 82.40372429 6.17456055 82.39135742 C4.03031564 82.37308884 1.88650213 82.37084781 -0.2578125 82.37109375 C-10.76467726 82.33297899 -10.76467726 82.33297899 -11.91210938 81.18554688 C-12.01244804 78.69600991 -12.0482888 76.23419734 -12.04150391 73.74414062 C-12.04325623 72.96531525 -12.04500854 72.18648987 -12.04681396 71.38406372 C-12.05123287 68.79703576 -12.04829437 66.21007559 -12.04492188 63.62304688 C-12.0455949 61.83325182 -12.04656492 60.04345685 -12.04782104 58.25366211 C-12.04929807 54.49754976 -12.04714332 50.74146116 -12.04248047 46.98535156 C-12.03678318 42.15954194 -12.04006216 37.33378793 -12.04605293 32.50798035 C-12.04965842 28.81066465 -12.04852002 25.11336223 -12.04592514 21.41604614 C-12.04525584 19.6361592 -12.04608441 17.85627106 -12.04840469 16.0763855 C-12.05093103 13.59320865 -12.04709092 11.11012313 -12.04150391 8.62695312 C-12.04352814 7.88406036 -12.04555237 7.1411676 -12.04763794 6.37576294 C-12.01192367 -2.14884976 -7.28037682 0.02570721 0 0 Z " fill="#B7B7B7" transform="translate(530.912109375,444.814453125)"/>
<path d="M0 0 C0.66 0.33 1.32 0.66 2 1 C-4.93962756 8.95333345 -12.27815782 16.464403 -19.73950195 23.92480469 C-21.69967207 25.8871858 -23.65166344 27.85747449 -25.60351562 29.828125 C-26.86409409 31.09163413 -28.12514505 32.35467208 -29.38671875 33.6171875 C-29.96185715 34.19951141 -30.53699554 34.78183533 -31.12956238 35.38180542 C-34.52870499 38.7619716 -37.92139065 41.47545822 -42 44 C-40.41060574 40.06785699 -37.83657498 37.66979654 -34.8125 34.75 C-31.60855547 31.64911942 -28.57248126 28.54193121 -25.67578125 25.15234375 C-21.85137812 20.72993542 -17.66741189 16.77501804 -13.375 12.8125 C-11.9029907 11.44471513 -10.43162035 10.07624226 -8.9609375 8.70703125 C-8.27870117 8.0723291 -7.59646484 7.43762695 -6.89355469 6.78369141 C-4.54391365 4.5703756 -2.26214535 2.30238114 0 0 Z " fill="#888888" transform="translate(179,136)"/>
</svg>
