<?xml version="1.0" encoding="UTF-8"?>
<svg version="1.1" xmlns="http://www.w3.org/2000/svg" width="1080" height="1080">
<path d="M0 0 C3.56397237 0.00570774 7.1278703 0.0022909 10.69184017 -0.00342751 C31.48160036 -0.03196304 52.18363767 0.11865427 72.83496094 2.75537109 C73.49467896 2.8386264 74.15439697 2.92188171 74.83410645 3.00765991 C143.89361536 11.84173138 211.02607861 35.23203428 271.64746094 69.13037109 C272.9467742 69.84811942 274.24623535 70.56560016 275.54589844 71.28271484 C289.44081368 79.05687223 302.64626263 87.95588017 315.64746094 97.13037109 C316.20498047 97.52047363 316.7625 97.91057617 317.33691406 98.3125 C326.35133253 104.6210685 335.0689319 111.24194811 343.64746094 118.13037109 C345.03191406 119.23832031 345.03191406 119.23832031 346.44433594 120.36865234 C349.19986051 122.59834456 351.92890527 124.85573612 354.64746094 127.13037109 C355.2051416 127.59636719 355.76282227 128.06236328 356.33740234 128.54248047 C365.7354742 136.43247183 374.52473379 144.78508962 383.10449219 153.5546875 C386.61217535 157.13674243 390.18123421 160.65546637 393.75683594 164.16943359 C408.46950135 178.67668106 408.46950135 178.67668106 414.59667969 186.51708984 C416.50752356 188.95205089 418.49254563 191.3056408 420.51416016 193.64892578 C446.78110322 224.15307075 468.22081526 258.44062773 486.64746094 294.13037109 C487.16542236 295.13124756 487.16542236 295.13124756 487.69384766 296.15234375 C490.07829791 300.78000505 492.37880362 305.44499031 494.64746094 310.13037109 C495.0504541 310.95472656 495.45344727 311.77908203 495.86865234 312.62841797 C504.46317335 330.32815359 511.23624904 348.55564464 517.64746094 367.13037109 C517.97085449 368.06719727 518.29424805 369.00402344 518.62744141 369.96923828 C531.86263939 408.85591898 540.57666753 450.17914755 543.64746094 491.13037109 C543.73576172 492.20432129 543.8240625 493.27827148 543.91503906 494.38476562 C544.89643964 508.10871309 544.80001341 521.85198151 544.77783203 535.60302734 C544.77215706 539.15373248 544.77552288 542.70436242 544.78124905 546.25506496 C544.8112546 567.85516527 544.60850451 589.18263764 541.33496094 610.56787109 C541.10726146 612.09736403 540.87989053 613.62690592 540.65283203 615.15649414 C540.00474582 619.48439045 539.33214181 623.80812673 538.64746094 628.13037109 C538.47843262 629.1999707 538.3094043 630.26957031 538.13525391 631.37158203 C523.71960541 720.43369037 484.92382163 805.80700671 428.64746094 876.13037109 C427.93976562 877.03271484 427.23207031 877.93505859 426.50292969 878.86474609 C422.52997241 883.91126382 418.36693224 888.71261589 414.02954102 893.44873047 C411.84211814 895.91123461 409.80581007 898.43515038 407.77246094 901.02490234 C402.28133912 907.76567705 396.19102149 913.85304264 390.01782227 919.96582031 C388.07928534 921.88599292 386.14897882 923.81415566 384.21972656 925.74365234 C378.19564186 931.75035704 372.13704089 937.62346228 365.64746094 943.13037109 C363.87175873 944.75004926 362.10037786 946.37448827 360.33496094 948.00537109 C354.93087777 952.92220086 349.37198956 957.59289601 343.64746094 962.13037109 C342.64271729 962.92797852 342.64271729 962.92797852 341.61767578 963.74169922 C332.17562485 971.21517751 322.65864029 978.43162378 312.64746094 985.13037109 C311.51556091 985.90063221 310.38406261 986.67148393 309.25292969 987.44287109 C274.08324013 1011.30663653 236.37816011 1031.05145257 196.64746094 1046.13037109 C195.16905658 1046.70580916 193.69114252 1047.2825095 192.21386719 1047.86083984 C155.31422658 1062.18679361 116.43605054 1070.60363343 77.39746094 1076.44287109 C76.11705933 1076.63700089 76.11705933 1076.63700089 74.81079102 1076.83505249 C53.28926567 1080.06967105 31.96329667 1080.3184503 10.23779297 1080.31567383 C7.19183373 1080.31559288 4.14602589 1080.32249999 1.10009766 1080.33618164 C-24.48407126 1080.44901711 -49.65344936 1079.38840755 -74.97753906 1075.44287109 C-76.23932983 1075.2497081 -76.23932983 1075.2497081 -77.52661133 1075.05264282 C-105.33146265 1070.77374757 -132.42225565 1064.21890534 -159.35253906 1056.13037109 C-160.79814209 1055.69821289 -160.79814209 1055.69821289 -162.27294922 1055.25732422 C-196.30320178 1044.92253803 -229.49875547 1029.65372287 -260.35253906 1012.13037109 C-261.18366211 1011.66244141 -262.01478516 1011.19451172 -262.87109375 1010.71240234 C-277.85303745 1002.2662059 -292.3819239 993.16866317 -306.35253906 983.13037109 C-307.70006711 982.17706484 -309.04773702 981.22395912 -310.39550781 980.27099609 C-320.71378799 972.93855495 -330.65126554 965.25976076 -340.35253906 957.13037109 C-340.95018066 956.63182617 -341.54782227 956.13328125 -342.16357422 955.61962891 C-355.8796053 944.14611407 -368.73789843 931.83918774 -381.41763306 919.24050903 C-382.60734024 918.05886602 -383.79852176 916.87870522 -384.99130249 915.70016479 C-391.50642278 909.25464632 -397.71380615 902.77434131 -403.39355469 895.5690918 C-405.49464841 892.95346054 -407.71086676 890.47819571 -409.97753906 888.00537109 C-414.02511017 883.54747921 -417.71527767 878.92494294 -421.35253906 874.13037109 C-422.33071412 872.86918471 -423.30997975 871.60884379 -424.29003906 870.34912109 C-434.33760064 857.39099225 -443.70249761 844.06428221 -452.35253906 830.13037109 C-452.94035156 829.19837891 -453.52816406 828.26638672 -454.13378906 827.30615234 C-493.35144424 764.54183125 -518.60301878 695.8637071 -530.79003906 622.94287109 C-530.97005966 621.89354904 -530.97005966 621.89354904 -531.15371704 620.82302856 C-535.56689814 594.74008089 -535.68192181 568.36402199 -535.61328125 541.99194336 C-535.60182555 537.55930384 -535.60871436 533.12690273 -535.62014675 528.69427109 C-535.69813335 493.27296785 -535.69813335 493.27296785 -533.35253906 476.13037109 C-533.20912079 475.01621323 -533.20912079 475.01621323 -533.06280518 473.87954712 C-532.38902442 468.65749967 -531.61718641 463.45516979 -530.79003906 458.25537109 C-530.66515106 457.46331268 -530.54026306 456.67125427 -530.41159058 455.85519409 C-526.26165594 429.82044858 -520.5164231 403.82120495 -512.22509766 378.77734375 C-511.30262153 375.97894247 -510.4144647 373.17094272 -509.52832031 370.36083984 C-489.9925838 309.21574002 -458.32096633 251.44931846 -417.703125 201.78515625 C-416.44532896 200.24406052 -415.19923375 198.69343532 -413.95410156 197.14208984 C-409.45427696 191.56072845 -404.77214379 186.19738429 -399.90722656 180.93115234 C-397.90579864 178.73692632 -395.94235593 176.52273332 -393.99316406 174.28271484 C-384.54467285 163.45477958 -374.65188878 153.17351479 -363.95410156 143.57910156 C-362.29995862 142.08280824 -360.66772954 140.56553195 -359.04003906 139.04052734 C-352.3577758 132.78297171 -345.53053484 126.82156665 -338.35253906 121.13037109 C-337.3095217 120.29449425 -336.26655494 119.45855426 -335.22363281 118.62255859 C-321.38347708 107.58629778 -307.16679767 96.98753259 -292.29101562 87.38427734 C-290.96661571 86.52758742 -289.64579511 85.66534517 -288.328125 84.79833984 C-222.31612616 41.38146242 -146.17345247 14.75412341 -68.22753906 3.25537109 C-67.54402374 3.15164185 -66.86050842 3.0479126 -66.15628052 2.94104004 C-44.26103384 -0.33696732 -22.0860116 -0.03547247 0 0 Z M-415.35253906 413.13037109 C-415.44888551 414.47521762 -415.47625869 415.82508582 -415.47558689 417.17337894 C-415.47757794 418.04970228 -415.47956899 418.92602562 -415.48162037 419.82890421 C-415.47870753 420.80261939 -415.47579469 421.77633457 -415.47279358 422.77955627 C-415.473648 423.80538234 -415.47450243 424.83120841 -415.47538275 425.88812011 C-415.47704063 429.35373476 -415.47151115 432.81930187 -415.46606445 436.28491211 C-415.46578262 438.75793456 -415.46594024 441.23095709 -415.46650696 443.70397949 C-415.46673528 449.0427519 -415.46388386 454.38150929 -415.45826912 459.72027779 C-415.45015633 467.43932405 -415.44753913 475.15836439 -415.44628113 482.87741446 C-415.44409026 495.39980634 -415.43742923 507.92219173 -415.42797852 520.44458008 C-415.4188053 532.61189745 -415.41172402 544.77921307 -415.4074707 556.9465332 C-415.40720798 557.69600637 -415.40694526 558.44547954 -415.40667457 559.21766401 C-415.40536957 562.97739525 -415.40410586 566.7371265 -415.40286267 570.49685776 C-415.39248897 601.7080336 -415.37479559 632.91920136 -415.35253906 664.13037109 C-411.10970534 665.95187636 -407.90129949 666.38755517 -403.25878906 666.39599609 C-402.58964478 666.39790955 -401.92050049 666.399823 -401.2310791 666.40179443 C-399.82250592 666.4031497 -398.41391997 666.39949942 -397.00537109 666.39111328 C-394.85908745 666.38040377 -392.71364067 666.39103032 -390.56738281 666.40380859 C-389.19368306 666.40248688 -387.81998383 666.39992424 -386.44628906 666.39599609 C-385.20556641 666.39374023 -383.96484375 666.39148438 -382.68652344 666.38916016 C-379.44045659 666.13719539 -377.30964789 665.39989747 -374.35253906 664.13037109 C-374.32974933 632.17147756 -374.31204122 600.21258633 -374.30147373 568.25368658 C-374.30022296 564.48463544 -374.29892864 560.71558432 -374.29760742 556.9465332 C-374.29734511 556.19615121 -374.2970828 555.44576921 -374.29681254 554.67264836 C-374.29245571 542.5065519 -374.28456809 530.34046015 -374.27538627 518.17436648 C-374.2660501 505.70015506 -374.26048353 493.22594611 -374.25845057 480.75173134 C-374.25707526 473.04825907 -374.25272427 465.34480009 -374.2446226 457.6413319 C-374.23873491 451.74430034 -374.23808 445.84727568 -374.23943138 439.95024109 C-374.23915485 437.52376155 -374.23714714 435.09728154 -374.23333359 432.67080498 C-374.2284032 429.37370307 -374.22953834 426.07665936 -374.23228455 422.77955627 C-374.2293717 421.80584109 -374.22645886 420.83212591 -374.22345775 419.82890421 C-374.2254488 418.95258087 -374.22743985 418.07625754 -374.22949123 417.17337894 C-374.22911151 416.41128024 -374.22873179 415.64918154 -374.22834057 414.86398894 C-374.16454944 413.10010384 -374.16454944 413.10010384 -375.35253906 412.13037109 C-378.22517962 412.02930235 -381.07327535 411.99067438 -383.94628906 411.99755859 C-384.80814819 411.99660187 -385.67000732 411.99564514 -386.5579834 411.99465942 C-388.38387118 411.9939776 -390.20976138 411.99583205 -392.03564453 412 C-394.84054984 412.00534823 -397.64529502 412.0000551 -400.45019531 411.99365234 C-402.21972692 411.99431312 -403.98925842 411.99559429 -405.75878906 411.99755859 C-406.60356812 411.99553436 -407.44834717 411.99351013 -408.31872559 411.99142456 C-412.14440767 411.63112599 -412.14440767 411.63112599 -415.35253906 413.13037109 Z M-340.35253906 414.13037109 C-340.6533186 416.04078673 -340.6533186 416.04078673 -340.60142803 418.25960541 C-340.60602683 419.12971961 -340.61062562 419.9998338 -340.61536378 420.8963151 C-340.61022021 421.8579713 -340.60507665 422.8196275 -340.59977722 423.8104248 C-340.60219164 424.82752706 -340.60460605 425.84462932 -340.60709363 426.89255285 C-340.61275854 430.3228011 -340.60404646 433.75286541 -340.59545898 437.18310547 C-340.59653117 439.63332673 -340.59846891 442.08354774 -340.60121155 444.5337677 C-340.60556754 450.51129068 -340.60060317 456.48874086 -340.59136125 462.46625292 C-340.58099243 469.42188016 -340.58104703 476.37749536 -340.58153383 483.33312887 C-340.5820348 495.74065228 -340.57286338 508.14814994 -340.55834961 520.55566406 C-340.54426149 532.60547352 -340.53717881 544.65526032 -340.5378418 556.70507812 C-340.53788175 557.44718377 -340.53792171 558.18928942 -340.53796288 558.95388311 C-340.53800323 559.69468384 -340.53804359 560.43548457 -340.53808516 561.19873381 C-340.53877447 574.90188686 -340.532888 588.60503026 -340.52393195 602.30818018 C-340.52091148 607.16087267 -340.5198519 612.01356339 -340.51939964 616.86625671 C-340.51864751 623.39310803 -340.51231702 629.91993846 -340.50223351 636.44678307 C-340.49930248 638.84865357 -340.49808435 641.25052684 -340.49866104 643.65239906 C-340.49914863 646.91839769 -340.4935267 650.18432821 -340.48625183 653.45031738 C-340.48780043 654.41197359 -340.48934904 655.37362979 -340.49094456 656.36442709 C-340.48772012 657.23454129 -340.48449567 658.10465549 -340.48117352 659.00113678 C-340.48046909 659.75569609 -340.47976467 660.5102554 -340.47903889 661.28768015 C-340.46468431 663.22683535 -340.46468431 663.22683535 -339.35253906 665.13037109 C-319.09089323 667.3815158 -319.09089323 667.3815158 -299.35253906 665.13037109 C-298.20436957 662.83403212 -298.22628812 661.55427806 -298.22390461 659.00113678 C-298.21906794 657.69596548 -298.21906794 657.69596548 -298.21413356 656.36442709 C-298.21568216 655.40277089 -298.21723076 654.44111468 -298.21882629 653.45031738 C-298.21542796 651.924664 -298.21542796 651.924664 -298.21196097 650.36818933 C-298.20559809 646.93799379 -298.20645179 643.50783753 -298.20727539 640.07763672 C-298.20428536 637.62741545 -298.2008832 635.17719466 -298.19709778 632.72697449 C-298.18915987 626.74947548 -298.18604248 620.77199209 -298.1854854 614.79448926 C-298.18501079 609.93804939 -298.18295883 605.08161279 -298.17978477 600.22517395 C-298.1709759 586.46807535 -298.16636584 572.71098456 -298.16711525 558.95388311 C-298.1671552 558.21177747 -298.16719516 557.46967182 -298.16723633 556.70507812 C-298.16729765 555.59056694 -298.16729765 555.59056694 -298.16736021 554.45354038 C-298.1677669 542.4046332 -298.15819224 530.35575723 -298.14409796 518.30685908 C-298.12975319 505.94670823 -298.12282671 493.58657263 -298.12369174 481.22641325 C-298.12402433 474.28242392 -298.12124988 467.33846733 -298.11051369 460.39448547 C-298.10048735 453.86762668 -298.10072452 447.34082544 -298.10803032 440.81395912 C-298.10908135 438.4120861 -298.10668284 436.01020885 -298.10066986 433.60834312 C-298.09301996 430.34228713 -298.09754789 427.07647506 -298.1053009 423.8104248 C-298.10015734 422.8487686 -298.09501378 421.8871124 -298.08971435 420.8963151 C-298.09431314 420.0262009 -298.09891194 419.1560867 -298.10365009 418.25960541 C-298.10343273 417.5050461 -298.10321536 416.75048678 -298.1029914 415.97306204 C-298.19665629 413.88237637 -298.19665629 413.88237637 -300.35253906 412.13037109 C-303.19794049 411.93046882 -305.9439169 411.85060134 -308.79003906 411.86474609 C-310.04385376 411.86187592 -310.04385376 411.86187592 -311.32299805 411.85894775 C-313.09163717 411.85758574 -314.86028629 411.86128333 -316.62890625 411.86962891 C-319.341699 411.88032834 -322.0538295 411.86973433 -324.76660156 411.85693359 C-326.48274886 411.85825519 -328.19889575 411.86081757 -329.91503906 411.86474609 C-330.729646 411.86069763 -331.54425293 411.85664917 -332.38354492 411.85247803 C-336.83961691 411.70471675 -336.83961691 411.70471675 -340.35253906 414.13037109 Z M-269.35253906 412.13037109 C-271.82812049 415.84374324 -271.64154964 418.71264251 -271.61816406 423.00927734 C-271.62007751 423.77715073 -271.62199097 424.54502411 -271.6239624 425.33616638 C-271.62532224 426.95759408 -271.62163985 428.57903273 -271.61328125 430.20043945 C-271.60256395 432.68709639 -271.61319054 435.17303329 -271.62597656 437.65966797 C-271.62465522 439.23453936 -271.62209335 440.8094103 -271.61816406 442.38427734 C-271.62221252 443.13012589 -271.62626099 443.87597443 -271.63043213 444.64442444 C-271.7319773 448.84554389 -271.7319773 448.84554389 -269.35253906 452.13037109 C-266.42737237 452.36413578 -263.58983328 452.47992763 -260.66113281 452.50927734 C-259.80068863 452.52627182 -258.94024445 452.5432663 -258.0537262 452.56077576 C-255.29923877 452.61401185 -252.54476728 452.65425453 -249.79003906 452.69287109 C-247.03181736 452.7367361 -244.27371535 452.78338513 -241.51564026 452.8356781 C-239.79741868 452.86773954 -238.07909104 452.89459666 -236.36070251 452.91590881 C-230.46427098 453.01863918 -230.46427098 453.01863918 -229.35253906 454.13037109 C-229.24450225 456.83376035 -229.20203372 459.51207107 -229.2010498 462.21630859 C-229.19681739 463.07400345 -229.19258498 463.9316983 -229.18822432 464.81538391 C-229.1751262 467.71204795 -229.1691571 470.60868442 -229.16308594 473.50537109 C-229.15514929 475.57283702 -229.14676181 477.64030127 -229.13795471 479.70776367 C-229.11985689 484.17073073 -229.104856 488.63369397 -229.09217834 493.09667969 C-229.07201821 500.14569489 -229.04435817 507.19466811 -229.01550293 514.24365234 C-228.95019861 530.4799986 -228.89483517 546.716376 -228.83951569 562.95275879 C-228.78873042 577.82853421 -228.73588448 592.70429443 -228.67499018 607.58003235 C-228.64656046 614.59537469 -228.6229935 621.61071195 -228.60306549 628.62608337 C-228.58972137 632.98115438 -228.57230671 637.33620203 -228.55375481 641.69125366 C-228.545969 643.71942558 -228.53991256 645.74760494 -228.5356617 647.77578735 C-228.52965668 650.53204298 -228.5176293 653.28820659 -228.50402832 656.04443359 C-228.50373233 656.85793777 -228.50343635 657.67144196 -228.50313139 658.50959778 C-228.8167822 662.11790814 -228.8167822 662.11790814 -227.35253906 665.13037109 C-219.0643017 666.35994477 -210.58557785 666.23388011 -202.22753906 666.25537109 C-201.20772949 666.25996338 -200.18791992 666.26455566 -199.13720703 666.26928711 C-197.6930542 666.26626587 -197.6930542 666.26626587 -196.21972656 666.26318359 C-195.35460449 666.26205566 -194.48948242 666.26092773 -193.59814453 666.25976562 C-191.18201591 666.21860245 -191.18201591 666.21860245 -188.35253906 665.13037109 C-186.74998492 661.92526282 -187.19856614 658.4387715 -187.19432068 654.91744995 C-187.1893827 654.05819511 -187.18444472 653.19894026 -187.17935711 652.31364739 C-187.16392822 649.41775914 -187.15560694 646.52189315 -187.1472168 643.62597656 C-187.13764251 641.55674034 -187.1276327 639.48750609 -187.11721802 637.41827393 C-187.09011422 631.78635316 -187.06913436 626.15442396 -187.04921603 620.52247381 C-187.02739017 614.64209287 -186.99998489 608.76173806 -186.97315979 602.88137817 C-186.92318682 591.73959575 -186.87826511 580.59779885 -186.83513743 569.45598805 C-186.78580434 556.77418262 -186.73087167 544.0924034 -186.67545784 531.41062331 C-186.56156712 505.31723035 -186.45474357 479.22381226 -186.35253906 453.13037109 C-184.64940552 453.10064209 -184.64940552 453.10064209 -182.91186523 453.0703125 C-178.70167762 452.99427425 -174.49183643 452.90555423 -170.28198242 452.81298828 C-168.45946082 452.77469115 -166.63686344 452.73983955 -164.81420898 452.70849609 C-162.19519965 452.6628613 -159.57671232 452.60486487 -156.95800781 452.54443359 C-155.73442818 452.52710678 -155.73442818 452.52710678 -154.48612976 452.50942993 C-150.61889402 452.40839836 -148.64094121 452.32263919 -145.35253906 450.13037109 C-145.06076636 447.3875164 -144.95648109 444.87379571 -144.98925781 442.13037109 C-144.98875931 441.33888672 -144.9882608 440.54740234 -144.98774719 439.73193359 C-144.99008917 438.05742891 -144.99982505 436.3829208 -145.01635742 434.70849609 C-145.03994631 432.1404687 -145.03692019 429.57347923 -145.03027344 427.00537109 C-145.03585019 425.38036488 -145.04296005 423.75536306 -145.05175781 422.13037109 C-145.05084641 421.35951172 -145.049935 420.58865234 -145.04899597 419.79443359 C-144.95303601 415.49909469 -144.95303601 415.49909469 -147.35253906 412.13037109 C-149.5872148 411.82347517 -149.5872148 411.82347517 -152.21118164 411.86967468 C-153.23756744 411.86258987 -154.26395325 411.85550507 -155.32144165 411.84820557 C-157.01712784 411.85192169 -157.01712784 411.85192169 -158.74707031 411.85571289 C-159.93408539 411.85060196 -161.12110046 411.84549103 -162.34408569 411.84022522 C-165.6043755 411.82868395 -168.86450815 411.82625922 -172.12481308 411.82878852 C-174.84368357 411.82985639 -177.56253046 411.82497968 -180.28139591 411.8201831 C-186.69347452 411.80907956 -193.10549455 411.80865546 -199.51757812 411.81469727 C-206.13984094 411.82074099 -212.76189149 411.80841804 -219.38411808 411.7871272 C-225.06398661 411.76953532 -230.74378743 411.76350594 -236.42368221 411.76676494 C-239.81861578 411.76858159 -243.2133979 411.76590387 -246.60830688 411.7520504 C-250.39170928 411.73978054 -254.174614 411.74642081 -257.95800781 411.75805664 C-259.08846527 411.7504129 -260.21892273 411.74276917 -261.38363647 411.7348938 C-262.92321518 411.74541527 -262.92321518 411.74541527 -264.49389648 411.75614929 C-265.38912521 411.75598155 -266.28435394 411.75581381 -267.20671082 411.75564098 C-268.2688958 411.94113239 -268.2688958 411.94113239 -269.35253906 412.13037109 Z M62.64746094 413.13037109 C62.54035507 415.31792837 62.50498781 417.50899854 62.49597168 419.69915771 C62.49173927 420.39417239 62.48750686 421.08918707 62.48314619 421.8052628 C62.47004899 424.15289208 62.46407842 426.50048732 62.45800781 428.84814453 C62.45006907 430.52535715 62.44168141 432.2025677 62.43287659 433.879776 C62.41476414 437.50617625 62.3997663 441.13257174 62.38710022 444.75899506 C62.36685525 450.5219153 62.33919112 456.28478532 62.3104248 462.04766846 C62.25532028 473.28502126 62.20732927 484.52239867 62.16048431 495.75978851 C62.10121956 509.96044965 62.04015519 524.16109631 61.96991205 538.36170793 C61.94651453 543.13629135 61.9249251 547.91086777 61.90782166 552.68547821 C61.84497019 570.08656669 61.76810304 587.4891622 61.31738281 604.88525391 C61.28527081 606.6611899 61.28527081 606.6611899 61.25251007 608.47300339 C61.20141712 610.09140059 61.20141712 610.09140059 61.14929199 611.74249268 C61.12489799 612.66979816 61.100504 613.59710365 61.07537079 614.55250931 C60.55689814 617.67594951 59.4970044 619.57488471 57.64746094 622.13037109 C52.8821154 625.30726812 47.45154099 624.54090214 41.87841797 624.5559082 C39.78591435 624.56779467 37.69637247 624.61696981 35.60449219 624.66748047 C34.26726694 624.67694693 32.93002364 624.68418091 31.59277344 624.68896484 C29.77543701 624.70914673 29.77543701 624.70914673 27.92138672 624.72973633 C23.70562512 623.95794701 22.26087522 622.46413804 19.64746094 619.13037109 C18.22823793 615.75466332 18.47483287 612.09308895 18.40136719 608.46630859 C18.36849609 607.17982422 18.335625 605.89333984 18.30175781 604.56787109 C18.2541917 602.52918245 18.20967691 600.49053104 18.1706543 598.45166016 C18.13104151 596.47718788 18.07889282 594.50297956 18.02636719 592.52880859 C18.00131104 591.3497998 17.97625488 590.17079102 17.95043945 588.95605469 C17.93212237 585.99657206 17.93212237 585.99657206 15.64746094 584.13037109 C8.3966817 582.6135059 0.64425928 582.94742721 -6.72753906 582.94287109 C-7.79359375 582.930625 -8.85964844 582.91837891 -9.95800781 582.90576172 C-10.9828125 582.90382813 -12.00761719 582.90189453 -13.06347656 582.89990234 C-13.98435059 582.89579346 -14.90522461 582.89168457 -15.85400391 582.88745117 C-18.49422406 583.14414641 -20.03934741 583.89486817 -22.35253906 585.13037109 C-22.45497205 591.44329778 -22.52443189 597.75600586 -22.57226562 604.06958008 C-22.59223176 606.21191415 -22.61941445 608.35419478 -22.65429688 610.49633789 C-22.91675085 627.04251696 -22.81255437 642.15350797 -10.69238281 654.87255859 C7.42913738 671.46675249 38.72185355 666.73672939 61.53564453 666.04248047 C73.55179722 665.48126693 85.13565388 662.34190492 93.70996094 653.38037109 C104.43278152 639.32697745 103.94281611 623.16316191 103.90625 606.3605957 C103.90896332 604.2637215 103.91252616 602.16684826 103.91687012 600.06997681 C103.92595078 594.40329528 103.9224691 588.73668695 103.91611195 583.07000422 C103.91103556 577.13590602 103.91574739 571.20181392 103.91888428 565.26771545 C103.92251659 555.31412636 103.91774144 545.360567 103.90820312 535.40698242 C103.89729308 523.88867762 103.90086557 512.37044349 103.91185594 500.85214037 C103.9209177 490.95981869 103.92222035 481.06751833 103.9169786 471.17519385 C103.91385623 465.26756572 103.91345741 459.35997089 103.92005157 453.45234489 C103.92580919 447.90781827 103.92185739 442.36338339 103.91026306 436.81886673 C103.90760911 434.77981405 103.908394 432.7407537 103.91278839 430.70170403 C103.91821572 427.92875137 103.9114445 425.15609686 103.90142822 422.38316345 C103.90588967 421.56772047 103.91035111 420.75227748 103.91494775 419.9121241 C104.05442429 415.55449266 104.05442429 415.55449266 101.64746094 412.13037109 C98.7903163 411.94276079 96.03180108 411.87479792 93.17480469 411.89990234 C92.33655655 411.90036057 91.49830841 411.90081879 90.63465881 411.90129089 C88.86181219 411.90431385 87.08896823 411.91220146 85.31616211 411.92456055 C82.59251572 411.94282044 79.86920902 411.94507024 77.14550781 411.94482422 C75.42610381 411.94973918 73.70670213 411.9555674 71.98730469 411.96240234 C70.75765236 411.96407158 70.75765236 411.96407158 69.50315857 411.96577454 C65.77090945 411.63978619 65.77090945 411.63978619 62.64746094 413.13037109 Z M137.64746094 414.13037109 C137.34779981 416.05021305 137.34779981 416.05021305 137.40136528 418.2808094 C137.39738318 419.15564039 137.39340109 420.03047138 137.38929832 420.93181241 C137.395124 421.8987238 137.40094969 422.86563519 137.4069519 423.86184692 C137.40524305 424.88444386 137.4035342 425.9070408 137.40177357 426.96062553 C137.39846235 430.40936707 137.4095092 433.85791682 137.42041016 437.30664062 C137.42097392 439.76995845 137.4206584 442.23327661 137.41952515 444.69659424 C137.41906876 450.01135886 137.42476524 455.32606304 137.43600082 460.64081192 C137.45223514 468.32509521 137.4574617 476.00935475 137.45997681 483.69365333 C137.46435717 496.16004014 137.4776755 508.62640082 137.49658203 521.09277344 C137.51493202 533.20475127 137.52909283 545.31672202 137.53759766 557.42871094 C137.5381231 558.17493438 137.53864855 558.92115783 137.53918992 559.68999411 C137.54179994 563.43347061 137.54432737 567.17694716 137.54681373 570.92042375 C137.56755684 601.9904252 137.60294 633.06039418 137.64746094 664.13037109 C141.13375693 665.69983409 143.85365002 666.38096955 147.6703186 666.38433838 C148.65731247 666.38997803 149.64430634 666.39561768 150.66120911 666.40142822 C151.732556 666.39737976 152.80390289 666.3933313 153.90771484 666.38916016 C155.04479385 666.39266479 156.18187286 666.39616943 157.35340881 666.39978027 C161.11034252 666.40858001 164.86708783 666.40275528 168.62402344 666.39599609 C171.23285966 666.39734306 173.84169564 666.39928385 176.45053101 666.40179443 C181.9162602 666.40542946 187.38193528 666.40064609 192.84765625 666.39111328 C199.16715911 666.3802187 205.48653302 666.38376339 211.80603278 666.39476609 C217.88811494 666.40493148 223.9701399 666.40386129 230.05222702 666.39800262 C232.63987623 666.39666591 235.22752872 666.3983146 237.8151741 666.40296173 C241.42553773 666.40802333 245.03565117 666.40032215 248.64599609 666.38916016 C250.25908913 666.39523285 250.25908913 666.39523285 251.9047699 666.40142822 C253.37680122 666.39296875 253.37680122 666.39296875 254.87857056 666.38433838 C256.1588787 666.3832073 256.1588787 666.3832073 257.46505165 666.38205338 C259.93977802 666.26462785 259.93977802 666.26462785 262.64746094 664.13037109 C262.91406277 661.22202225 262.99525218 658.52898841 262.94042969 655.62255859 C262.93618484 654.78193878 262.93194 653.94131897 262.92756653 653.07522583 C262.91074626 650.38495116 262.87308875 647.6954201 262.83496094 645.00537109 C262.81991839 643.18376731 262.80622924 641.36215182 262.79394531 639.54052734 C262.76083188 635.07018786 262.70902731 630.60040563 262.64746094 626.13037109 C254.51998873 625.11193106 246.49145932 625.01028093 238.31718445 625.0552063 C235.9466767 625.06811358 233.57622566 625.07452038 231.20568848 625.0793457 C226.18625344 625.09068779 221.16686625 625.10997481 216.14746094 625.13037109 C210.29995576 625.15398784 204.45247624 625.17433164 198.60493469 625.18630981 C196.26828479 625.19279594 193.93171584 625.20529445 191.59509277 625.21801758 C190.17179434 625.22164773 188.74849516 625.22499976 187.32519531 625.22802734 C186.08072632 625.23326416 184.83625732 625.23850098 183.55407715 625.24389648 C180.64746094 625.13037109 180.64746094 625.13037109 178.64746094 624.13037109 C178.64746094 603.01037109 178.64746094 581.89037109 178.64746094 560.13037109 C210.02246094 559.75537109 210.02246094 559.75537109 219.93408203 559.65234375 C222.5130316 559.61715402 225.09197136 559.5812346 227.67089844 559.54443359 C228.67946396 559.53614029 228.67946396 559.53614029 229.70840454 559.52767944 C231.68477193 559.51067395 233.66100963 559.48021939 235.63720703 559.44921875 C236.75195404 559.43589508 237.86670105 559.42257141 239.01522827 559.40884399 C241.80430661 559.39271911 241.80430661 559.39271911 243.64746094 557.13037109 C243.91732242 554.68489232 244.06901035 552.34454149 244.13183594 549.89208984 C244.16800018 548.81541801 244.16800018 548.81541801 244.20489502 547.71699524 C244.25322184 546.19648515 244.29660708 544.67581123 244.33544922 543.1550293 C244.39695834 540.83681364 244.4801007 538.52008329 244.56542969 536.20263672 C244.60971256 534.72415987 244.65272231 533.24564423 244.69433594 531.76708984 C244.72025818 531.07733566 244.74618042 530.38758148 244.77288818 529.67692566 C244.8565634 525.68819205 244.46125747 522.69987251 242.64746094 519.13037109 C240.85593718 517.33884734 238.17219662 517.95874714 235.75073242 517.92504883 C234.47178101 517.90486694 233.19282959 517.88468506 231.87512207 517.8638916 C230.50626785 517.84712028 229.13741206 517.83047703 227.76855469 517.81396484 C226.53109497 517.79531372 225.29363525 517.7766626 224.01867676 517.75744629 C219.37418087 517.68889232 214.7295617 517.6289077 210.08496094 517.56787109 C199.71058594 517.42349609 189.33621094 517.27912109 178.64746094 517.13037109 C178.64746094 496.34037109 178.64746094 475.55037109 178.64746094 454.13037109 C181.58335876 452.66242218 184.17111191 453.01918118 187.44873047 453.03271484 C188.14818283 453.03417511 188.84763519 453.03563538 189.56828308 453.03713989 C191.09009631 453.04095007 192.61190507 453.04707102 194.13370132 453.0552063 C196.54722223 453.06796066 198.96068818 453.07448413 201.37423706 453.0793457 C207.37441831 453.09272696 213.37454798 453.11682248 219.37469482 453.14074707 C224.43547147 453.16054321 229.49622807 453.17616323 234.55703354 453.18630981 C236.92552014 453.19275609 239.29392423 453.20526932 241.66238403 453.21801758 C243.13153005 453.2216544 244.60067681 453.22500559 246.06982422 453.22802734 C247.34286407 453.23326416 248.61590393 453.23850098 249.92752075 453.24389648 C256.74321454 453.40111434 256.74321454 453.40111434 262.64746094 451.13037109 C262.74849349 448.33043512 262.78716181 445.55568466 262.78027344 442.75537109 C262.78170853 441.49587646 262.78170853 441.49587646 262.78317261 440.2109375 C262.78385441 438.43212815 262.7820001 436.65331632 262.77783203 434.87451172 C262.77248376 432.14203333 262.77777699 429.40971933 262.78417969 426.67724609 C262.78351891 424.9532874 262.78223774 423.2293288 262.78027344 421.50537109 C262.78330978 420.27101318 262.78330978 420.27101318 262.78640747 419.01171875 C263.13321554 415.26657243 263.13321554 415.26657243 261.64746094 412.13037109 C260.07055483 412.03009108 258.48916155 411.99961317 256.90907288 411.99665833 C255.88406174 411.99239334 254.8590506 411.98812836 253.80297852 411.98373413 C252.66892578 411.98418732 251.53487305 411.9846405 250.36645508 411.98510742 C249.17958603 411.98174881 247.99271698 411.9783902 246.7698822 411.97492981 C243.50543854 411.96703419 240.24103295 411.96375087 236.97658086 411.96311402 C234.25528193 411.96216651 231.53398915 411.95849002 228.81269258 411.95494193 C222.39441235 411.94678988 215.97614615 411.94435837 209.55786133 411.94506836 C202.92828375 411.94566933 196.29878751 411.9351155 189.66923052 411.9193247 C183.98514581 411.90626636 178.30108773 411.90088374 172.61698812 411.90152377 C169.21871584 411.90177927 165.82051578 411.89889984 162.42225838 411.88834572 C158.6340564 411.87860337 154.84606635 411.88140103 151.05786133 411.88745117 C149.92583282 411.88183167 148.79380432 411.87621216 147.62747192 411.87042236 C146.59964096 411.87461685 145.57181 411.87881134 144.51283264 411.88313293 C143.16804132 411.88231578 143.16804132 411.88231578 141.7960825 411.88148212 C139.43409829 411.9297036 139.43409829 411.9297036 137.64746094 414.13037109 Z M297.64746094 413.13037109 C297.40260679 416.0237947 297.2237136 418.89357601 297.0930481 421.79293823 C297.05092072 422.6900574 297.00879334 423.58717657 296.96538937 424.51148117 C296.51884527 434.8500291 296.50697448 445.18299503 296.51806641 455.52929688 C296.51670735 457.69333424 296.5149246 459.85737137 296.51275635 462.02140808 C296.50824471 467.83269917 296.50994471 473.64397226 296.51313543 479.45526361 C296.5156885 485.5644043 296.51331366 491.67354357 296.51174927 497.78268433 C296.50993749 508.02553582 296.51230919 518.26838007 296.51708984 528.51123047 C296.52254511 540.33571771 296.52075665 552.16018774 296.51526344 563.98467457 C296.51072132 574.1719878 296.51008671 584.35929585 296.51270211 594.54660976 C296.51425696 600.61643498 296.51448009 606.68625212 296.51116562 612.75607681 C296.50827043 618.45420703 296.51029285 624.15231506 296.51605988 629.85044289 C296.51737801 631.93613333 296.51700949 634.02182565 296.51479721 636.10751534 C296.51204875 638.96249974 296.51551158 641.81741383 296.52047729 644.6723938 C296.51824657 645.48952256 296.51601585 646.30665133 296.51371753 647.14854157 C296.53286896 652.85785664 296.99242539 658.45996856 297.64746094 664.13037109 C301.17672336 665.7277686 303.8934532 666.37477148 307.75970459 666.33964539 C308.76641708 666.33542572 309.77312958 666.33120605 310.81034851 666.32685852 C311.90353897 666.31188828 312.99672943 666.29691803 314.12304688 666.28149414 C315.28284561 666.27363892 316.44264435 666.26578369 317.6375885 666.25769043 C321.46916007 666.22912366 325.30041032 666.18586882 329.13183594 666.14208984 C331.79030025 666.11845821 334.44876211 666.09553192 337.10723877 666.07344055 C342.67557999 666.02555825 348.24379805 665.96979948 353.81201172 665.90893555 C360.25641595 665.83855234 366.70084882 665.77878628 373.14541221 665.72507638 C379.34286334 665.67333849 385.54024729 665.61593864 391.73761749 665.55530739 C394.37714779 665.52981243 397.01668997 665.50552073 399.65624237 665.4824276 C403.3340524 665.44910882 407.01173139 665.40926318 410.68945312 665.36743164 C412.3413842 665.35408531 412.3413842 665.35408531 414.02668762 665.34046936 C415.02212082 665.32779022 416.01755402 665.31511108 417.04315186 665.30204773 C417.91328289 665.29299754 418.78341393 665.28394735 419.67991257 665.27462292 C421.65003212 665.34563687 421.65003212 665.34563687 422.64746094 664.13037109 C422.74844344 661.48748753 422.78716835 658.8713015 422.78027344 656.22802734 C422.78170853 655.03867836 422.78170853 655.03867836 422.78317261 653.82530212 C422.78385445 652.14484579 422.7819999 650.46438685 422.77783203 648.78393555 C422.77249084 646.20729664 422.77777322 643.63083262 422.78417969 641.05419922 C422.78351877 639.42464154 422.78223732 637.79508397 422.78027344 636.16552734 C422.78330978 635.0045327 422.78330978 635.0045327 422.78640747 633.82008362 C422.85462508 629.84580486 422.85462508 629.84580486 421.64746094 626.13037109 C380.06746094 625.63537109 380.06746094 625.63537109 337.64746094 625.13037109 C337.97746094 603.68037109 338.30746094 582.23037109 338.64746094 560.13037109 C370.02246094 559.75537109 370.02246094 559.75537109 379.93408203 559.65234375 C382.5130316 559.61715402 385.09197136 559.5812346 387.67089844 559.54443359 C388.67946396 559.53614029 388.67946396 559.53614029 389.70840454 559.52767944 C391.68477193 559.51067395 393.66100963 559.48021939 395.63720703 559.44921875 C396.75195404 559.43589508 397.86670105 559.42257141 399.01522827 559.40884399 C401.80430661 559.39271911 401.80430661 559.39271911 403.64746094 557.13037109 C403.8349634 554.4288281 403.90310975 551.83167817 403.87792969 549.13037109 C403.87747147 548.33888672 403.87701324 547.54740234 403.87654114 546.73193359 C403.87351825 545.05743919 403.86563084 543.38294761 403.85327148 541.70849609 C403.8350342 539.14068678 403.83276166 536.57323836 403.83300781 534.00537109 C403.82809187 532.38036797 403.82226322 530.75536729 403.81542969 529.13037109 C403.81431686 528.35951172 403.81320404 527.58865234 403.8120575 526.79443359 C403.85849527 522.83298543 403.85849527 522.83298543 402.64746094 519.13037109 C399.39374549 518.04579928 397.03846774 518.00990252 393.61547852 518.0168457 C392.35707153 518.01696655 391.09866455 518.0170874 389.80212402 518.01721191 C388.46541291 518.02224739 387.12870228 518.02741396 385.79199219 518.03271484 C383.96831116 518.03422546 383.96831116 518.03422546 382.10778809 518.0357666 C377.5585028 518.04100559 373.00923094 518.05496682 368.45996094 518.06787109 C358.29183594 518.08849609 348.12371094 518.10912109 337.64746094 518.13037109 C337.97746094 497.01037109 338.30746094 475.89037109 338.64746094 454.13037109 C342.72218805 453.31542567 345.88293449 453.01330849 349.97558594 453.03271484 C351.23459717 453.03601807 352.4936084 453.03932129 353.79077148 453.04272461 C354.79350601 453.04890305 354.79350601 453.04890305 355.8164978 453.0552063 C357.92918915 453.06806419 360.04181698 453.07451096 362.15454102 453.0793457 C367.40797184 453.09266392 372.66134305 453.11670539 377.91473389 453.14074707 C382.34879233 453.16066356 386.78282689 453.17623404 391.21691895 453.18630981 C393.27551601 453.19268695 395.33401272 453.20519934 397.39257812 453.21801758 C405.48873127 453.23884206 413.60668376 453.18172538 421.64746094 452.13037109 C423.69259147 450.08524056 422.81150773 445.82131931 422.81542969 443.00927734 C422.81875809 442.19418198 422.82208649 441.37908661 422.82551575 440.53929138 C422.83058836 438.81176316 422.83292397 437.08422511 422.83276367 435.35668945 C422.83494886 432.70751864 422.85309715 430.05876493 422.87207031 427.40966797 C422.87500437 425.73453919 422.87698908 424.05940843 422.87792969 422.38427734 C422.88870796 421.19047203 422.88870796 421.19047203 422.89970398 419.97254944 C423.0576897 415.58329017 423.0576897 415.58329017 420.64746094 412.13037109 C418.40955323 411.82916161 418.40955323 411.82916161 415.78208923 411.88313293 C414.75425827 411.87893845 413.72642731 411.87474396 412.66744995 411.87042236 C411.53542145 411.87604187 410.40339294 411.88166138 409.23706055 411.88745117 C408.04843918 411.88555283 406.85981781 411.88365448 405.63517761 411.88169861 C402.37080866 411.87862283 399.10660558 411.88451341 395.84225535 411.89465165 C392.43142391 411.90342015 389.02059689 411.90167495 385.60975647 411.90129089 C379.88231111 411.90222798 374.15491868 411.9109185 368.42749023 411.92456055 C361.79732428 411.94029403 355.16721629 411.94555842 348.53703302 411.94482499 C342.16823579 411.94421553 335.79945751 411.94931302 329.43066597 411.95761681 C326.7157635 411.96115539 324.00086773 411.96298087 321.28596306 411.96351051 C317.5001009 411.96566644 313.71431311 411.9743942 309.9284668 411.98510742 C308.79441406 411.98465424 307.66036133 411.98420105 306.49194336 411.98373413 C305.46693222 411.98799911 304.44192108 411.9922641 303.385849 411.99665833 C302.04162322 411.99917209 302.04162322 411.99917209 300.67024136 412.00173664 C298.65110233 411.90646137 298.65110233 411.90646137 297.64746094 413.13037109 Z M-117.35253906 534.13037109 C-117.846858 536.94720438 -118.00860253 539.15899134 -117.94628906 541.97412109 C-117.94632935 542.7396228 -117.94636963 543.50512451 -117.94641113 544.29382324 C-117.94105334 545.91113502 -117.92345901 547.52844589 -117.89453125 549.14550781 C-117.85268493 551.62173976 -117.85346002 554.09525161 -117.86035156 556.57177734 C-117.84985852 558.14341084 -117.83691979 559.7150303 -117.82128906 561.28662109 C-117.82108765 562.02730835 -117.82088623 562.76799561 -117.82067871 563.53112793 C-117.7777927 567.40807196 -117.7777927 567.40807196 -116.15342712 570.82423401 C-113.71938734 572.5895795 -112.11226903 572.51722611 -109.1184082 572.53442383 C-108.05042496 572.547108 -106.98244171 572.55979218 -105.88209534 572.57286072 C-104.72894333 572.56992508 -103.57579132 572.56698944 -102.38769531 572.56396484 C-101.20284042 572.5692067 -100.01798553 572.57444855 -98.79722595 572.57984924 C-96.28971135 572.58627715 -93.78216662 572.58492257 -91.2746582 572.57641602 C-87.43353654 572.56791205 -83.5939041 572.59664996 -79.75292969 572.62841797 C-77.31868534 572.63003014 -74.88443836 572.62945215 -72.45019531 572.62646484 C-71.29906754 572.63769882 -70.14793976 572.6489328 -68.96192932 572.6605072 C-67.35522621 572.64643578 -67.35522621 572.64643578 -65.71606445 572.63208008 C-64.77469131 572.63191391 -63.83331818 572.63174774 -62.86341858 572.63157654 C-59.57440584 571.9750452 -58.38377929 570.75471233 -56.35253906 568.13037109 C-55.97871989 565.40393313 -55.83708675 563.09161359 -55.89160156 560.37255859 C-55.89251801 559.6282962 -55.89343445 558.88403381 -55.89437866 558.11721802 C-55.90040628 556.54878333 -55.91612731 554.98035971 -55.94091797 553.41210938 C-55.97752082 551.0065697 -55.98193659 548.60256694 -55.98144531 546.19677734 C-55.99127339 544.6720244 -56.00292905 543.14728191 -56.01660156 541.62255859 C-56.01882721 540.90172089 -56.02105286 540.18088318 -56.02334595 539.4382019 C-55.98490889 535.33186671 -55.98490889 535.33186671 -58.35253906 532.13037109 C-61.35318726 531.11357853 -64.16477 530.99414266 -67.31713867 530.96923828 C-68.30173569 530.95963074 -69.2863327 530.95002319 -70.30076599 530.94012451 C-71.35812454 530.93587463 -72.41548309 530.93162476 -73.50488281 530.92724609 C-74.5971669 530.92154602 -75.68945099 530.91584595 -76.81483459 530.90997314 C-79.12386102 530.90053252 -81.43290086 530.89399289 -83.74194336 530.89013672 C-87.27318754 530.88041748 -90.80385297 530.84937906 -94.33496094 530.81787109 C-96.57909811 530.81134211 -98.82323944 530.80609123 -101.06738281 530.80224609 C-102.12271713 530.78989929 -103.17805145 530.77755249 -104.2653656 530.76483154 C-111.48034302 530.55182244 -111.48034302 530.55182244 -117.35253906 534.13037109 Z " fill="#020202" transform="translate(535.3525390625,-0.13037109375)"/>
<path d="M0 0 C16.00265725 -0.04667598 32.0052925 -0.08196719 48.00800133 -0.10362434 C55.43797452 -0.11394644 62.86790548 -0.12802453 70.29785156 -0.15087891 C76.77215783 -0.1707843 83.24643351 -0.18370964 89.72076952 -0.18817699 C93.15036531 -0.19078923 96.57987358 -0.19694832 100.00944138 -0.21146011 C103.83362241 -0.2275111 107.65771703 -0.22798152 111.48193359 -0.22705078 C112.62488388 -0.23424133 113.76783417 -0.24143188 114.94541931 -0.24884033 C115.98310959 -0.246091 117.02079987 -0.24334167 118.0899353 -0.24050903 C119.44773637 -0.24327441 119.44773637 -0.24327441 120.83296776 -0.24609566 C123 0 123 0 125 2 C125.22444558 4.83348402 125.32815916 7.56636449 125.3359375 10.40234375 C125.3459227 11.65260094 125.3459227 11.65260094 125.35610962 12.92811584 C125.36624313 14.69253326 125.37092642 16.45698906 125.37060547 18.22143555 C125.3749776 20.9236556 125.41128482 23.62424116 125.44921875 26.32617188 C125.45508696 28.0390569 125.45905632 29.7519497 125.4609375 31.46484375 C125.47530853 32.2742894 125.48967957 33.08373505 125.50448608 33.91770935 C125.45914988 39.47384348 125.45914988 39.47384348 123.49990845 41.7190094 C119.90015101 43.56357913 116.46299585 43.37046553 112.515625 43.29296875 C111.70003113 43.28872391 110.88443726 43.28447906 110.04412842 43.28010559 C107.44574616 43.26334715 104.84814681 43.22570097 102.25 43.1875 C100.48568831 43.17244946 98.72136442 43.1587617 96.95703125 43.14648438 C92.63772035 43.11345301 88.3189928 43.06169086 84 43 C84.00276538 44.07344288 84.00553076 45.14688576 84.00837994 46.25285721 C84.07492366 72.34968611 84.12425115 98.44650404 84.15543652 124.54339981 C84.17091765 137.16356671 84.19203099 149.78367762 84.22631836 162.40380859 C84.25618255 173.40112556 84.27556593 184.398402 84.28226548 195.39575839 C84.28618279 201.22093392 84.29541491 207.04599347 84.31719017 212.8711319 C84.3375082 218.35068713 84.34384328 223.83007827 84.33932304 229.30966759 C84.34015034 231.32369312 84.34614375 233.33772397 84.35761642 235.351717 C84.37248721 238.09619265 84.36897343 240.84004436 84.36076355 243.58453369 C84.36950207 244.38609052 84.3782406 245.18764735 84.38724393 246.01349378 C84.36119379 249.22331708 84.19736814 251.6150403 82.72050953 254.49560165 C79.74018101 257.10157461 76.00804445 256.5259704 72.24609375 256.4609375 C70.96110741 256.45956284 70.96110741 256.45956284 69.65016174 256.4581604 C67.84036717 256.45212092 66.03058276 256.4363644 64.22094727 256.41162109 C61.44445154 256.37509146 58.66928913 256.37060182 55.89257812 256.37109375 C54.13540509 256.36126355 52.37824112 256.34960697 50.62109375 256.3359375 C49.78775009 256.33371185 48.95440643 256.33148621 48.09580994 256.32919312 C42.23214903 256.23214903 42.23214903 256.23214903 40 254 C39.80658388 251.2167072 39.73959354 248.53328133 39.75949097 245.74911499 C39.75778212 244.88577659 39.75607327 244.02243819 39.75431263 243.13293803 C39.75100307 240.22314532 39.76204546 237.31358026 39.77294922 234.40380859 C39.77351302 232.32472235 39.77319739 230.2456357 39.77206421 228.16654968 C39.77148847 222.50772308 39.78327852 216.84898061 39.79721212 211.19017363 C39.80968268 205.28178549 39.81088707 199.3733956 39.81326294 193.46499634 C39.81948854 182.270057 39.83591394 171.07515655 39.85596192 159.88023436 C39.87828736 147.13799327 39.8893059 134.39575036 39.89935279 121.6534946 C39.92027925 95.43564147 39.95547616 69.21782291 40 43 C40.33 43 40.66 43 41 43 C41.33 112.3 41.66 181.6 42 253 C52.01149781 253.8278889 52.01149781 253.8278889 61.95703125 254.09765625 C63.08818359 254.09443359 64.21933594 254.09121094 65.38476562 254.08789062 C66.51591797 254.07951172 67.64707031 254.07113281 68.8125 254.0625 C69.99392578 254.05798828 71.17535156 254.05347656 72.39257812 254.04882812 C75.26177521 254.03721194 78.130858 254.02088167 81 254 C81.00423194 252.90833055 81.00846388 251.81666109 81.01282406 250.69191074 C81.11586333 224.17048495 81.22459157 197.64908718 81.33933926 171.12770939 C81.39469687 158.30235279 81.44818297 145.47699341 81.49731445 132.65161133 C81.54012526 121.47741501 81.58639529 110.30323938 81.63687855 99.12907499 C81.66350457 93.20847846 81.68835817 87.2878861 81.70907402 81.3672657 C81.72860259 75.80155683 81.75273481 70.23588744 81.78049088 64.6702137 C81.78988141 62.62108067 81.79754942 60.57193896 81.80341911 58.52279282 C81.81164642 55.73801621 81.82591327 52.95333631 81.84178162 50.16859436 C81.84275972 49.34662616 81.84373783 48.52465797 81.84474558 47.67778164 C81.88587879 42.11412121 81.88587879 42.11412121 83 41 C85.78642215 40.8521327 88.55119498 40.76493029 91.33984375 40.71875 C92.59578087 40.69113586 92.59578087 40.69113586 93.87709045 40.66296387 C96.56382004 40.6040259 99.2506143 40.55129749 101.9375 40.5 C105.46758663 40.43247175 108.99746409 40.35877245 112.52734375 40.28125 C113.75395973 40.26088684 113.75395973 40.26088684 115.00535583 40.2401123 C119.13579212 40.24913493 119.13579212 40.24913493 123 39 C123.0246501 33.89136104 123.04283607 28.78275641 123.05493164 23.67407227 C123.05997204 21.93480832 123.0668043 20.19554864 123.07543945 18.45629883 C123.08751792 15.96174063 123.09323108 13.46723827 123.09765625 10.97265625 C123.10281754 10.19036148 123.10797882 9.40806671 123.11329651 8.60206604 C123.11349226 6.73432886 123.06199694 4.86670796 123 3 C121.3641052 1.3641052 119.50593956 1.85799136 117.24815369 1.84178162 C116.22025223 1.8319928 115.19235077 1.82220398 114.13330078 1.81211853 C112.42750854 1.80348534 112.42750854 1.80348534 110.68725586 1.79467773 C109.49717422 1.78477814 108.30709259 1.77487854 107.08094788 1.76467896 C103.80839691 1.73842897 100.53585135 1.71659269 97.26325679 1.69667697 C93.84658439 1.67485467 90.42995703 1.64744767 87.01332092 1.62062073 C80.53934001 1.57064288 74.06533416 1.52572302 67.59130436 1.48259836 C60.22258881 1.43326941 52.85391843 1.37833523 45.48524654 1.32291877 C30.32353977 1.20902059 15.16179048 1.10219871 0 1 C0 0.67 0 0.34 0 0 Z " fill="#C2C2C2" transform="translate(266,411)"/>
<path d="M0 0 C0.66 0.33 1.32 0.66 2 1 C-4.97204598 8.99357826 -12.351555 16.53779884 -19.84936523 24.03466797 C-21.83150308 26.01902435 -23.80545895 28.01129772 -25.77929688 30.00390625 C-27.04638653 31.27392503 -28.3139474 32.5434739 -29.58203125 33.8125 C-30.16749222 34.40514648 -30.75295319 34.99779297 -31.3561554 35.60839844 C-36.39190559 40.61604319 -36.39190559 40.61604319 -40 42 C-38.5158627 38.51345524 -36.53785948 36.35808928 -33.8125 33.75 C-30.96339245 31.0156551 -28.30157139 28.21429005 -25.73828125 25.21484375 C-21.88995715 20.77387047 -17.68926696 16.79519344 -13.375 12.8125 C-11.9029907 11.44471513 -10.43162035 10.07624226 -8.9609375 8.70703125 C-8.27870117 8.0723291 -7.59646484 7.43762695 -6.89355469 6.78369141 C-4.54391365 4.5703756 -2.26214535 2.30238114 0 0 Z " fill="#858585" transform="translate(179,136)"/>
</svg>
