<?xml version="1.0" encoding="UTF-8"?>
<svg version="1.1" xmlns="http://www.w3.org/2000/svg" width="1080" height="1080">
<path d="M0 0 C3.56397237 0.00570774 7.1278703 0.0022909 10.69184017 -0.00342751 C31.48160036 -0.03196304 52.18363767 0.11865427 72.83496094 2.75537109 C73.49467896 2.8386264 74.15439697 2.92188171 74.83410645 3.00765991 C109.72594395 7.4710132 144.25338004 16.25398427 177.64746094 27.13037109 C178.50678223 27.40816406 179.36610352 27.68595703 180.25146484 27.97216797 C222.39309704 41.73064138 262.5910568 61.93613726 299.64746094 86.13037109 C300.70449219 86.81228516 301.76152344 87.49419922 302.85058594 88.19677734 C316.97065276 97.43654785 330.50857764 107.55090224 343.64746094 118.13037109 C344.56527344 118.86513672 345.48308594 119.59990234 346.42871094 120.35693359 C349.18978992 122.59015924 351.92388983 124.85153967 354.64746094 127.13037109 C355.2051416 127.59636719 355.76282227 128.06236328 356.33740234 128.54248047 C364.54432413 135.43246205 372.32860748 142.60844739 379.8125 150.28125 C380.69760254 151.18689697 380.69760254 151.18689697 381.60058594 152.11083984 C382.11782227 152.64604248 382.63505859 153.18124512 383.16796875 153.73266602 C384.80203513 155.35487974 384.80203513 155.35487974 387.64746094 157.13037109 C387.64746094 157.79037109 387.64746094 158.45037109 387.64746094 159.13037109 C388.30746094 159.13037109 388.96746094 159.13037109 389.64746094 159.13037109 C390.98730469 160.49365234 390.98730469 160.49365234 392.58496094 162.44287109 C395.56972461 165.96749847 398.71744941 169.21666069 402.02246094 172.44287109 C406.45885511 176.80682202 410.46435149 181.39399714 414.34277344 186.25927734 C416.39782237 188.81938067 418.4982723 191.32469571 420.63232422 193.81835938 C429.44477437 204.11657562 437.79875007 214.65746997 445.41308594 225.87646484 C447.30088211 228.62565052 449.24544664 231.31945131 451.22314453 234.00415039 C458.03699561 243.30762609 463.83231734 253.18321543 469.64746094 263.13037109 C470.61093552 264.76582728 471.5744759 266.40124471 472.53808594 268.03662109 C485.70095027 290.46917249 497.67845972 313.6759525 506.86083984 338.05029297 C507.80067359 340.53551442 508.76219517 343.01204629 509.72167969 345.48974609 C527.61805069 392.05420096 539.91603843 441.28922764 543.64746094 491.13037109 C543.73576172 492.21737305 543.8240625 493.304375 543.91503906 494.42431641 C544.86517495 507.81718927 544.8003059 521.21858152 544.77783203 534.63867188 C544.7721693 538.05026314 544.7755164 541.46177592 544.78124905 544.87336445 C544.81317971 566.95341212 544.72095576 588.8386394 541.33496094 610.69287109 C541.10710585 612.21322585 540.87973813 613.73365371 540.65283203 615.25415039 C540.00592986 619.54972181 539.3320498 623.84066328 538.64746094 628.13037109 C538.47843262 629.19707031 538.3094043 630.26376953 538.13525391 631.36279297 C523.72405356 720.42798451 484.92508282 805.80543072 428.64746094 876.13037109 C427.93976562 877.03271484 427.23207031 877.93505859 426.50292969 878.86474609 C422.56909201 883.86157344 418.45592049 888.62628096 414.16186523 893.31640625 C412.05819368 895.67070456 410.02794669 898.06627114 408.02095032 900.5027771 C401.96862793 907.81836866 395.46808961 914.58793591 388.72143555 921.26220703 C386.94544489 923.01973625 385.17779284 924.78534255 383.41113281 926.55224609 C377.65558385 932.28974312 371.835507 937.85679196 365.64746094 943.13037109 C363.87175873 944.75004926 362.10037786 946.37448827 360.33496094 948.00537109 C354.93087777 952.92220086 349.37198956 957.59289601 343.64746094 962.13037109 C342.64271729 962.92797852 342.64271729 962.92797852 341.61767578 963.74169922 C332.17562485 971.21517751 322.65864029 978.43162378 312.64746094 985.13037109 C311.51556091 985.90063221 310.38406261 986.67148393 309.25292969 987.44287109 C274.08324013 1011.30663653 236.37816011 1031.05145257 196.64746094 1046.13037109 C195.16905658 1046.70580916 193.69114252 1047.2825095 192.21386719 1047.86083984 C155.31422658 1062.18679361 116.43605054 1070.60363343 77.39746094 1076.44287109 C76.11705933 1076.63700089 76.11705933 1076.63700089 74.81079102 1076.83505249 C53.28926567 1080.06967105 31.96329667 1080.3184503 10.23779297 1080.31567383 C7.19183373 1080.31559288 4.14602589 1080.32249999 1.10009766 1080.33618164 C-24.48407126 1080.44901711 -49.65344936 1079.38840755 -74.97753906 1075.44287109 C-76.23932983 1075.2497081 -76.23932983 1075.2497081 -77.52661133 1075.05264282 C-105.33146265 1070.77374757 -132.42225565 1064.21890534 -159.35253906 1056.13037109 C-160.79814209 1055.69821289 -160.79814209 1055.69821289 -162.27294922 1055.25732422 C-196.30320178 1044.92253803 -229.49875547 1029.65372287 -260.35253906 1012.13037109 C-261.18366211 1011.66244141 -262.01478516 1011.19451172 -262.87109375 1010.71240234 C-284.73395332 998.38703185 -305.45125094 984.41686776 -325.35253906 969.13037109 C-325.91569824 968.69869629 -326.47885742 968.26702148 -327.05908203 967.82226562 C-334.78502287 961.88393675 -342.1748498 955.72880824 -349.35253906 949.13037109 C-350.68176287 947.95902445 -352.01492314 946.79212517 -353.35253906 945.63037109 C-354.68666769 944.46461396 -356.0198907 943.29782012 -357.35253906 942.13037109 C-358.03437256 941.53466309 -358.71620605 940.93895508 -359.41870117 940.32519531 C-366.53146883 934.0212348 -373.28420399 927.38487124 -380.00268555 920.66552734 C-381.91012846 918.76027605 -383.82545373 916.86319497 -385.74121094 914.96630859 C-392.00143037 908.73416417 -397.97852097 902.47759006 -403.43969727 895.52294922 C-405.52151116 892.91902118 -407.72496628 890.46233893 -409.97753906 888.00537109 C-414.02511017 883.54747921 -417.71527767 878.92494294 -421.35253906 874.13037109 C-422.33071412 872.86918471 -423.30997975 871.60884379 -424.29003906 870.34912109 C-434.33760064 857.39099225 -443.70249761 844.06428221 -452.35253906 830.13037109 C-452.94035156 829.19837891 -453.52816406 828.26638672 -454.13378906 827.30615234 C-486.22324425 775.94987263 -510.78147333 719.51490048 -523.35253906 660.13037109 C-523.58779297 659.05335938 -523.82304688 657.97634766 -524.06542969 656.86669922 C-532.29340334 619.18466292 -535.71655784 582.56788336 -535.61328125 544.08666992 C-535.60186024 539.7943074 -535.6086896 535.50219213 -535.62015343 531.20983791 C-535.66206621 512.77030893 -535.51640955 494.47072855 -533.35253906 476.13037109 C-533.26810547 475.40904999 -533.18367187 474.68772888 -533.09667969 473.94454956 C-532.56944657 469.59390332 -531.92676393 465.26886419 -531.22753906 460.94287109 C-531.12438385 460.2951474 -531.02122864 459.64742371 -530.91494751 458.98007202 C-523.51042869 412.79603669 -510.82946214 368.10855356 -492.35253906 325.13037109 C-491.84062012 323.93516846 -491.84062012 323.93516846 -491.31835938 322.71582031 C-472.61612628 279.27115922 -447.64747037 238.39995411 -417.70751953 201.78955078 C-416.43754589 200.23446233 -415.17786477 198.67098441 -413.91894531 197.10693359 C-409.65677668 191.83277692 -405.26395483 186.71737953 -400.68847656 181.71240234 C-398.78570469 179.60917123 -396.91618269 177.48551859 -395.05566406 175.34521484 C-385.26234097 164.13281643 -374.98753313 153.43983149 -363.890625 143.515625 C-362.33479759 142.1143925 -360.79842778 140.69449544 -359.26660156 139.26708984 C-353.78902177 134.16824156 -348.20671671 129.25114768 -342.37207031 124.56005859 C-340.14586746 122.76872849 -337.9376579 120.96298807 -335.73925781 119.13818359 C-321.29483552 107.19162797 -306.12334933 96.25886063 -290.35253906 86.13037109 C-289.60762207 85.65164551 -288.86270508 85.17291992 -288.09521484 84.6796875 C-235.91362441 51.349428 -179.44916627 27.63146431 -119.35253906 13.13037109 C-117.59031006 12.70183838 -117.59031006 12.70183838 -115.79248047 12.26464844 C-100.99361281 8.72750373 -86.06724401 6.1512276 -71.04003906 3.81787109 C-69.82208649 3.6237413 -69.82208649 3.6237413 -68.57952881 3.4256897 C-45.8361165 -0.16496566 -22.96762063 -0.0367951 0 0 Z M-484.35253906 410.13037109 C-484.65102168 413.19550356 -484.75213495 416.05911336 -484.72676086 419.1270752 C-484.73073527 420.07067351 -484.73470968 421.01427182 -484.73880452 421.98646402 C-484.74847691 425.168047 -484.73657957 428.34919078 -484.72485352 431.53076172 C-484.72727985 433.80364651 -484.73099762 436.07653024 -484.73591614 438.34941101 C-484.74535044 444.53730265 -484.73587837 450.72503681 -484.72258401 456.91291618 C-484.71129985 463.37557892 -484.71537466 469.83823357 -484.71733093 476.30090332 C-484.71821487 487.15571025 -484.70718307 498.01044548 -484.6887207 508.86523438 C-484.66971558 520.04201135 -484.66263287 531.21871584 -484.66821289 542.39550781 C-484.67491107 555.85184026 -484.6716323 569.30811877 -484.65910912 582.76445007 C-484.65445345 587.90956721 -484.65359345 593.05466465 -484.65569496 598.19978333 C-484.65757278 604.25389686 -484.64951312 610.30791685 -484.63363457 616.36200905 C-484.62937668 618.58972092 -484.62855119 620.81744226 -484.63132477 623.04515648 C-484.63452559 626.07476411 -484.62551803 629.10408851 -484.61323547 632.13366699 C-484.6170148 633.02528613 -484.62079412 633.91690526 -484.62468797 634.83554316 C-484.8090213 639.4630198 -484.8090213 639.4630198 -482.35253906 643.13037109 C-479.86687363 643.32985666 -477.49503157 643.41026852 -475.00878906 643.39599609 C-473.9214447 643.39886627 -473.9214447 643.39886627 -472.81213379 643.40179443 C-471.27888644 643.40315596 -469.74562756 643.39946173 -468.21240234 643.39111328 C-465.86171647 643.38041287 -463.51179483 643.39100918 -461.16113281 643.40380859 C-459.67284987 643.40248699 -458.18456741 643.39992459 -456.69628906 643.39599609 C-455.99105103 643.40004456 -455.28581299 643.40409302 -454.5592041 643.40826416 C-450.50652219 643.48314505 -450.50652219 643.48314505 -447.35253906 641.13037109 C-447.05345133 638.63779112 -447.05345133 638.63779112 -447.11203003 635.68881226 C-447.1092807 634.53332382 -447.10653137 633.37783539 -447.10369873 632.18733215 C-447.11088928 630.91347153 -447.11807983 629.6396109 -447.12548828 628.32714844 C-447.1260522 626.97711699 -447.12573621 625.62708492 -447.12460327 624.27705383 C-447.12402802 620.60574834 -447.13581014 616.93457278 -447.14975119 613.26329756 C-447.16222986 609.42892581 -447.16342678 605.59455128 -447.165802 601.76016235 C-447.17202521 594.49638525 -447.18844737 587.23266814 -447.20850098 579.96891749 C-447.23083386 571.70059671 -447.24184683 563.43227312 -447.25189185 555.1639297 C-447.2728129 538.15270876 -447.30800516 521.14154626 -447.35253906 504.13037109 C-446.03253906 504.13037109 -444.71253906 504.13037109 -443.35253906 504.13037109 C-443.10761719 505.42458984 -442.86269531 506.71880859 -442.61035156 508.05224609 C-439.67413968 523.25714313 -436.28830887 538.33870097 -432.81982422 553.42947388 C-429.88862201 566.19712469 -427.07776894 578.97865613 -424.47753906 591.81787109 C-422.28440592 602.63836997 -420.00896653 613.41266372 -417.35253906 624.13037109 C-416.99880146 625.61453829 -416.645974 627.09892263 -416.29394531 628.58349609 C-415.93897927 630.05757557 -415.5835255 631.5315377 -415.22753906 633.00537109 C-415.06874268 633.67906738 -414.90994629 634.35276367 -414.74633789 635.046875 C-413.96223107 638.23692345 -413.20023426 640.3588283 -411.35253906 643.13037109 C-407.9166483 643.8150811 -404.41113167 643.6396507 -400.91503906 643.63037109 C-399.94759766 643.65873047 -398.98015625 643.68708984 -397.98339844 643.71630859 C-396.59024414 643.72017578 -396.59024414 643.72017578 -395.16894531 643.72412109 C-393.89192749 643.73475586 -393.89192749 643.73475586 -392.58911133 643.74560547 C-390.14196886 643.3126621 -390.14196886 643.3126621 -388.64477539 640.92993164 C-387.37759378 638.1846508 -386.54745453 635.68452501 -385.86035156 632.74365234 C-385.61188477 631.6861377 -385.36341797 630.62862305 -385.10742188 629.5390625 C-383.91465831 624.15311007 -382.76793901 618.75875697 -381.65020752 613.35675049 C-378.93915086 600.27908296 -376.02173338 587.25916382 -372.97753906 574.25537109 C-369.58668316 559.75085917 -366.40179439 545.2105227 -363.35253906 530.63037109 C-363.1568634 529.69791565 -362.96118774 528.76546021 -362.75958252 527.80474854 C-362.20421145 525.15349114 -361.65251508 522.50150237 -361.10253906 519.84912109 C-360.9394223 519.0685434 -360.77630554 518.2879657 -360.60824585 517.48373413 C-359.69516445 513.04537511 -358.94639465 508.62288858 -358.35253906 504.13037109 C-356.86753906 504.62537109 -356.86753906 504.62537109 -355.35253906 505.13037109 C-355.34757384 506.16985382 -355.34757384 506.16985382 -355.34250832 507.23033619 C-355.26134183 524.08042538 -355.16927038 540.93041593 -355.06501198 557.78037739 C-355.01485759 565.92884246 -354.96841505 574.07729733 -354.93066406 582.22583008 C-354.89775679 589.32682732 -354.85793267 596.42774603 -354.80974901 603.52865666 C-354.78447135 607.2896782 -354.76269388 611.05064755 -354.7491951 614.81173134 C-354.73400853 619.00700826 -354.703382 623.20203441 -354.67138672 627.3972168 C-354.66922653 628.64878067 -354.66706635 629.90034454 -354.6648407 631.18983459 C-354.65367722 632.32986938 -354.64251373 633.46990417 -354.63101196 634.64448547 C-354.6254812 635.63725652 -354.61995045 636.63002756 -354.61425209 637.65288258 C-354.51972903 640.38249377 -354.51972903 640.38249377 -352.35253906 643.13037109 C-349.72791663 643.39734997 -347.34187974 643.47870093 -344.71972656 643.42333984 C-343.59197311 643.41697258 -343.59197311 643.41697258 -342.44143677 643.41047668 C-340.03644221 643.3936628 -337.63228097 643.35600734 -335.22753906 643.31787109 C-333.5986449 643.30282768 -331.96973763 643.28913868 -330.34082031 643.27685547 C-326.34440472 643.24375063 -322.34861324 643.19195118 -318.35253906 643.13037109 C-316.46999817 637.55251402 -316.0697851 632.6680738 -316.1053009 626.80487061 C-316.10167928 625.4270006 -316.10167928 625.4270006 -316.09798449 624.02129483 C-316.09236489 620.95439036 -316.10099742 617.88769578 -316.10961914 614.82080078 C-316.10854586 612.61776676 -316.10660648 610.41473302 -316.10386658 608.21170044 C-316.09902367 602.23686952 -316.10666627 596.2621134 -316.11681962 590.28729153 C-316.12560575 584.03733341 -316.12384259 577.78737759 -316.12345886 571.53741455 C-316.12439503 561.04625321 -316.13301991 550.55511609 -316.14672852 540.06396484 C-316.16082845 529.26773555 -316.16789866 518.47153159 -316.16723633 507.67529297 C-316.16719637 507.00974123 -316.16715642 506.3441895 -316.16711525 505.65846953 C-316.16705472 504.66186878 -316.16705472 504.66186878 -316.16699296 503.64513469 C-316.16633838 491.97381975 -316.17148203 480.30251456 -316.17978477 468.6312027 C-316.18332057 463.6599647 -316.18514844 458.68873035 -316.18567848 453.71749115 C-316.18668072 447.87017019 -316.19276756 442.02287596 -316.20284462 436.17556381 C-316.20577272 434.02566822 -316.20699436 431.87576955 -316.20641708 429.72587204 C-316.20592859 426.799865 -316.21156035 423.87393355 -316.21882629 420.94793701 C-316.21650339 419.66084843 -316.21650339 419.66084843 -316.21413356 418.34775805 C-316.22784907 415.02171122 -316.29332696 412.3080074 -317.35253906 409.13037109 C-319.65873004 407.9772756 -321.00471727 407.99204963 -323.57104492 407.96923828 C-324.87766335 407.95482697 -324.87766335 407.95482697 -326.2106781 407.94012451 C-327.15339066 407.93587463 -328.09610321 407.93162476 -329.06738281 407.92724609 C-330.03406387 407.92154602 -331.00074493 407.91584595 -331.99671936 407.90997314 C-334.0436188 407.90051774 -336.09053351 407.89398702 -338.13745117 407.89013672 C-341.27386894 407.88042118 -344.40963429 407.84939876 -347.54589844 407.81787109 C-349.53222266 407.81134217 -351.51855158 407.80609127 -353.50488281 407.80224609 C-354.44557114 407.78989929 -355.38625946 407.77755249 -356.35545349 407.76483154 C-357.2296846 407.76783264 -358.10391571 407.77083374 -359.00463867 407.77392578 C-359.7735997 407.77028015 -360.54256073 407.76663452 -361.33482361 407.76287842 C-363.91148041 408.23217279 -364.76304289 409.08302211 -366.35253906 411.13037109 C-367.37841651 414.10697701 -367.37841651 414.10697701 -368.11425781 417.59521484 C-368.26557159 418.24652374 -368.41688538 418.89783264 -368.57278442 419.56887817 C-369.07254393 421.73291463 -369.55635194 423.90019039 -370.04003906 426.06787109 C-370.39230965 427.60964812 -370.74543456 429.15123017 -371.09936523 430.69262695 C-372.19937444 435.50174274 -373.27720266 440.31568898 -374.35253906 445.13037109 C-374.67696016 446.57733882 -375.00150025 448.02427987 -375.32617188 449.47119141 C-376.94613472 456.69836346 -378.549526 463.92911983 -380.14550781 471.16162109 C-382.4877547 481.77273117 -384.87099212 492.37458364 -387.25457764 502.97647095 C-387.97089384 506.16330702 -388.68651069 509.35029926 -389.40185547 512.53735352 C-393.21898748 529.54345276 -393.21898748 529.54345276 -394.92047119 537.0789032 C-395.629238 540.22055489 -396.33433371 543.36303052 -397.04003906 546.50537109 C-397.28383301 547.57924072 -397.52762695 548.65311035 -397.77880859 549.75952148 C-398.09954346 551.1921936 -398.09954346 551.1921936 -398.42675781 552.65380859 C-398.60811279 553.45737793 -398.78946777 554.26094727 -398.97631836 555.08886719 C-399.4431562 557.27611097 -399.4431562 557.27611097 -399.35253906 560.13037109 C-401.35253906 559.13037109 -401.35253906 559.13037109 -401.97459412 557.28979492 C-402.15015335 556.48050537 -402.32571259 555.67121582 -402.5065918 554.83740234 C-402.71160812 553.91262589 -402.91662445 552.98784943 -403.12785339 552.03504944 C-403.3450856 551.01463058 -403.56231781 549.99421173 -403.78613281 548.94287109 C-404.13657402 547.3469236 -404.13657402 547.3469236 -404.49409485 545.71873474 C-405.26708925 542.1909099 -406.02842678 538.66066907 -406.79003906 535.13037109 C-407.32653832 532.67321675 -407.86398388 530.21626884 -408.40234375 527.75952148 C-409.23225752 523.97151892 -410.06149256 520.18338038 -410.88760376 516.39454651 C-413.34603243 505.12182076 -415.87257386 493.8650949 -418.41506958 482.61108398 C-421.23227008 470.1402164 -424.04089048 457.66865127 -426.71191406 445.16552734 C-426.89622986 444.30414658 -427.08054565 443.44276581 -427.27044678 442.55528259 C-428.12301619 438.5655533 -428.96935644 434.57467265 -429.8046875 430.58129883 C-431.66798373 418.45154409 -431.66798373 418.45154409 -437.35253906 408.13037109 C-439.30982944 407.82541419 -439.30982944 407.82541419 -441.57104492 407.87158203 C-442.87766335 407.86212555 -442.87766335 407.86212555 -444.2106781 407.85247803 C-445.15339066 407.85652649 -446.09610321 407.86057495 -447.06738281 407.86474609 C-448.03406387 407.86283264 -449.00074493 407.86091919 -449.99671936 407.85894775 C-452.04363261 407.85758518 -454.09055447 407.86128667 -456.13745117 407.86962891 C-459.27379772 407.88031575 -462.40956993 407.86974197 -465.54589844 407.85693359 C-467.53222783 407.8582554 -469.51855686 407.86081824 -471.50488281 407.86474609 C-472.9159153 407.8586734 -472.9159153 407.8586734 -474.35545349 407.85247803 C-475.2296846 407.85878235 -476.10391571 407.86508667 -477.00463867 407.87158203 C-477.7735997 407.87317322 -478.54256073 407.8747644 -479.33482361 407.87640381 C-481.66674533 408.01740695 -481.66674533 408.01740695 -484.35253906 410.13037109 Z M-285.35253906 410.13037109 C-285.54845132 413.15940936 -285.61725737 416.09695145 -285.59977722 419.1270752 C-285.60219164 420.07067351 -285.60460605 421.01427182 -285.60709363 421.98646402 C-285.61275733 425.16796567 -285.60404739 428.3492689 -285.59545898 431.53076172 C-285.5965312 433.80364537 -285.59846899 436.07652876 -285.60121155 438.34941101 C-285.60607264 444.53727288 -285.59838847 450.725063 -285.5882585 456.91291618 C-285.57949856 463.37557778 -285.58123505 469.838237 -285.58161926 476.30090332 C-285.58068168 487.15569415 -285.57203885 498.0104531 -285.55834961 508.86523438 C-285.54426153 520.04199733 -285.53717881 531.21873585 -285.5378418 542.39550781 C-285.53788175 543.08384754 -285.53792171 543.77218726 -285.53796288 544.48138577 C-285.53800323 545.16851617 -285.53804359 545.85564657 -285.53808516 546.56359911 C-285.53873957 558.6305541 -285.53359622 570.69749742 -285.52529335 582.76445007 C-285.52175449 587.90956195 -285.51992924 593.05467029 -285.51939964 598.19978333 C-285.51839801 604.25387003 -285.51231611 610.30793087 -285.50223351 616.36200905 C-285.49930281 618.58972325 -285.49808428 620.81744043 -285.49866104 623.04515648 C-285.49914874 626.07468783 -285.49352564 629.10414582 -285.48625183 632.13366699 C-285.48780043 633.02528613 -285.48934904 633.91690526 -285.49094456 634.83554316 C-285.60028003 639.11835768 -285.60028003 639.11835768 -284.35253906 643.13037109 C-279.26223962 643.20441319 -274.17225214 643.25892117 -269.08154297 643.29516602 C-267.34906557 643.310272 -265.61662652 643.33075804 -263.88427734 643.35668945 C-261.39703928 643.3929943 -258.9103058 643.41007875 -256.42285156 643.42333984 C-255.64571808 643.4388237 -254.86858459 643.45430756 -254.06790161 643.47026062 C-251.65518068 643.50606675 -251.65518068 643.50606675 -248.35253906 643.13037109 C-245.69609414 639.14570371 -246.08760315 635.69259027 -246.12548828 631.0690918 C-246.12519623 630.14206451 -246.12490417 629.21503723 -246.12460327 628.25991821 C-246.12599802 625.19190146 -246.14156613 622.12412674 -246.15722656 619.05615234 C-246.16095617 616.93051791 -246.16380339 614.80488176 -246.165802 612.679245 C-246.17344252 607.08144392 -246.19309466 601.48374644 -246.21520996 595.88598633 C-246.23565933 590.17514446 -246.24480178 584.46428588 -246.25488281 578.75341797 C-246.27634013 567.54568281 -246.31152573 556.33805177 -246.35253906 545.13037109 C-233.48253906 545.13037109 -220.61253906 545.13037109 -207.35253906 545.13037109 C-207.31495483 549.53014282 -207.31495483 549.53014282 -207.27661133 554.01879883 C-207.19331343 563.68599124 -207.10460525 573.35312847 -207.01319981 583.02024746 C-206.9579224 588.88416558 -206.90449484 594.74808863 -206.85522461 600.61206055 C-206.80765195 606.26603254 -206.75531199 611.91994176 -206.69959831 617.57383919 C-206.67914249 619.73608916 -206.66043488 621.89835638 -206.64346504 624.06063652 C-206.61949222 627.07800434 -206.58942831 630.09525229 -206.55786133 633.11254883 C-206.55210587 634.01597519 -206.5463504 634.91940155 -206.54042053 635.85020447 C-206.88562771 639.80761233 -206.88562771 639.80761233 -205.35253906 643.13037109 C-202.69797713 643.23132674 -200.0699873 643.27008108 -197.41503906 643.26318359 C-196.22213257 643.26461868 -196.22213257 643.26461868 -195.00512695 643.26608276 C-193.32047446 643.26676452 -191.63581935 643.26491052 -189.95117188 643.26074219 C-187.3635471 643.25539385 -184.7760959 643.26068728 -182.18847656 643.26708984 C-180.55566368 643.26642906 -178.9228509 643.2651479 -177.29003906 643.26318359 C-176.51088135 643.26520782 -175.73172363 643.26723206 -174.92895508 643.26931763 C-171.34459706 643.58876689 -171.34459706 643.58876689 -168.35253906 642.13037109 C-168.25231517 639.13650257 -168.21815828 636.16562465 -168.22555542 633.17126465 C-168.22399543 632.21964809 -168.22243544 631.26803153 -168.22082818 630.28757811 C-168.21681378 627.07305101 -168.22000951 623.85857048 -168.22314453 620.64404297 C-168.22179069 618.34998039 -168.22001085 616.05591803 -168.21783447 613.76185608 C-168.21325815 607.51204208 -168.21505051 601.2622445 -168.21821356 595.01243019 C-168.22073614 588.48790058 -168.21839991 581.96337243 -168.21682739 575.43884277 C-168.21488852 563.77671784 -168.21800638 552.11460043 -168.22308673 540.45247668 C-168.22755478 529.86805365 -168.22677885 519.28364158 -168.22216797 508.69921875 C-168.21682233 496.42229954 -168.2148213 484.14538815 -168.21778023 471.86846781 C-168.21934348 465.36437116 -168.21953548 458.86028208 -168.21624374 452.35618591 C-168.21336626 446.24302349 -168.21533845 440.12988189 -168.221138 434.01672173 C-168.22246626 431.76601127 -168.22207037 429.51529908 -168.21987534 427.26458931 C-168.21716641 424.20619464 -168.22054178 421.14786782 -168.22555542 418.08947754 C-168.2233247 417.18648155 -168.22109398 416.28348556 -168.21879566 415.35312605 C-167.83988843 411.42751331 -167.83988843 411.42751331 -169.35253906 408.13037109 C-172.007101 408.02941545 -174.63509082 407.99066111 -177.29003906 407.99755859 C-178.08531006 407.99660187 -178.88058105 407.99564514 -179.69995117 407.99465942 C-181.38460367 407.99397766 -183.06925877 407.99583167 -184.75390625 408 C-187.34153103 408.00534834 -189.92898222 408.0000549 -192.51660156 407.99365234 C-194.14941445 407.99431313 -195.78222722 407.99559429 -197.41503906 407.99755859 C-198.19419678 407.99553436 -198.97335449 407.99351013 -199.77612305 407.99142456 C-203.36048106 407.6719753 -203.36048106 407.6719753 -206.35253906 409.13037109 C-206.47788894 412.14313221 -206.53865922 415.13406692 -206.55786133 418.14819336 C-206.56776093 419.09443573 -206.57766052 420.0406781 -206.58786011 421.01559448 C-206.61957709 424.15929621 -206.64427267 427.30301307 -206.66894531 430.44677734 C-206.68950604 432.62011621 -206.71050227 434.79345101 -206.73191833 436.96678162 C-206.78723001 442.69933783 -206.83659904 448.43193067 -206.88476562 454.16455078 C-206.93491441 460.00931068 -206.99063496 465.85401709 -207.04589844 471.69873047 C-207.15359121 483.17590012 -207.25449674 494.65311495 -207.35253906 506.13037109 C-220.22253906 506.46037109 -233.09253906 506.79037109 -246.35253906 507.13037109 C-246.32897339 502.73845459 -246.32897339 502.73845459 -246.30493164 498.2578125 C-246.2553056 488.602677 -246.22211808 478.94753599 -246.19710255 469.2923069 C-246.18142159 463.43617656 -246.16013903 457.58017646 -246.1262207 451.72412109 C-246.09371388 446.07666106 -246.07570437 440.42932659 -246.06790733 434.78178024 C-246.06234819 432.62311195 -246.05149314 430.46445081 -246.03534889 428.30583572 C-246.01368999 425.29097691 -246.01056729 422.27664237 -246.01196289 419.26171875 C-246.00117706 418.36188766 -245.99039124 417.46205658 -245.97927856 416.53495789 C-245.95720651 413.80865517 -245.95720651 413.80865517 -246.35253906 410.13037109 C-250.01684987 407.68749722 -252.77606339 407.84098845 -257.01269531 407.86474609 C-257.75837265 407.86283264 -258.50404999 407.86091919 -259.27232361 407.85894775 C-260.84667295 407.85758808 -262.42103359 407.86126936 -263.99536133 407.86962891 C-266.40959727 407.88034693 -268.82309166 407.86971892 -271.23730469 407.85693359 C-272.76660321 407.85825493 -274.29590127 407.86081679 -275.82519531 407.86474609 C-276.54917007 407.86069763 -277.27314484 407.85664917 -278.01905823 407.85247803 C-282.13925352 407.7654862 -282.13925352 407.7654862 -285.35253906 410.13037109 Z M-141.35253906 408.13037109 C-142.84798448 411.12126193 -142.51533205 414.19404296 -142.52050781 417.47412109 C-142.52383621 418.19901733 -142.52716461 418.92391357 -142.53059387 419.67077637 C-142.53565832 421.20401372 -142.53800235 422.7372621 -142.5378418 424.27050781 C-142.54003044 426.62111452 -142.55819657 428.97125358 -142.57714844 431.32177734 C-142.58008198 432.81005698 -142.58206704 434.29833886 -142.58300781 435.78662109 C-142.59019333 436.49185913 -142.59737885 437.19709717 -142.6047821 437.92370605 C-142.70291851 441.97644972 -142.70291851 441.97644972 -140.35253906 445.13037109 C-137.55569109 445.30562164 -134.85925826 445.36180298 -132.06347656 445.32568359 C-131.2450528 445.3228537 -130.42662903 445.3200238 -129.58340454 445.31710815 C-126.96463513 445.30589641 -124.34620542 445.28079038 -121.72753906 445.25537109 C-119.9541065 445.24534256 -118.18066858 445.23621649 -116.40722656 445.22802734 C-112.0555328 445.20595387 -107.70409356 445.17141754 -103.35253906 445.13037109 C-103.35392175 446.44231068 -103.35392175 446.44231068 -103.35533237 447.78075409 C-103.37752167 469.16957618 -103.3940155 490.55839626 -103.40435123 511.94722748 C-103.40948375 522.29115719 -103.41646765 532.63507916 -103.42797852 542.97900391 C-103.43801919 552.00617367 -103.44441456 561.03333783 -103.44662756 570.06051302 C-103.44791891 574.82993547 -103.45090288 579.5993419 -103.45826912 584.36875916 C-103.48743237 603.98259633 -103.45402391 623.54016144 -102.35253906 643.13037109 C-97.26219574 643.17771187 -92.17205051 643.2160721 -87.08154297 643.24023438 C-85.34909642 643.25030485 -83.61666691 643.26396199 -81.88427734 643.28125 C-79.39709268 643.30545271 -76.91013231 643.31684348 -74.42285156 643.32568359 C-73.25715134 643.34116745 -73.25715134 643.34116745 -72.06790161 643.35696411 C-70.16128413 643.3573638 -68.2552287 643.25269249 -66.35253906 643.13037109 C-63.85349039 640.63132242 -64.11414665 639.15172372 -64.09437644 635.74227798 C-64.10020213 634.9854778 -64.10602781 634.22867761 -64.11203003 633.44894409 C-64.10946675 632.24581642 -64.10946675 632.24581642 -64.1068517 631.01838315 C-64.10354295 628.31587706 -64.11458314 625.61361624 -64.12548828 622.91113281 C-64.1260521 620.97982794 -64.12573642 619.04852264 -64.12460327 617.11721802 C-64.1240276 611.86126847 -64.13581653 606.60540953 -64.14975119 601.34948111 C-64.16222289 595.86150155 -64.16342623 590.3735201 -64.165802 584.88552856 C-64.17202727 574.48744706 -64.1884522 564.08940742 -64.20850098 553.69134438 C-64.23082748 541.85597885 -64.24184522 530.02061135 -64.25189185 518.18523002 C-64.27281755 493.83358713 -64.3080138 469.48198145 -64.35253906 445.13037109 C-63.27770264 445.14084473 -62.20286621 445.15131836 -61.09545898 445.16210938 C-57.10916472 445.19829888 -53.12288498 445.22126773 -49.13647461 445.24023438 C-47.41086383 445.25029435 -45.68527011 445.26394385 -43.9597168 445.28125 C-41.47993766 445.30549863 -39.00038384 445.31685411 -36.52050781 445.32568359 C-35.74853561 445.33600616 -34.97656342 445.34632874 -34.18119812 445.35696411 C-30.3597243 445.35776531 -28.61117799 445.30279705 -25.35253906 443.13037109 C-25.06037037 440.59990286 -24.95620766 438.31744229 -24.98925781 435.78662109 C-24.98875931 435.06172485 -24.9882608 434.33682861 -24.98774719 433.58996582 C-24.99008865 432.05669413 -24.99982151 430.52341868 -25.01635742 428.99023438 C-25.03994783 426.63946265 -25.03691985 424.2898248 -25.03027344 421.93896484 C-25.03585021 420.45067681 -25.04296009 418.96239357 -25.05175781 417.47412109 C-25.05084641 416.76888306 -25.049935 416.06364502 -25.04899597 415.33703613 C-24.99734245 411.28446232 -24.99734245 411.28446232 -27.35253906 408.13037109 C-29.45935196 407.83245436 -29.45935196 407.83245436 -31.92092896 407.88986206 C-32.88289185 407.88711273 -33.84485474 407.8843634 -34.83596802 407.88153076 C-35.89476166 407.88872131 -36.9535553 407.89591187 -38.04443359 407.90332031 C-39.15663269 407.90302826 -40.26883179 407.90273621 -41.41473389 407.9024353 C-45.1050181 407.90383291 -48.79510246 407.91941448 -52.48535156 407.93505859 C-55.03840016 407.93878719 -57.59145019 407.94163488 -60.14450073 407.94363403 C-66.18643845 407.95050006 -72.22828988 407.96627614 -78.27019298 407.98633301 C-85.14797016 408.00867017 -92.02575075 408.01967994 -98.90355515 408.02972388 C-113.05325646 408.05064181 -127.20289382 408.08583141 -141.35253906 408.13037109 Z M96.64746094 421.13037109 C91.5654078 429.01720292 89.39908487 437.27840587 89.39349365 446.60632324 C89.39037367 447.31396867 89.38725369 448.0216141 89.38403916 448.75070333 C89.3761261 451.09804968 89.38235636 453.44513267 89.38867188 455.79248047 C89.38595903 457.48509369 89.38239646 459.17770573 89.37805176 460.87031555 C89.36896038 465.45084103 89.37245858 470.03127607 89.37880993 474.61180305 C89.38388677 479.41401532 89.3791738 484.21622004 89.3760376 489.01843262 C89.37240286 497.08163843 89.37718413 505.14480757 89.38671875 513.20800781 C89.39760234 522.51931177 89.39407642 531.83052813 89.38306594 541.14182997 C89.37397904 549.14800244 89.37271465 557.15414861 89.37794328 565.16032457 C89.38105526 569.93695034 89.38149356 574.71353498 89.3748703 579.49015808 C89.36907706 583.98161592 89.37312989 588.47296123 89.38465881 592.96440697 C89.38729483 594.60908509 89.38655846 596.25377275 89.38213348 597.89844704 C89.37663456 600.15056392 89.38356426 602.4023245 89.39349365 604.65441895 C89.3942477 605.91241554 89.39500175 607.17041214 89.39577866 608.46652985 C90.06001642 618.13610885 93.70183283 627.95082738 101.02246094 634.56787109 C104.60757024 637.31408065 108.47583062 639.41493433 112.64746094 641.13037109 C113.42001221 641.47116699 114.19256348 641.81196289 114.98852539 642.16308594 C120.40469958 643.594919 125.70014813 643.45576755 131.28027344 643.46630859 C132.50849823 643.47296539 133.73672302 643.47962219 135.00216675 643.48648071 C137.59941108 643.49659329 140.19668132 643.50129817 142.79394531 643.50097656 C146.73774934 643.50533275 150.68041847 643.54162315 154.62402344 643.57958984 C157.15526964 643.58546187 159.68652112 643.58942868 162.21777344 643.59130859 C163.96684494 643.61286514 163.96684494 643.61286514 165.75125122 643.63485718 C176.95342217 643.57336264 187.40705899 641.09362948 195.64746094 633.13037109 C205.43233569 622.77660828 206.79540662 609.84163243 206.81542969 596.22802734 C206.81875809 595.42425156 206.82208649 594.62047577 206.82551575 593.79234314 C206.83053416 592.11262579 206.83292567 590.43289866 206.83276367 588.75317383 C206.8349763 586.17496851 206.8532554 583.59717431 206.87207031 581.01904297 C206.87500006 579.38037255 206.87698765 577.74170011 206.87792969 576.10302734 C206.88870796 574.94686668 206.88870796 574.94686668 206.89970398 573.76734924 C207.03842192 569.48630735 207.03842192 569.48630735 204.64746094 566.13037109 C202.16179551 565.93088553 199.78995344 565.85047367 197.30371094 565.86474609 C196.21636658 565.86187592 196.21636658 565.86187592 195.10705566 565.85894775 C193.57380832 565.85758622 192.04054944 565.86128045 190.50732422 565.86962891 C188.15663835 565.88032932 185.80671671 565.86973301 183.45605469 565.85693359 C181.96777175 565.85825519 180.47948928 565.8608176 178.99121094 565.86474609 C178.2859729 565.86069763 177.58073486 565.85664917 176.85412598 565.85247803 C172.80144407 565.77759713 172.80144407 565.77759713 169.64746094 568.13037109 C169.32424573 571.04280218 169.32424573 571.04280218 169.33886719 574.45849609 C169.31373047 575.73337891 169.28859375 577.00826172 169.26269531 578.32177734 C169.2340574 580.34699211 169.21003773 582.37213151 169.19116211 584.39746094 C169.16935307 586.35548145 169.12928346 588.31327127 169.08886719 590.27099609 C169.0754126 591.44178711 169.06195801 592.61257813 169.0480957 593.81884766 C168.59486287 597.56513053 167.6755888 599.95551013 165.64746094 603.13037109 C160.9633748 606.62347063 154.2661587 605.45799411 148.70996094 605.44287109 C147.52982422 605.45898438 146.3496875 605.47509766 145.13378906 605.49169922 C143.42545898 605.49266602 143.42545898 605.49266602 141.68261719 605.49365234 C140.64500244 605.4966333 139.6073877 605.49961426 138.53833008 605.50268555 C135.06580579 605.05545984 133.32061218 604.40749993 130.64746094 602.13037109 C127.96948624 595.51003152 128.36608964 588.73527975 128.38867188 581.68701172 C128.38595852 580.32789422 128.38239566 578.96877819 128.37805176 577.60966492 C128.3689664 573.93406985 128.37245603 570.25858758 128.37880993 566.58299065 C128.38388993 562.72789084 128.37917293 558.8728004 128.3760376 555.0177002 C128.37240377 548.5449857 128.37718172 542.07231692 128.38671875 535.59960938 C128.39760219 528.12703554 128.3940762 520.65457087 128.38306594 513.18199968 C128.37397642 506.75461664 128.37271592 500.32726637 128.37794328 493.89987898 C128.38105383 490.06615378 128.38149754 486.2324798 128.3748703 482.39875793 C128.3690732 478.79374418 128.37313677 475.18887053 128.38465881 471.58387184 C128.38854462 469.63747472 128.38263993 467.69106569 128.37640381 465.74467468 C128.43010824 454.61198668 128.43010824 454.61198668 130.64746094 449.13037109 C134.19158044 446.11130633 137.11521174 445.75396817 141.68261719 445.76708984 C143.39094727 445.76805664 143.39094727 445.76805664 145.13378906 445.76904297 C146.90399414 445.79321289 146.90399414 445.79321289 148.70996094 445.81787109 C149.89396484 445.81464844 151.07796875 445.81142578 152.29785156 445.80810547 C162.61967106 445.87243409 162.61967106 445.87243409 165.64746094 448.13037109 C168.40824083 452.45765653 169.03799512 455.90778083 169.12402344 460.98974609 C169.15496094 462.26978516 169.18589844 463.54982422 169.21777344 464.86865234 C169.2367598 466.20588139 169.25498055 467.54312151 169.27246094 468.88037109 C169.32053348 471.52119848 169.37778335 474.16161238 169.43652344 476.80224609 C169.45408691 477.96852539 169.47165039 479.13480469 169.48974609 480.33642578 C169.45988481 483.08529692 169.45988481 483.08529692 170.64746094 485.13037109 C182.19746094 485.13037109 193.74746094 485.13037109 205.64746094 485.13037109 C207.14058594 482.14412109 206.81028345 479.08123417 206.81542969 475.80615234 C206.81875809 475.06769577 206.82208649 474.3292392 206.82551575 473.56840515 C206.83058887 471.99556093 206.83292395 470.42270591 206.83276367 468.84985352 C206.83491134 466.49720072 206.85295182 464.14504773 206.87207031 461.79248047 C207.03399543 438.86060187 207.03399543 438.86060187 196.75683594 418.97412109 C186.26976948 409.23023257 174.05528636 407.80774724 160.20605469 407.86474609 C159.15772964 407.86283264 158.1094046 407.86091919 157.02931213 407.85894775 C154.83016721 407.85759663 152.63101402 407.86121738 150.43188477 407.86962891 C147.09014788 407.88035445 143.74894715 407.86969106 140.40722656 407.85693359 C138.25683477 407.85825517 136.1064433 407.86081752 133.95605469 407.86474609 C132.97035995 407.86069763 131.98466522 407.85664917 130.96910095 407.85247803 C117.55031938 407.94202096 105.85149305 410.78322579 96.64746094 421.13037109 Z M238.64746094 409.13037109 C238.54723704 412.12423961 238.51308016 415.09511753 238.52047729 418.08947754 C238.5189173 419.0410941 238.51735731 419.99271066 238.51575005 420.97316408 C238.51173565 424.18769117 238.51493139 427.40217171 238.51806641 430.61669922 C238.51671256 432.9107618 238.51493272 435.20482416 238.51275635 437.49888611 C238.50818003 443.74870011 238.50997239 449.99849769 238.51313543 456.248312 C238.51565801 462.7728416 238.51332178 469.29736975 238.51174927 475.82189941 C238.50981039 487.48402435 238.51292825 499.14614176 238.5180086 510.80826551 C238.52247665 521.39268854 238.52170072 531.9771006 238.51708984 542.56152344 C238.51174421 554.83844264 238.50974317 567.11535404 238.51270211 579.39227438 C238.51426535 585.89637103 238.51445736 592.40046011 238.51116562 598.90455627 C238.50828814 605.0177187 238.51026032 611.1308603 238.51605988 617.24402046 C238.51738814 619.49473091 238.51699225 621.7454431 238.51479721 623.99615288 C238.51208829 627.05454755 238.51546366 630.11287437 238.52047729 633.17126465 C238.51824657 634.07426064 238.51601585 634.97725663 238.51371753 635.90761614 C238.1348103 639.83322888 238.1348103 639.83322888 239.64746094 643.13037109 C241.12529895 643.22821884 242.60779362 643.25668875 244.08886719 643.25735474 C245.04801025 643.26017456 246.00715332 643.26299438 246.99536133 643.26589966 C248.0561792 643.26387543 249.11699707 643.2618512 250.20996094 643.25976562 C251.8756311 643.2623941 251.8756311 643.2623941 253.57495117 643.26507568 C257.2658034 643.26949682 260.95660817 643.26655528 264.64746094 643.26318359 C267.19954437 643.26385656 269.75162773 643.26482652 272.30371094 643.26608276 C277.66048856 643.26756009 283.01724899 643.26549865 288.37402344 643.26074219 C294.57529809 643.2552996 300.77653987 643.25706227 306.97781372 643.26256859 C312.93280309 643.26764546 318.88778221 643.26711816 324.84277344 643.26418686 C327.38183598 643.26351733 329.92089936 643.26434691 332.45996094 643.26666641 C336.00165058 643.2691914 339.5432761 643.26535451 343.08496094 643.25976562 C344.14577881 643.26178986 345.20659668 643.26381409 346.29956055 643.26589966 C347.25870361 643.26307983 348.21784668 643.26026001 349.20605469 643.25735474 C350.04450928 643.25697771 350.88296387 643.25660069 351.74682617 643.25621223 C353.65816587 643.33928171 353.65816587 643.33928171 354.64746094 642.13037109 C354.73597623 639.53677788 354.76272039 636.96997418 354.74511719 634.37646484 C354.74370224 633.60101822 354.74228729 632.82557159 354.74082947 632.02662659 C354.73521439 629.54033615 354.7226594 627.05413449 354.70996094 624.56787109 C354.70494788 622.88623177 354.70038463 621.20459103 354.69628906 619.52294922 C354.68524007 615.39205543 354.66796538 611.26122833 354.64746094 607.13037109 C351.69372024 605.65350075 348.68437834 605.9515615 345.44384766 605.92504883 C344.70228424 605.91514923 343.96072083 605.90524963 343.19668579 605.89505005 C340.74020606 605.86340746 338.28370697 605.83866678 335.82714844 605.81396484 C334.12606294 605.79339769 332.42498258 605.77240129 330.72390747 605.75099182 C326.24245358 605.69574645 321.76095338 605.64634807 317.27941895 605.59814453 C311.90458602 605.53912489 306.52983789 605.47288338 301.15507507 605.40784454 C292.98592207 605.309804 284.81671516 605.22096924 276.64746094 605.13037109 C276.64746094 585.33037109 276.64746094 565.53037109 276.64746094 545.13037109 C306.02246094 544.75537109 306.02246094 544.75537109 315.30126953 544.65234375 C317.71615732 544.61715327 320.13103464 544.58123376 322.54589844 544.54443359 C323.80958252 544.53307373 325.0732666 544.52171387 326.37524414 544.51000977 C327.57286377 544.48994873 328.7704834 544.4698877 330.00439453 544.44921875 C331.04808197 544.43589508 332.09176941 544.42257141 333.16708374 544.40884399 C335.82177056 544.37192851 335.82177056 544.37192851 337.64746094 542.13037109 C337.8469465 539.64470566 337.92735836 537.2728636 337.91308594 534.78662109 C337.91499939 534.06172485 337.91691284 533.33682861 337.91888428 532.58996582 C337.92024581 531.05671848 337.91655158 529.5234596 337.90820312 527.99023438 C337.89750271 525.6395485 337.90809902 523.28962687 337.92089844 520.93896484 C337.91957684 519.4506819 337.91701443 517.96239944 337.91308594 516.47412109 C337.9171344 515.76888306 337.92118286 515.06364502 337.925354 514.33703613 C338.0002349 510.28435422 338.0002349 510.28435422 335.64746094 507.13037109 C333.05917666 506.79839361 333.05917666 506.79839361 330.00439453 506.81152344 C328.8067749 506.7914624 327.60915527 506.77140137 326.37524414 506.75073242 C325.11156006 506.73937256 323.84787598 506.7280127 322.54589844 506.71630859 C321.38807861 506.69866455 320.23025879 506.68102051 319.03735352 506.6628418 C314.69919904 506.59962488 310.36080857 506.55354198 306.02246094 506.50537109 C296.32871094 506.38162109 286.63496094 506.25787109 276.64746094 506.13037109 C276.64746094 486.33037109 276.64746094 466.53037109 276.64746094 446.13037109 C282.19429687 446.06978516 287.74113281 446.00919922 293.45605469 445.94677734 C296.96062015 445.90630399 300.46517743 445.86554152 303.96972656 445.82373047 C309.53781424 445.75732812 315.10590023 445.69202293 320.67407227 445.63305664 C325.1609621 445.58547424 329.64777306 445.53313393 334.13456917 445.47743034 C335.85024119 445.45697894 337.56593487 445.43827056 339.28164482 445.42129707 C341.67636862 445.39731444 344.07094196 445.36725197 346.46557617 445.33569336 C347.18198776 445.3299379 347.89839935 445.32418243 348.63652039 445.31825256 C351.92503042 445.54798934 351.92503042 445.54798934 354.64746094 444.13037109 C354.74837569 441.54847663 354.78717592 438.99390609 354.78027344 436.41162109 C354.78170853 435.25200867 354.78170853 435.25200867 354.78317261 434.06896973 C354.78385434 432.43139566 354.78200051 430.7938189 354.77783203 429.15625 C354.77248365 426.64105189 354.7777772 424.12603236 354.78417969 421.61083984 C354.7835189 420.02359986 354.78223774 418.43636 354.78027344 416.84912109 C354.78330978 415.71319519 354.78330978 415.71319519 354.78640747 414.55432129 C355.09199777 411.05021546 355.09199777 411.05021546 353.64746094 408.13037109 C352.16962293 408.03252335 350.68712826 408.00405344 349.20605469 408.00338745 C348.24691162 408.00056763 347.28776855 407.9977478 346.29956055 407.99484253 C345.23874268 407.99686676 344.1779248 407.99889099 343.08496094 408.00097656 C341.97451416 407.99922424 340.86406738 407.99747192 339.7199707 407.9956665 C336.02911847 407.99124537 332.3383137 407.9941869 328.64746094 407.99755859 C326.09537751 407.99688563 323.54329414 407.99591567 320.99121094 407.99465942 C315.63443331 407.9931821 310.27767289 407.99524354 304.92089844 408 C298.71962379 408.00544259 292.51838201 408.00367992 286.31710815 407.99817359 C280.36211878 407.99309673 274.40713967 407.99362403 268.45214844 407.99655533 C265.91308589 407.99722486 263.37402251 407.99639527 260.83496094 407.99407578 C257.2932713 407.99155079 253.75164577 407.99538767 250.20996094 408.00097656 C249.14914307 407.99895233 248.0883252 407.9969281 246.99536133 407.99484253 C245.55664673 407.99907227 245.55664673 407.99907227 244.08886719 408.00338745 C243.2504126 408.00376448 242.41195801 408.0041415 241.5480957 408.00452995 C239.636756 407.92146048 239.636756 407.92146048 238.64746094 409.13037109 Z M382.64746094 408.13037109 C379.39781546 413.00483931 380.31445342 418.73181527 380.33178711 424.43652344 C380.3349499 426.62273878 380.31147188 428.80760401 380.28613281 430.99365234 C380.28386 432.38297355 380.28315624 433.7722984 380.28417969 435.16162109 C380.28119873 436.42554688 380.27821777 437.68947266 380.27514648 438.99169922 C380.41371532 442.0037445 380.41371532 442.0037445 381.66023254 443.80822754 C384.81265796 445.90560042 388.15979772 445.49666279 391.81542969 445.42333984 C393.00764885 445.41697258 393.00764885 445.41697258 394.22395325 445.41047668 C396.76130115 445.3936904 399.29785332 445.35603933 401.83496094 445.31787109 C403.55565259 445.30282414 405.27635669 445.28913575 406.99707031 445.27685547 C411.21417356 445.24378717 415.43068236 445.19200604 419.64746094 445.13037109 C419.64653914 446.13258351 419.64561735 447.13479593 419.64466763 448.16737843 C419.62249026 472.52807109 419.60604573 496.88876246 419.59564877 521.24946308 C419.59048753 533.03000052 419.58344809 544.81053129 419.57202148 556.59106445 C419.56206941 566.85626946 419.55560625 577.12146965 419.55337244 587.38667935 C419.55206623 592.82445096 419.54898599 598.26220877 419.54173088 603.69997597 C419.53496243 608.81424466 419.53284567 613.92849382 419.53435326 619.04276657 C419.5340773 620.9233619 419.53207706 622.80395786 419.52825546 624.68454933 C419.52330537 627.24527499 419.52446757 629.80592618 419.52720642 632.36665344 C419.52283716 633.49164803 419.52283716 633.49164803 419.51837963 634.63936979 C419.52740945 637.74705685 419.65665127 640.15794209 420.64746094 643.13037109 C432.85746094 643.13037109 445.06746094 643.13037109 457.64746094 643.13037109 C459.18599976 640.05329345 458.78070936 636.82495736 458.76771545 633.44894409 C458.76856988 632.64685898 458.7694243 631.84477387 458.77030462 631.01838315 C458.77195895 628.31594404 458.7664388 625.61356625 458.76098633 622.91113281 C458.76070442 620.9798279 458.76086226 619.04852287 458.76142883 617.11721802 C458.76171667 611.8612964 458.75582219 606.60539744 458.74885488 601.34948111 C458.74261902 595.86149808 458.74201735 590.37351458 458.74082947 584.88552856 C458.73771684 574.48746214 458.72950437 564.08940619 458.71947998 553.69134438 C458.70831672 541.85597441 458.70280785 530.02060394 458.69778454 518.18523002 C458.6873217 493.83360456 458.66972358 469.48198841 458.64746094 445.13037109 C459.75782715 445.14084473 460.86819336 445.15131836 462.01220703 445.16210938 C466.12333973 445.19825058 470.23445832 445.22125005 474.34570312 445.24023438 C476.12665161 445.25030541 477.90758351 445.26396294 479.68847656 445.28125 C482.24515877 445.30545022 484.80162279 445.31684293 487.35839844 445.32568359 C488.1574057 445.33600616 488.95641296 445.34632874 489.77963257 445.35696411 C491.73703313 445.35736336 493.6938917 445.25278178 495.64746094 445.13037109 C498.10748881 442.67034322 497.89298098 441.28243271 497.925354 437.92370605 C497.92130554 437.21846802 497.91725708 436.51322998 497.91308594 435.78662109 C497.91499939 435.06172485 497.91691284 434.33682861 497.91888428 433.58996582 C497.92024581 432.05671848 497.91655158 430.5234596 497.90820312 428.99023438 C497.89750271 426.6395485 497.90809902 424.28962687 497.92089844 421.93896484 C497.91957684 420.4506819 497.91701443 418.96239944 497.91308594 417.47412109 C497.9171344 416.76888306 497.92118286 416.06364502 497.925354 415.33703613 C498.0002349 411.28435422 498.0002349 411.28435422 495.64746094 408.13037109 C493.56379374 407.82402865 493.56379374 407.82402865 491.13049316 407.86967468 C489.70450554 407.85904747 489.70450554 407.85904747 488.24971008 407.84820557 C487.20340927 407.85068298 486.15710846 407.8531604 485.07910156 407.85571289 C483.97986862 407.85060196 482.88063568 407.84549103 481.74809265 407.84022522 C478.09991066 407.82627897 474.45191648 407.82728964 470.80371094 407.82958984 C468.277872 407.82570597 465.75203371 407.82137195 463.22619629 407.81660461 C457.92665218 407.80913176 452.62717758 407.80930409 447.32763672 407.81469727 C441.19615145 407.82074097 435.06489542 407.80841792 428.93344927 407.7871272 C423.04092244 407.76741617 417.14846696 407.76433389 411.25590515 407.76786232 C408.74557456 407.76734723 406.23524044 407.76207453 403.72492981 407.7520504 C400.22171113 407.73977817 396.71902974 407.74642212 393.21582031 407.75805664 C391.64636909 407.74659103 391.64636909 407.74659103 390.04521179 407.7348938 C388.61922417 407.74541527 388.61922417 407.74541527 387.16442871 407.75614929 C386.33556908 407.75598155 385.50670944 407.75581381 384.65273285 407.75564098 C383.99099312 407.87930192 383.32925339 408.00296286 382.64746094 408.13037109 Z M0.64746094 521.13037109 C0.3347812 524.38591775 0.3347812 524.38591775 0.38183594 528.22021484 C0.37992249 528.92054337 0.37800903 529.62087189 0.3760376 530.34242249 C0.37467601 531.82439533 0.37837064 533.30638012 0.38671875 534.78833008 C0.39740317 537.05561194 0.38683141 539.32209858 0.37402344 541.58935547 C0.37534535 543.02881034 0.37790841 544.46826472 0.38183594 545.90771484 C0.3840918 547.2198999 0.38634766 548.53208496 0.38867188 549.8840332 C0.39413739 553.27778174 0.39413739 553.27778174 2.64746094 556.13037109 C4.92408067 556.5821339 4.92408067 556.5821339 7.6003418 556.50268555 C8.63158676 556.50891434 9.66283173 556.51514313 10.72532654 556.52156067 C11.84302933 556.51235092 12.96073212 556.50314117 14.11230469 556.49365234 C15.25655411 556.49415085 16.40080353 556.49464935 17.57972717 556.49516296 C20.00328301 556.49281903 22.42684112 556.48307186 24.8503418 556.46655273 C28.56613892 556.44299045 32.28121765 556.44598587 35.99707031 556.45263672 C38.34798606 556.44705926 40.69889878 556.43994895 43.04980469 556.43115234 C44.16548325 556.43206375 45.2811618 556.43297516 46.4306488 556.43391418 C47.98224449 556.41961617 47.98224449 556.41961617 49.56518555 556.4050293 C50.47626572 556.40042191 51.38734589 556.39581451 52.32603455 556.3910675 C54.92068489 556.27927368 54.92068489 556.27927368 57.64746094 554.13037109 C58.11612555 550.87985355 58.11612555 550.87985355 58.04589844 547.04052734 C58.0502037 545.99003456 58.0502037 545.99003456 58.05459595 544.9183197 C58.05663833 543.43634229 58.05109618 541.95433803 58.03857422 540.47241211 C58.02254518 538.20478867 58.0384026 535.93895395 58.05761719 533.67138672 C58.05563431 532.23192966 58.05178972 530.79247371 58.04589844 529.35302734 C58.04251465 528.04084229 58.03913086 526.72865723 58.03564453 525.37670898 C57.92445964 522.23067666 57.92445964 522.23067666 56.44084167 520.45074463 C54.04367378 518.68583382 52.52778853 518.75600991 49.56518555 518.75805664 C48.53078842 518.75182785 47.4963913 518.74559906 46.4306488 518.73918152 C44.75713097 518.75299614 44.75713097 518.75299614 43.04980469 518.76708984 C41.90459854 518.76659134 40.7593924 518.76609283 39.57948303 518.76557922 C37.15770737 518.76792078 34.73592933 518.77765401 32.31420898 518.79418945 C28.59629696 518.81779911 24.87910081 518.81474865 21.16113281 518.80810547 C18.81151914 518.81368141 16.4619085 518.82079076 14.11230469 518.82958984 C12.4357505 518.82822273 12.4357505 518.82822273 10.72532654 518.826828 C9.69408157 518.83636002 8.66283661 518.84589203 7.6003418 518.85571289 C6.23491493 518.86262398 6.23491493 518.86262398 4.84190369 518.86967468 C2.43978421 518.92554607 2.43978421 518.92554607 0.64746094 521.13037109 Z " fill="#030303" transform="translate(535.3525390625,-0.13037109375)"/>
<path d="M0 0 C14.97686306 -0.02332977 29.95372472 -0.04097956 44.93060207 -0.05181217 C51.88416081 -0.05697496 58.83770827 -0.06401734 65.79125977 -0.07543945 C72.49557209 -0.08644694 79.19987025 -0.09227621 85.90419197 -0.09487724 C88.46837613 -0.09673202 91.03255962 -0.10035364 93.59673882 -0.10573006 C97.17445158 -0.11293659 100.75211519 -0.11399111 104.32983398 -0.11352539 C105.40157364 -0.11712067 106.47331329 -0.12071594 107.57752991 -0.12442017 C108.54653229 -0.1230455 109.51553467 -0.12167084 110.51390076 -0.12025452 C111.36102851 -0.12117631 112.20815626 -0.1220981 113.08095455 -0.12304783 C115 0 115 0 116 1 C116.10099488 3.72724279 116.13970529 6.42862523 116.1328125 9.15625 C116.13376923 9.97371704 116.13472595 10.79118408 116.13571167 11.63342285 C116.13639345 13.36515378 116.13453929 15.09688724 116.13037109 16.82861328 C116.12502279 19.48866482 116.13031612 22.1485475 116.13671875 24.80859375 C116.13605797 26.48697954 116.1347768 28.16536523 116.1328125 29.84375 C116.13483673 30.64478149 116.13686096 31.44581299 116.13894653 32.27111816 C116.11495079 37.88504921 116.11495079 37.88504921 115 39 C112.59651714 39.09496708 110.22189018 39.12558862 107.81811523 39.11352539 C106.6913588 39.11374443 106.6913588 39.11374443 105.5418396 39.1139679 C103.04739541 39.11326863 100.55302497 39.10547564 98.05859375 39.09765625 C96.33366436 39.09579212 94.60873443 39.09436819 92.88380432 39.09336853 C88.33487497 39.08954297 83.78597733 39.07971238 79.23706055 39.06866455 C73.78388372 39.05665681 68.33069632 39.05204837 62.87751007 39.04621124 C54.58498462 39.03650063 46.29252884 39.01734435 38 39 C38 58.47 38 77.94 38 98 C56.5787442 97.88130647 56.5787442 97.88130647 75.15722656 97.72973633 C77.48502186 97.72097513 79.81282174 97.71333033 82.140625 97.70703125 C83.95602783 97.6840094 83.95602783 97.6840094 85.80810547 97.66052246 C87.54326416 97.65997864 87.54326416 97.65997864 89.31347656 97.65942383 C90.31719299 97.65276199 91.32090942 97.64610016 92.3550415 97.63923645 C95.44997149 98.06137462 96.81408759 98.78685816 99 101 C99.40585601 103.74910012 99.56130858 106.094063 99.53125 108.84375 C99.53699036 109.99200256 99.53699036 109.99200256 99.54284668 111.16345215 C99.54556667 112.78069373 99.53819918 114.39797923 99.52148438 116.01513672 C99.500073 118.49155693 99.52127986 120.96507634 99.546875 123.44140625 C99.54423174 125.01302724 99.53910678 126.58464643 99.53125 128.15625 C99.53934692 128.89693726 99.54744385 129.63762451 99.55578613 130.40075684 C99.46212967 135.53211368 99.46212967 135.53211368 97.32305908 137.6978302 C94.44663061 139.31018622 92.60243981 139.36240557 89.31347656 139.34057617 C88.1567041 139.34021362 86.99993164 139.33985107 85.80810547 139.33947754 C84.59783691 139.32412964 83.38756836 139.30878174 82.140625 139.29296875 C81.02413574 139.28994751 79.90764648 139.28692627 78.75732422 139.28381348 C74.58812207 139.26812171 70.41905172 139.22623776 66.25 139.1875 C56.9275 139.125625 47.605 139.06375 38 139 C38 158.47 38 177.94 38 198 C63.08 198 88.16 198 114 198 C114.33 198.66 114.66 199.32 115 200 C104.8472643 199.89266435 94.69460213 199.78006526 84.54200077 199.66066074 C79.82823641 199.60538952 75.1144659 199.55196295 70.40063477 199.50268555 C65.85539096 199.45510376 61.31022504 199.40276346 56.76507378 199.34705925 C55.02707281 199.32660757 53.28905046 199.30789924 51.55101204 199.29092598 C49.12515623 199.26694396 46.69944899 199.2368814 44.27368164 199.20532227 C43.54791931 199.1995668 42.82215698 199.19381134 42.07440186 199.18788147 C37.11405216 199.11405216 37.11405216 199.11405216 36 198 C35.9008944 196.13364212 35.87200739 194.26351806 35.87060547 192.39453125 C35.86745331 191.19658936 35.86430115 189.99864746 35.86105347 188.7644043 C35.8630777 187.46027588 35.86510193 186.15614746 35.8671875 184.8125 C35.8665144 183.47110985 35.86554432 182.12971981 35.86428833 180.78833008 C35.86281164 177.97378379 35.86496496 175.15926918 35.86962891 172.34472656 C35.87532619 168.72959369 35.87204703 165.11453505 35.86605644 161.49940491 C35.86245003 158.72855058 35.86358978 155.95771398 35.86618423 153.18685913 C35.86717967 151.20310417 35.86413259 149.21934853 35.86105347 147.2355957 C35.86578171 145.43868286 35.86578171 145.43868286 35.87060547 143.60546875 C35.87140106 142.54481201 35.87219666 141.48415527 35.87301636 140.39135742 C36 138 36 138 37 137 C38.8351771 136.88186862 40.67482929 136.83263657 42.51367188 136.81054688 C44.28055359 136.78547058 44.28055359 136.78547058 46.08312988 136.7598877 C48.00651184 136.73952454 48.00651184 136.73952454 49.96875 136.71875 C51.96332707 136.69062963 53.95790408 136.66250397 55.9524765 136.63405609 C60.18140419 136.57534819 64.41044514 136.52545402 68.63946533 136.47393799 C72.11780391 136.43122906 75.59609325 136.38664514 79.07434082 136.33703613 C81.6884571 136.30018125 84.30264056 136.26778958 86.91687012 136.2401123 C88.68375183 136.21503601 88.68375183 136.21503601 90.48632812 136.18945312 C91.52921997 136.17692505 92.57211182 136.16439697 93.64660645 136.15148926 C95.95729134 136.26278316 95.95729134 136.26278316 97 135 C97.10082764 132.56339554 97.13972603 130.15575299 97.1328125 127.71875 C97.13424759 126.62572571 97.13424759 126.62572571 97.13571167 125.51062012 C97.13639335 123.9672029 97.13453988 122.42378283 97.13037109 120.88037109 C97.12502262 118.510026 97.13031642 116.13987041 97.13671875 113.76953125 C97.13605797 112.27343708 97.1347768 110.77734303 97.1328125 109.28125 C97.13584885 108.21094543 97.13584885 108.21094543 97.13894653 107.11901855 C97.41648651 103.77513571 97.41648651 103.77513571 96 101 C94.1648229 100.88186862 92.32517071 100.83263657 90.48632812 100.81054688 C89.30840698 100.79382935 88.13048584 100.77711182 86.91687012 100.7598877 C85.63461548 100.74631226 84.35236084 100.73273682 83.03125 100.71875 C81.03667293 100.69062963 79.04209592 100.66250397 77.0475235 100.63405609 C73.53173377 100.58524829 70.01586682 100.54282872 66.5 100.5 C62.30850259 100.44894105 58.11704246 100.39681634 53.92565918 100.33703613 C51.3115429 100.30018125 48.69735944 100.26778958 46.08312988 100.2401123 C44.90520874 100.22339478 43.7272876 100.20667725 42.51367188 100.18945312 C40.94933411 100.17066101 40.94933411 100.17066101 39.35339355 100.15148926 C37 100 37 100 36 99 C35.9008944 97.13364212 35.87200739 95.26351806 35.87060547 93.39453125 C35.86745331 92.19658936 35.86430115 90.99864746 35.86105347 89.7644043 C35.8630777 88.46027588 35.86510193 87.15614746 35.8671875 85.8125 C35.8665144 84.47110985 35.86554432 83.12971981 35.86428833 81.78833008 C35.86281164 78.97378379 35.86496496 76.15926918 35.86962891 73.34472656 C35.87532619 69.72959369 35.87204703 66.11453505 35.86605644 62.49940491 C35.86245003 59.72855058 35.86358978 56.95771398 35.86618423 54.18685913 C35.86717967 52.20310417 35.86413259 50.21934853 35.86105347 48.2355957 C35.86578171 46.43868286 35.86578171 46.43868286 35.87060547 44.60546875 C35.87140106 43.54481201 35.87219666 42.48415527 35.87301636 41.39135742 C36 39 36 39 37 38 C39.40250532 37.87510302 41.77772785 37.8139921 44.18188477 37.79467773 C44.93305573 37.78477814 45.68422668 37.77487854 46.4581604 37.76467896 C48.95254312 37.73297454 51.44694491 37.70827141 53.94140625 37.68359375 C55.66634123 37.66303193 57.39127108 37.64203567 59.11619568 37.62062073 C63.66506814 37.56532029 68.21398667 37.51594631 72.76293945 37.46777344 C78.21617442 37.40880412 83.66932487 37.34253248 89.12248993 37.27747345 C97.41494184 37.17936368 105.70744695 37.09057634 114 37 C114 25.45 114 13.9 114 2 C76.38 1.67 38.76 1.34 0 1 C0 0.67 0 0.34 0 0 Z " fill="#C5C5C5" transform="translate(775,407)"/>
<path d="M0 0 C0.66 0.33 1.32 0.66 2 1 C-4.95584033 8.97345401 -12.31485557 16.50110008 -19.79443359 23.97973633 C-21.76558756 25.95310508 -23.72856115 27.93438615 -25.69140625 29.91601562 C-26.95524031 31.18277958 -28.21954622 32.44907299 -29.484375 33.71484375 C-30.06467468 34.30232895 -30.64497437 34.88981415 -31.24285889 35.49510193 C-34.29175531 38.52697958 -37.1599434 40.96842549 -41 43 C-39.45872649 39.28731906 -37.19156766 37.01884302 -34.3125 34.25 C-31.29014469 31.33575382 -28.43261934 28.37295378 -25.70703125 25.18359375 C-21.87065584 20.75190971 -17.67834145 16.78510761 -13.375 12.8125 C-11.9029907 11.44471513 -10.43162035 10.07624226 -8.9609375 8.70703125 C-8.27870117 8.0723291 -7.59646484 7.43762695 -6.89355469 6.78369141 C-4.54391365 4.5703756 -2.26214535 2.30238114 0 0 Z " fill="#868687" transform="translate(179,136)"/>
<path d="M0 0 C2.28165132 3.42247699 2.88604596 6.54131766 3.625 10.5 C3.7590625 11.17675781 3.893125 11.85351562 4.03125 12.55078125 C4.58536827 15.41749517 5 18.07331285 5 21 C5.66 21 6.32 21 7 21 C7 21.99 7 22.98 7 24 C6.01 23.67 5.02 23.34 4 23 C3.29223633 21.31347656 3.29223633 21.31347656 2.83203125 19.140625 C2.66123047 18.35429688 2.49042969 17.56796875 2.31445312 16.7578125 C2.14880859 15.93023438 1.98316406 15.10265625 1.8125 14.25 C1.63525391 13.43789063 1.45800781 12.62578125 1.27539062 11.7890625 C0.43590899 7.80881752 -0.24115511 4.09132109 0 0 Z " fill="#D2D2D2" transform="translate(129,536)"/>
</svg>
