<?xml version="1.0" encoding="UTF-8"?>
<svg version="1.1" xmlns="http://www.w3.org/2000/svg" width="1080" height="1080">
<path d="M0 0 C3.68504651 0.0057074 7.37002105 0.00228737 11.05506516 -0.00342083 C32.91862793 -0.03252291 54.60394477 0.1767794 76.29296875 3.19287109 C77.06723206 3.29852386 77.84149536 3.40417664 78.63922119 3.51303101 C96.91471302 6.03545491 114.85378039 9.86666801 132.79296875 14.13037109 C133.48733032 14.29386047 134.18169189 14.45734985 134.89709473 14.62579346 C192.24314645 28.13606537 249.02990245 52.03035477 298.03369141 84.95019531 C299.64789599 86.03305196 301.27268024 87.10009397 302.8984375 88.16552734 C316.86224051 97.34281758 330.23167361 107.05547819 343.08886719 117.72607422 C345.31723808 119.56240507 347.58476694 121.34678354 349.85546875 123.13037109 C360.3841676 131.56389408 370.36407177 140.44307738 379.78198242 150.10522461 C382.97197301 153.3700666 386.20462999 156.29682083 389.79296875 159.13037109 C390.8693092 160.28653584 391.91268105 161.4744203 392.91796875 162.69287109 C395.84285766 166.12643633 398.94281089 169.2897838 402.16796875 172.44287109 C406.60398398 176.80724038 410.60981784 181.39394513 414.48828125 186.25927734 C416.54307819 188.81906675 418.64321624 191.32410455 420.77709961 193.81738281 C431.5404705 206.39637586 441.40843722 219.49362483 450.79296875 233.13037109 C451.22464355 233.75524414 451.65631836 234.38011719 452.10107422 235.02392578 C458.95577869 244.98613196 465.19942636 255.28600567 471.34667969 265.69628906 C472.68993778 267.95697157 474.05324497 270.20378876 475.42578125 272.44677734 C481.5624697 282.54642134 486.72622841 292.97472034 491.671875 303.703125 C492.68020269 305.88622471 493.7011672 308.06257083 494.73046875 310.23583984 C496.44354394 313.85587897 498.1215372 317.49089904 499.79296875 321.13037109 C500.32019531 322.25958984 500.84742188 323.38880859 501.390625 324.55224609 C515.36129903 355.3339676 525.48554641 388.19009294 532.79296875 421.13037109 C533.00904785 422.07025879 533.22512695 423.01014648 533.44775391 423.97851562 C536.36862037 436.69300539 538.5796537 449.48008497 540.48046875 462.38037109 C540.63456711 463.39632355 540.63456711 463.39632355 540.79177856 464.43280029 C544.32765638 487.96747164 545.11174662 511.6464233 544.9987793 535.41357422 C544.98041436 539.39215506 544.9782716 543.37050197 544.97851562 547.34912109 C544.94998071 570.71596668 544.37755085 593.53459523 540.66796875 616.63037109 C540.51268707 617.61961578 540.3574054 618.60886047 540.19741821 619.62808228 C534.45437364 656.14717741 526.0945239 692.55715297 512.79296875 727.13037109 C512.42204102 728.09555664 512.05111328 729.06074219 511.66894531 730.05517578 C491.23137032 782.83714827 464.19721536 831.88895775 428.79296875 876.13037109 C428.08527344 877.03271484 427.37757813 877.93505859 426.6484375 878.86474609 C422.67501365 883.91185647 418.51137346 888.71367236 414.17358398 893.45043945 C411.99443403 895.90357545 409.96646377 898.41723524 407.94140625 900.99755859 C402.33849651 907.87598382 396.12258536 914.10228748 389.83374023 920.3503418 C387.82748668 922.34570122 385.83236635 924.35176155 383.83789062 926.35888672 C382.56444429 927.6310143 381.29037924 928.90252288 380.015625 930.17333984 C379.12194969 931.07308784 379.12194969 931.07308784 378.21022034 931.99101257 C374.02298807 936.13037109 374.02298807 936.13037109 371.79296875 936.13037109 C371.79296875 936.79037109 371.79296875 937.45037109 371.79296875 938.13037109 C370.53515625 939.43505859 370.53515625 939.43505859 368.66796875 941.00537109 C367.56582031 941.94123047 367.56582031 941.94123047 366.44140625 942.89599609 C365.56742188 943.63333984 364.6934375 944.37068359 363.79296875 945.13037109 C362.76313394 946.01962101 361.73456047 946.91033307 360.70703125 947.80224609 C347.20131759 959.50601374 333.46095158 970.59710762 318.75244141 980.75878906 C316.98827688 981.99366027 315.25097506 983.25515396 313.5234375 984.54052734 C278.29810144 1010.55776076 237.63914588 1030.62809729 196.79296875 1046.13037109 C195.31456439 1046.70580916 193.83665034 1047.2825095 192.359375 1047.86083984 C155.4404173 1062.1942933 116.54196489 1070.61658649 77.48046875 1076.44287109 C76.19366211 1076.63700089 76.19366211 1076.63700089 74.88085938 1076.83505249 C72.37752704 1077.20945196 69.87278035 1077.57222228 67.3671875 1077.93115234 C66.65338425 1078.0381546 65.93958099 1078.14515686 65.20414734 1078.25540161 C51.81578248 1080.12224608 38.22904788 1080.29119204 24.734375 1080.29833984 C23.25154085 1080.30157322 21.76870699 1080.30493862 20.28587341 1080.3084259 C17.20107284 1080.31434875 14.11629998 1080.31627312 11.03149414 1080.31567383 C7.93019738 1080.31559292 4.82904946 1080.32249078 1.7277832 1080.33618164 C-24.01997232 1080.44780504 -49.34526435 1079.41375294 -74.83203125 1075.44287109 C-76.09382202 1075.2497081 -76.09382202 1075.2497081 -77.38110352 1075.05264282 C-105.18595484 1070.77374757 -132.27674784 1064.21890534 -159.20703125 1056.13037109 C-160.65263428 1055.69821289 -160.65263428 1055.69821289 -162.12744141 1055.25732422 C-196.15769396 1044.92253803 -229.35324765 1029.65372287 -260.20703125 1012.13037109 C-261.0381543 1011.66244141 -261.86927734 1011.19451172 -262.72558594 1010.71240234 C-284.58844551 998.38703185 -305.30574313 984.41686776 -325.20703125 969.13037109 C-325.77019043 968.69869629 -326.33334961 968.26702148 -326.91357422 967.82226562 C-334.63951505 961.88393675 -342.02934199 955.72880824 -349.20703125 949.13037109 C-350.53625505 947.95902445 -351.86941532 946.79212517 -353.20703125 945.63037109 C-361.13684815 938.70574225 -368.8234202 931.63727064 -376.20703125 924.13037109 C-379.03761423 921.29017663 -381.88052118 918.4628208 -384.73046875 915.64208984 C-397.50075558 902.9804723 -397.50075558 902.9804723 -403.20703125 896.13037109 C-404.07579624 895.11256678 -404.94569437 894.09572913 -405.81640625 893.07958984 C-411.11388005 886.88380937 -416.2659305 880.61556583 -421.20703125 874.13037109 C-422.20647431 872.83827344 -423.2065343 871.54665287 -424.20703125 870.25537109 C-430.80747279 861.7147645 -437.21753974 853.11460837 -443.20703125 844.13037109 C-443.60535156 843.53417969 -444.00367188 842.93798828 -444.4140625 842.32373047 C-447.75253839 837.30568079 -450.99946124 832.2329607 -454.20703125 827.13037109 C-454.76132812 826.24929688 -455.315625 825.36822266 -455.88671875 824.46044922 C-472.40886078 798.00666403 -486.34326428 770.44325741 -497.87451172 741.47753906 C-499.03053196 738.57372127 -500.21000819 735.68116594 -501.3984375 732.79052734 C-514.21689975 701.02289634 -522.3254899 667.46229915 -528.51806641 633.85986328 C-528.9492003 631.526057 -529.38553366 629.19319846 -529.82958984 626.86181641 C-535.11387392 599.03990416 -535.54380855 571.10082904 -535.46777344 542.88085938 C-535.4563249 538.59522074 -535.46320188 534.30982898 -535.47464466 530.02419853 C-535.51566943 511.97895505 -535.42777062 494.06887744 -533.20703125 476.13037109 C-533.12024109 475.41733826 -533.03345093 474.70430542 -532.94403076 473.96966553 C-532.39110226 469.54952018 -531.73041701 465.1525814 -531.01953125 460.75537109 C-530.91443237 460.09737518 -530.8093335 459.43937927 -530.7010498 458.76144409 C-517.93221165 379.23880624 -489.07502491 303.54711621 -441.20703125 233.13037109 C-440.75005859 232.46086426 -440.29308594 231.79135742 -439.82226562 231.1015625 C-432.88421779 220.96910225 -425.50981668 211.32225782 -417.65869141 201.88183594 C-415.652766 199.461636 -413.68256137 197.01290563 -411.70703125 194.56787109 C-403.99455744 185.16829363 -396.2117298 175.75225979 -387.40234375 167.35302734 C-385.48851287 165.41535871 -383.73127305 163.43151927 -381.9609375 161.36474609 C-378.22834919 157.06530204 -374.1943988 153.18322425 -370.01953125 149.31787109 C-369.27558105 148.6242749 -368.53163086 147.93067871 -367.76513672 147.21606445 C-366.2728009 145.82650969 -364.77870112 144.43884659 -363.28271484 143.05322266 C-361.45741327 141.36231755 -359.63788973 139.66550379 -357.8203125 137.96630859 C-351.49557967 132.07867136 -344.97183115 126.50588994 -338.20703125 121.13037109 C-337.66288574 120.69724609 -337.11874023 120.26412109 -336.55810547 119.81787109 C-316.63569616 103.98340747 -296.18338804 89.00499114 -274.20703125 76.13037109 C-273.39685547 75.65390137 -272.58667969 75.17743164 -271.75195312 74.68652344 C-241.42514407 56.91782354 -210.2785734 42.06306194 -177.20703125 30.13037109 C-176.2133252 29.7684668 -175.21961914 29.4065625 -174.19580078 29.03369141 C-154.92158452 22.0799348 -135.06786257 17.08889108 -115.20703125 12.13037109 C-114.11567871 11.85563965 -113.02432617 11.5809082 -111.89990234 11.29785156 C-99.668798 8.26901674 -87.27130746 6.2279367 -74.82879639 4.28894043 C-73.12487471 4.02340553 -71.42143104 3.75477834 -69.71856689 3.48254395 C-46.59124171 -0.18129389 -23.35670207 -0.03618151 0 0 Z M-275.20703125 409.13037109 C-277.36314841 419.61746995 -276.34811193 431.25061598 -276.33642578 441.91845703 C-276.33778278 444.0057427 -276.33956439 446.09302813 -276.34173584 448.18031311 C-276.34627347 453.81839561 -276.34453607 459.4564597 -276.34135675 465.0945425 C-276.33881548 471.00714096 -276.34117548 476.9197379 -276.34274292 482.83233643 C-276.34455889 492.75476361 -276.34217273 502.67718333 -276.33740234 512.59960938 C-276.33195483 524.06269799 -276.33372824 535.52576884 -276.33922875 546.98885703 C-276.34376902 556.8464688 -276.34440612 566.70407523 -276.34179008 576.56168771 C-276.34023312 582.44265551 -276.34001776 588.32361495 -276.34332657 594.20458221 C-276.34621876 599.73023752 -276.34420478 605.25586992 -276.33843231 610.78152275 C-276.33711221 612.8067693 -276.33748609 614.83201779 -276.33969498 616.85726357 C-276.34243581 619.62579516 -276.33898961 622.39425379 -276.33401489 625.16278076 C-276.33624561 625.96006458 -276.33847634 626.7573484 -276.34077466 627.57879233 C-276.77371672 635.91995383 -276.77371672 635.91995383 -274.20703125 643.13037109 C-271.55246932 643.23132674 -268.92447949 643.27008108 -266.26953125 643.26318359 C-265.07662476 643.26461868 -265.07662476 643.26461868 -263.85961914 643.26608276 C-262.17496665 643.26676452 -260.49031154 643.26491052 -258.80566406 643.26074219 C-256.21803928 643.25539385 -253.63058809 643.26068728 -251.04296875 643.26708984 C-249.41015586 643.26642906 -247.77734309 643.2651479 -246.14453125 643.26318359 C-245.36537354 643.26520782 -244.58621582 643.26723206 -243.78344727 643.26931763 C-240.19908925 643.58876689 -240.19908925 643.58876689 -237.20703125 642.13037109 C-237.09874404 640.47319116 -237.06017624 638.81141684 -237.04881287 637.15074158 C-237.03902405 636.07235519 -237.02923523 634.99396881 -237.01914978 633.88290405 C-237.01339432 632.6896048 -237.00763885 631.49630554 -237.00170898 630.2668457 C-236.99180939 629.01824265 -236.98190979 627.76963959 -236.97171021 626.48320007 C-236.9454588 623.04948952 -236.92362316 619.61580301 -236.90370822 616.18205333 C-236.88188701 612.59721889 -236.85447947 609.0124274 -236.82765198 605.42762756 C-236.77767266 598.63490179 -236.73275335 591.84215226 -236.68962961 585.04937989 C-236.64030191 577.31791566 -236.58536727 569.5864945 -236.52995002 561.8550719 C-236.41604959 545.94687807 -236.3092282 530.03864468 -236.20703125 514.13037109 C-235.54703125 514.13037109 -234.88703125 514.13037109 -234.20703125 514.13037109 C-229.8957619 524.3759759 -226.19853838 534.78724503 -222.59814453 545.30102539 C-220.356667 551.83702349 -218.06103648 558.34459151 -215.64453125 564.81787109 C-213.17754016 571.43363635 -210.81944644 578.07972283 -208.51953125 584.75537109 C-203.91824337 598.09690991 -199.08356132 611.35417133 -194.22343445 624.60324097 C-193.13999825 627.55857508 -192.07122116 630.5175312 -191.02929688 633.48779297 C-190.68060547 634.4784375 -190.33191406 635.46908203 -189.97265625 636.48974609 C-189.67649414 637.34536133 -189.38033203 638.20097656 -189.07519531 639.08251953 C-188.28516938 641.30225138 -188.28516938 641.30225138 -186.20703125 643.13037109 C-183.64975185 643.34215991 -181.20339811 643.43435979 -178.64453125 643.43115234 C-177.89743896 643.43543747 -177.15034668 643.4397226 -176.38061523 643.44413757 C-174.80030329 643.44988322 -173.21996489 643.45037939 -171.63964844 643.44604492 C-169.21634037 643.44288324 -166.7942509 643.46634518 -164.37109375 643.49169922 C-162.83724113 643.49397196 -161.30338521 643.49467582 -159.76953125 643.49365234 C-158.67886353 643.50746696 -158.67886353 643.50746696 -157.56616211 643.52156067 C-155.30559783 643.53553023 -155.30559783 643.53553023 -152.20703125 643.13037109 C-149.55586137 639.15361627 -149.92966761 635.71216819 -149.95306396 631.09606934 C-149.94994398 630.16048927 -149.946824 629.2249092 -149.94360948 628.26097822 C-149.93560487 625.11256153 -149.94196273 621.96433625 -149.94824219 618.81591797 C-149.94553342 616.56421292 -149.94197314 614.31250875 -149.93762207 612.06080627 C-149.92848222 605.93492281 -149.93204891 599.8091065 -149.93838024 593.68322182 C-149.94343198 587.28242431 -149.9387511 580.88163268 -149.93560791 574.48083496 C-149.93173234 563.04111289 -149.93796074 551.60142812 -149.94812658 540.16171235 C-149.95706235 529.78487638 -149.95551038 519.40808516 -149.94628906 509.03125 C-149.93559124 496.98721499 -149.93159922 484.9432138 -149.93751359 472.89917231 C-149.94063705 466.52134787 -149.94103234 460.14355428 -149.93444061 453.76573181 C-149.92867771 447.77070474 -149.93264469 441.77576244 -149.94422913 435.78074455 C-149.94688137 433.57602517 -149.94610106 431.3712987 -149.9417038 429.16658211 C-149.93626916 426.16584824 -149.94305715 423.16538904 -149.95306396 420.16467285 C-149.94860252 419.28443058 -149.94414108 418.4041883 -149.93954444 417.49727201 C-149.96297079 412.51805789 -149.96297079 412.51805789 -152.20703125 408.13037109 C-154.87898481 407.83848505 -157.31582272 407.73422851 -159.98828125 407.76708984 C-160.75756958 407.76659134 -161.52685791 407.76609283 -162.31945801 407.76557922 C-163.94688498 407.76792104 -165.57431548 407.77765597 -167.20166016 407.79418945 C-169.69726843 407.81777881 -172.19180864 407.81475211 -174.6875 407.80810547 C-176.26693347 407.81368222 -177.84636243 407.82079209 -179.42578125 407.82958984 C-180.17476685 407.82867844 -180.92375244 407.82776703 -181.69543457 407.826828 C-185.91009453 407.74564457 -185.91009453 407.74564457 -189.20703125 410.13037109 C-189.50570666 412.47202535 -189.50570666 412.47202535 -189.44754028 415.23025513 C-189.45028961 416.31001617 -189.45303894 417.38977722 -189.45587158 418.5022583 C-189.44868103 419.69196228 -189.44149048 420.88166626 -189.43408203 422.10742188 C-189.43437408 423.35617096 -189.43466614 424.60492004 -189.43496704 425.89151001 C-189.43381027 429.32112809 -189.42376178 432.75050706 -189.40981913 436.1800828 C-189.39733883 439.76220912 -189.39614341 443.34433844 -189.39376831 446.92648315 C-189.38754558 453.71214674 -189.37112408 460.49774608 -189.35106933 467.28338134 C-189.32873496 475.00757644 -189.31772311 482.73177456 -189.30767846 490.45599389 C-189.2867585 506.3474902 -189.25156717 522.23892237 -189.20703125 538.13037109 C-192.20703125 537.13037109 -192.20703125 537.13037109 -193.13916016 535.40991211 C-193.40132324 534.65895264 -193.66348633 533.90799316 -193.93359375 533.13427734 C-194.2385376 532.27874268 -194.54348145 531.42320801 -194.85766602 530.54174805 C-195.17920654 529.60161865 -195.50074707 528.66148926 -195.83203125 527.69287109 C-196.17613037 526.71729248 -196.52022949 525.74171387 -196.87475586 524.73657227 C-197.99857741 521.53889704 -199.10430028 518.33537616 -200.20703125 515.13037109 C-200.96589958 512.93757752 -201.72501507 510.74486947 -202.484375 508.55224609 C-203.63138236 505.23698054 -204.77696701 501.9212576 -205.91821289 498.60400391 C-208.39615849 491.41427601 -210.97087498 484.26865921 -213.62670898 477.14306641 C-215.77670784 471.35343101 -217.81880578 465.5313284 -219.83203125 459.69287109 C-223.22545959 449.895854 -226.65719278 440.1124303 -230.14154053 430.34738159 C-230.72471506 428.70875642 -231.30485855 427.06904922 -231.88189697 425.42825317 C-232.69701287 423.11243985 -233.52296662 420.80076481 -234.3515625 418.48974609 C-234.59504929 417.79076706 -234.83853607 417.09178802 -235.08940125 416.37162781 C-236.69291454 411.51912986 -236.69291454 411.51912986 -240.20703125 408.13037109 C-242.77149614 407.85653808 -245.08756811 407.75708169 -247.6484375 407.80224609 C-248.73365944 407.80505585 -248.73365944 407.80505585 -249.84080505 407.80792236 C-251.36811949 407.81463769 -252.89541687 407.82854204 -254.42260742 407.84912109 C-256.76432216 407.88030173 -259.10536378 407.89009524 -261.44726562 407.89599609 C-262.93099782 407.90516538 -264.41472315 407.91554091 -265.8984375 407.92724609 C-266.60053848 407.93149597 -267.30263947 407.93574585 -268.02601624 407.94012451 C-271.74122618 407.94678054 -271.74122618 407.94678054 -275.20703125 409.13037109 Z M-117.20703125 408.13037109 C-119.82700947 412.06033842 -119.481599 415.38876238 -119.45426941 419.94793701 C-119.45668382 420.86027705 -119.45909824 421.7726171 -119.46158582 422.71260381 C-119.46724041 425.78259552 -119.45854626 428.85238078 -119.44995117 431.92236328 C-119.45102365 434.11831723 -119.45296181 436.31427089 -119.45570374 438.51022339 C-119.46056187 444.4855596 -119.45288338 450.46082143 -119.44275069 456.43614864 C-119.43398137 462.68425859 -119.43572745 468.93236612 -119.43611145 475.18048096 C-119.435174 485.67876303 -119.42653475 496.17702096 -119.4128418 506.67529297 C-119.39876752 517.47152225 -119.39167044 528.26772626 -119.39233398 539.06396484 C-119.39237394 539.72830586 -119.3924139 540.39264688 -119.39245506 541.07711944 C-119.39249542 541.7403198 -119.39253577 542.40352016 -119.39257735 543.0868175 C-119.39323297 554.75597474 -119.38807842 566.42512226 -119.37978554 578.09427643 C-119.37625527 583.06220836 -119.37442265 588.03013664 -119.37389183 592.99806976 C-119.37288649 598.85191631 -119.36677418 604.70573634 -119.35672569 610.55957413 C-119.35380709 612.70778618 -119.35257403 614.85600128 -119.35315323 617.00421524 C-119.35364482 619.93779514 -119.34797928 622.87130103 -119.34074402 625.80487061 C-119.34229262 626.65400677 -119.34384122 627.50314294 -119.34543675 628.37801051 C-119.76482888 636.26595381 -119.76482888 636.26595381 -117.20703125 643.13037109 C-115.72919324 643.22821884 -114.24669857 643.25668875 -112.765625 643.25735474 C-111.80648193 643.26017456 -110.84733887 643.26299438 -109.85913086 643.26589966 C-108.79831299 643.26387543 -107.73749512 643.2618512 -106.64453125 643.25976562 C-104.97886108 643.2623941 -104.97886108 643.2623941 -103.27954102 643.26507568 C-99.58868879 643.26949682 -95.89788401 643.26655528 -92.20703125 643.26318359 C-89.65494782 643.26385656 -87.10286446 643.26482652 -84.55078125 643.26608276 C-79.19400363 643.26756009 -73.8372432 643.26549865 -68.48046875 643.26074219 C-62.2791941 643.2552996 -56.07795232 643.25706227 -49.87667847 643.26256859 C-43.9216891 643.26764546 -37.96670998 643.26711816 -32.01171875 643.26418686 C-29.4726562 643.26351733 -26.93359283 643.26434691 -24.39453125 643.26666641 C-20.85284161 643.2691914 -17.31121608 643.26535451 -13.76953125 643.25976562 C-12.70871338 643.26178986 -11.64789551 643.26381409 -10.55493164 643.26589966 C-9.59578857 643.26307983 -8.63664551 643.26026001 -7.6484375 643.25735474 C-6.80998291 643.25697771 -5.97152832 643.25660069 -5.10766602 643.25621223 C-3.19632631 643.33928171 -3.19632631 643.33928171 -2.20703125 642.13037109 C-2.09375759 639.63282968 -2.04285934 637.1639712 -2.0390625 634.66552734 C-2.0357341 633.91702011 -2.0324057 633.16851288 -2.02897644 632.39732361 C-2.02390432 630.81103125 -2.0215682 629.22472819 -2.02172852 627.63842773 C-2.01954352 625.2065274 -2.00139544 622.7750816 -1.98242188 620.34326172 C-1.97948776 618.80485182 -1.97750308 617.26643975 -1.9765625 615.72802734 C-1.96578423 614.63265404 -1.96578423 614.63265404 -1.95478821 613.51515198 C-1.83993691 609.36767116 -1.83993691 609.36767116 -4.20703125 606.13037109 C-6.67652197 605.94263844 -9.03283108 605.87840806 -11.50244141 605.90332031 C-12.62941689 605.90288223 -12.62941689 605.90288223 -13.77915955 605.9024353 C-16.26825417 605.90383122 -18.75705128 605.91940452 -21.24609375 605.93505859 C-22.96959266 605.9387878 -24.69309368 605.94163521 -26.41659546 605.94363403 C-30.95733472 605.9512778 -35.49794645 605.97093261 -40.03863525 605.99304199 C-45.4843075 606.01707734 -50.93002234 606.02627787 -56.37573242 606.03794861 C-64.65292079 606.05735663 -72.92982921 606.09567393 -81.20703125 606.13037109 C-81.20703125 586.00037109 -81.20703125 565.87037109 -81.20703125 545.13037109 C-61.40703125 544.80037109 -41.60703125 544.47037109 -21.20703125 544.13037109 C-19.69995464 538.85560297 -18.95229732 535.83792295 -18.94140625 530.64599609 C-18.93882812 529.46392578 -18.93625 528.28185547 -18.93359375 527.06396484 C-18.94519531 525.24058594 -18.94519531 525.24058594 -18.95703125 523.38037109 C-18.94929687 522.14931641 -18.9415625 520.91826172 -18.93359375 519.64990234 C-18.93617188 518.47298828 -18.93875 517.29607422 -18.94140625 516.08349609 C-18.94479004 514.47716309 -18.94479004 514.47716309 -18.94824219 512.83837891 C-19.01270184 509.90941522 -19.01270184 509.90941522 -21.20703125 507.13037109 C-23.78919146 506.65243189 -23.78919146 506.65243189 -26.85009766 506.69799805 C-28.04771729 506.67805786 -29.24533691 506.65811768 -30.47924805 506.63757324 C-31.74293213 506.63132935 -33.00661621 506.62508545 -34.30859375 506.61865234 C-36.04532349 506.5936969 -36.04532349 506.5936969 -37.81713867 506.5682373 C-42.15525013 506.51026542 -46.49367585 506.4781432 -50.83203125 506.44287109 C-60.52578125 506.33974609 -70.21953125 506.23662109 -80.20703125 506.13037109 C-80.20703125 486.33037109 -80.20703125 466.53037109 -80.20703125 446.13037109 C-74.74398437 446.06978516 -69.2809375 446.00919922 -63.65234375 445.94677734 C-60.1979085 445.90629747 -56.7434814 445.86553164 -53.2890625 445.82373047 C-47.80227377 445.75736344 -42.31548663 445.69207363 -36.82861328 445.63305664 C-32.40655732 445.58542677 -27.98458026 445.53308446 -23.56261826 445.47743034 C-21.87289258 445.45700054 -20.18314525 445.4382885 -18.4933815 445.42129707 C-16.13238933 445.39726687 -13.77154692 445.36721053 -11.41064453 445.33569336 C-10.35544617 445.32706017 -10.35544617 445.32706017 -9.27893066 445.31825256 C-5.61949847 445.30548552 -5.61949847 445.30548552 -2.20703125 444.13037109 C-2.18238027 439.1641476 -2.16419476 434.19795943 -2.15209961 429.23168945 C-2.14705935 427.54092794 -2.1402272 425.8501708 -2.1315918 424.15942383 C-2.11951268 421.73436403 -2.11380002 419.30936165 -2.109375 416.88427734 C-2.10421371 416.12385635 -2.09905243 415.36343536 -2.09373474 414.57997131 C-2.09353887 412.76304539 -2.14505848 410.94623982 -2.20703125 409.13037109 C-3.79711459 407.54028775 -5.43639656 407.99776533 -7.64170837 407.9899292 C-8.59940628 407.98421906 -9.55710419 407.97850891 -10.54382324 407.97262573 C-11.60307007 407.97150787 -12.66231689 407.97039001 -13.75366211 407.96923828 C-14.86250259 407.96427338 -15.97134308 407.95930847 -17.11378479 407.95419312 C-20.79982105 407.939529 -24.4858143 407.93276289 -28.171875 407.92724609 C-30.72156273 407.92149872 -33.27125043 407.91574094 -35.82093811 407.90997314 C-40.48840412 407.90079817 -45.15585711 407.89450239 -49.82332987 407.89147639 C-56.7018179 407.88699297 -63.58010747 407.8694341 -70.45853513 407.8404758 C-76.40817839 407.81629343 -82.35777195 407.80853399 -88.30746651 407.80680084 C-90.8429224 407.80376332 -93.37837723 407.79569818 -95.91380119 407.78261566 C-99.45302451 407.76565558 -102.99175897 407.76741076 -106.53100586 407.77392578 C-108.11683975 407.76010361 -108.11683975 407.76010361 -109.73471069 407.7460022 C-110.69522842 407.75157135 -111.65574615 407.7571405 -112.64537048 407.76287842 C-113.90166968 407.76067858 -113.90166968 407.76067858 -115.18334866 407.7584343 C-115.85116391 407.88117344 -116.51897917 408.00391258 -117.20703125 408.13037109 Z M29.79296875 410.13037109 C29.59705649 413.15940936 29.52825044 416.09695145 29.54573059 419.1270752 C29.54331618 420.07067351 29.54090176 421.01427182 29.53841418 421.98646402 C29.53275048 425.16796567 29.54146042 428.3492689 29.55004883 431.53076172 C29.54897661 433.80364537 29.54703883 436.07652876 29.54429626 438.34941101 C29.53943517 444.53727288 29.54711934 450.725063 29.55724931 456.91291618 C29.56600925 463.37557778 29.56427276 469.838237 29.56388855 476.30090332 C29.56482613 487.15569415 29.57346896 498.0104531 29.5871582 508.86523438 C29.60124628 520.04199733 29.608329 531.21873585 29.60766602 542.39550781 C29.60762606 543.08384754 29.6075861 543.77218726 29.60754494 544.48138577 C29.60750458 545.16851617 29.60746423 545.85564657 29.60742265 546.56359911 C29.60676824 558.6305541 29.6119116 570.69749742 29.62021446 582.76445007 C29.62375333 587.90956195 29.62557857 593.05467029 29.62610817 598.19978333 C29.62710981 604.25387003 29.6331917 610.30793087 29.64327431 616.36200905 C29.646205 618.58972325 29.64742353 620.81744043 29.64684677 623.04515648 C29.64635907 626.07468783 29.65198218 629.10414582 29.65925598 632.13366699 C29.65770738 633.02528613 29.65615878 633.91690526 29.65456325 634.83554316 C29.54522778 639.11835768 29.54522778 639.11835768 30.79296875 643.13037109 C68.41296875 643.13037109 106.03296875 643.13037109 144.79296875 643.13037109 C146.8478786 639.0205514 147.04959326 637.26023591 147.05859375 632.79052734 C147.06117188 631.56269531 147.06375 630.33486328 147.06640625 629.06982422 C147.05480469 627.15073242 147.05480469 627.15073242 147.04296875 625.19287109 C147.05070313 623.91734375 147.0584375 622.64181641 147.06640625 621.32763672 C147.06253906 619.48395508 147.06253906 619.48395508 147.05859375 617.60302734 C147.05520996 615.92092163 147.05520996 615.92092163 147.05175781 614.20483398 C146.90866418 610.71345007 146.90866418 610.71345007 144.79296875 606.13037109 C119.38296875 606.13037109 93.97296875 606.13037109 67.79296875 606.13037109 C67.77234375 596.62224609 67.75171875 587.11412109 67.73046875 577.31787109 C67.72136475 574.31717529 67.71226074 571.31647949 67.70288086 568.22485352 C67.69996098 565.85351608 67.69741259 563.48217815 67.6953125 561.11083984 C67.69019653 559.87386353 67.68508057 558.63688721 67.67980957 557.36242676 C67.6796283 555.59663269 67.6796283 555.59663269 67.67944336 553.79516602 C67.67722275 552.77146408 67.67500214 551.74776215 67.67271423 550.69303894 C67.79296875 548.13037109 67.79296875 548.13037109 68.79296875 545.13037109 C69.51515594 545.12228424 70.23734314 545.11419739 70.98141479 545.10586548 C77.77979885 545.02799817 84.57800389 544.94073156 91.37612724 544.84284401 C94.87131641 544.79284936 98.36647489 544.74651996 101.86181641 544.70849609 C105.87812582 544.66464565 109.89406362 544.6049815 113.91015625 544.54443359 C115.16851288 544.53288239 116.42686951 544.52133118 117.72335815 544.50942993 C119.46493698 544.4796254 119.46493698 544.4796254 121.24169922 544.44921875 C122.26762177 544.43589508 123.29354431 544.42257141 124.35055542 544.40884399 C126.97163278 544.36667569 126.97163278 544.36667569 128.79296875 542.13037109 C128.98026628 539.56110079 129.04871517 537.10163133 129.0234375 534.53271484 C129.02297928 533.78325089 129.02252106 533.03378693 129.02204895 532.26161194 C129.01902686 530.6770774 129.01114181 529.09254583 128.9987793 527.50805664 C128.98051558 525.07411251 128.97826964 522.64054848 128.97851562 520.20654297 C128.97360076 518.66943028 128.96777257 517.13232019 128.9609375 515.59521484 C128.95982468 514.86294174 128.95871185 514.13066864 128.95756531 513.37620544 C129.22781183 509.96514107 129.22781183 509.96514107 127.79296875 507.13037109 C125.95264886 507.00699935 124.10767464 506.95245802 122.26342773 506.92504883 C121.06568726 506.90486694 119.86794678 506.88468506 118.63391113 506.8638916 C116.73071106 506.83917786 116.73071106 506.83917786 114.7890625 506.81396484 C113.6302356 506.79531372 112.47140869 506.7766626 111.27746582 506.75744629 C106.92854793 506.68889793 102.57949853 506.62890971 98.23046875 506.56787109 C88.51609375 506.42349609 78.80171875 506.27912109 68.79296875 506.13037109 C68.79296875 486.33037109 68.79296875 466.53037109 68.79296875 446.13037109 C93.87296875 445.80037109 118.95296875 445.47037109 144.79296875 445.13037109 C146.87867682 440.95895495 147.04980041 439.09156898 147.05859375 434.53662109 C147.06117188 433.25916016 147.06375 431.98169922 147.06640625 430.66552734 C147.0622168 430.00311035 147.05802734 429.34069336 147.05371094 428.65820312 C147.04300334 426.63690166 147.05362271 424.61648884 147.06640625 422.59521484 C147.06382812 421.31775391 147.06125 420.04029297 147.05859375 418.72412109 C147.05520996 416.97131836 147.05520996 416.97131836 147.05175781 415.18310547 C146.79882318 412.19943122 146.19210387 410.70330758 144.79296875 408.13037109 C130.09415614 408.08369201 115.39535332 408.04840237 100.6964817 408.02674675 C93.87184805 408.01642531 87.04726039 408.00234849 80.22265625 407.97949219 C73.64153519 407.9574618 67.06044949 407.94581558 60.47929001 407.94061661 C57.96337505 407.93690968 55.44746283 407.92967143 52.93156815 407.91891098 C49.41867577 407.90447847 45.90598346 407.90238969 42.39306641 407.90332031 C41.3436235 407.89612976 40.2941806 407.88893921 39.2129364 407.88153076 C38.25938766 407.88428009 37.30583893 407.88702942 36.32339478 407.88986206 C35.4919375 407.88801847 34.66048023 407.88617489 33.80382729 407.88427544 C31.56380541 407.94888584 31.56380541 407.94888584 29.79296875 410.13037109 Z M171.79296875 410.13037109 C171.49755022 412.94594227 171.49755022 412.94594227 171.5625 416.23974609 C171.56443359 417.46951172 171.56636719 418.69927734 171.56835938 419.96630859 C171.58060547 421.25794922 171.59285156 422.54958984 171.60546875 423.88037109 C171.60611328 425.15654297 171.60675781 426.43271484 171.60742188 427.74755859 C171.58312952 435.99653425 171.58312952 435.99653425 172.79296875 444.13037109 C175.9575849 445.71267917 179.38376242 445.37194922 182.86328125 445.44677734 C183.65950897 445.46755844 184.45573669 445.48833954 185.27609253 445.50975037 C187.8232956 445.57521258 190.370603 445.63411525 192.91796875 445.69287109 C194.64324002 445.73605949 196.36850068 445.77967388 198.09375 445.82373047 C202.3267156 445.93089054 206.55978628 446.03216732 210.79296875 446.13037109 C210.79720069 447.13958083 210.80143263 448.14879057 210.80579281 449.18858242 C210.90883395 473.70716197 211.01756244 498.22571121 211.13230801 522.74423885 C211.18766466 534.60104814 211.2411506 546.45786042 211.2902832 558.31469727 C211.33309519 568.64509161 211.37936552 578.97546357 211.4298473 589.30582339 C211.45647237 594.77928854 211.48132595 600.25274919 211.50204277 605.72624016 C211.52157259 610.87171383 211.54570518 616.01714481 211.57345963 621.16258049 C211.5828495 623.05690743 211.59051775 624.95124375 211.59638786 626.84558487 C211.6046163 629.42017012 211.61888345 631.99465083 211.63475037 634.56919861 C211.63572847 635.32891163 211.63670658 636.08862466 211.63771433 636.87135929 C211.36040575 640.28949453 211.36040575 640.28949453 212.79296875 643.13037109 C215.44753068 643.23132674 218.07552051 643.27008108 220.73046875 643.26318359 C221.92337524 643.26461868 221.92337524 643.26461868 223.14038086 643.26608276 C224.82503335 643.26676452 226.50968846 643.26491052 228.19433594 643.26074219 C230.78196072 643.25539385 233.36941191 643.26068728 235.95703125 643.26708984 C237.58984414 643.26642906 239.22265691 643.2651479 240.85546875 643.26318359 C241.63462646 643.26520782 242.41378418 643.26723206 243.21655273 643.26931763 C246.80091075 643.58876689 246.80091075 643.58876689 249.79296875 642.13037109 C249.90310513 639.60140193 249.9479299 637.09915281 249.95118713 634.56919861 C249.95612511 633.76796792 249.96106309 632.96673723 249.9661507 632.14122683 C249.98160316 629.43570616 249.98990716 626.73020935 249.99829102 624.0246582 C250.00786346 622.09349861 250.01787316 620.16234114 250.02828979 618.23118591 C250.0554136 612.97109583 250.07638255 607.71099671 250.09629178 602.45087504 C250.11810539 596.96019881 250.14551663 591.46955069 250.17234802 585.97889709 C250.22233765 575.57373455 250.26725314 565.16855646 250.31037039 554.76336342 C250.35968929 542.92074168 250.41462719 531.07814813 250.47004998 519.23555362 C250.58396624 494.86718573 250.69078417 470.49879081 250.79296875 446.13037109 C251.83751221 446.10531494 252.88205566 446.08025879 253.95825195 446.05444336 C257.83288891 445.9602857 261.70735009 445.86008538 265.58178711 445.75805664 C267.25882862 445.71473942 268.93591333 445.67306203 270.61303711 445.63305664 C273.02340716 445.57527624 275.43356045 445.51160429 277.84375 445.44677734 C278.59384842 445.43006485 279.34394684 445.41335236 280.11677551 445.39613342 C283.24974867 445.30692876 285.80006235 445.12800656 288.79296875 444.13037109 C290.49400362 439.02726648 290.01828329 433.59276469 290.03320312 428.25146484 C290.04293461 426.13778712 290.07398345 424.0250718 290.10546875 421.91162109 C290.11199684 420.56787686 290.11724807 419.22412568 290.12109375 417.88037109 C290.13043945 416.65833984 290.13978516 415.43630859 290.14941406 414.17724609 C290.05676456 411.19830749 290.05676456 411.19830749 288.56051731 409.46333027 C286.28418319 407.74668128 284.99116936 407.75557483 282.15574646 407.75614929 C281.20371338 407.74913498 280.2516803 407.74212067 279.27079773 407.7348938 C278.22809219 407.74253754 277.18538666 407.75018127 276.11108398 407.75805664 C274.46201553 407.75258064 274.46201553 407.75258064 272.77963257 407.74699402 C269.13678662 407.7388717 265.49438309 407.75251215 261.8515625 407.76708984 C259.32715353 407.76760821 256.80274414 407.76709142 254.27833557 407.76557922 C248.98472584 407.76566902 243.69127222 407.7757773 238.39770508 407.79418945 C232.27362012 407.81536807 226.14972265 407.81886467 220.02560848 407.81262749 C214.1378764 407.80693764 208.25020093 407.81267845 202.36247444 407.82380104 C199.85494313 407.82766064 197.34740615 407.82879813 194.83987236 407.82721519 C191.34162376 407.82684598 187.84366432 407.83942403 184.34545898 407.85571289 C183.30072922 407.85323547 182.25599945 407.85075806 181.17961121 407.84820557 C180.23039795 407.85529037 179.28118469 407.86237518 178.3032074 407.86967468 C177.47564658 407.87172755 176.64808577 407.87378042 175.79544735 407.8758955 C173.56321751 407.95190706 173.56321751 407.95190706 171.79296875 410.13037109 Z " fill="#020202" transform="translate(535.20703125,-0.13037109375)"/>
<path d="M0 0 C14.97686306 -0.02332977 29.95372472 -0.04097956 44.93060207 -0.05181217 C51.88416081 -0.05697496 58.83770827 -0.06401734 65.79125977 -0.07543945 C72.49557209 -0.08644694 79.19987025 -0.09227621 85.90419197 -0.09487724 C88.46837613 -0.09673202 91.03255962 -0.10035364 93.59673882 -0.10573006 C97.17445158 -0.11293659 100.75211519 -0.11399111 104.32983398 -0.11352539 C105.40157364 -0.11712067 106.47331329 -0.12071594 107.57752991 -0.12442017 C108.54653229 -0.1230455 109.51553467 -0.12167084 110.51390076 -0.12025452 C111.36102851 -0.12117631 112.20815626 -0.1220981 113.08095455 -0.12304783 C115 0 115 0 116 1 C116.12579806 3.71552277 116.18865406 6.40424427 116.203125 9.12109375 C116.20882507 9.93618912 116.21452515 10.75128448 116.22039795 11.59107971 C116.22986127 13.31860042 116.2363872 15.04613929 116.24023438 16.77368164 C116.24994687 19.42300726 116.28095964 22.07155958 116.3125 24.72070312 C116.31902903 26.39582871 116.32427989 28.07095986 116.328125 29.74609375 C116.3404718 30.54196396 116.3528186 31.33783417 116.36553955 32.15782166 C116.35644531 34.39233398 116.35644531 34.39233398 116 38 C112.42127739 40.38581507 109.9020606 40.27003045 105.7746582 40.22705078 C105.04270233 40.22734283 104.31074646 40.22763489 103.55661011 40.22793579 C101.13787979 40.22654274 98.71945774 40.21098289 96.30078125 40.1953125 C94.62355213 40.19158228 92.94632083 40.18873535 91.26908875 40.18673706 C86.85494977 40.17910132 82.44094244 40.15945335 78.02685547 40.1373291 C72.73050405 40.1132721 67.43410862 40.10408941 62.1377182 40.09242249 C54.09172058 40.0730289 46.0460118 40.03470602 38 40 C38 59.14 38 78.28 38 98 C56.57884602 97.84174077 56.57884602 97.84174077 75.15722656 97.63964844 C77.4850186 97.62796686 79.8128188 97.61777378 82.140625 97.609375 C83.35089355 97.58891113 84.56116211 97.56844727 85.80810547 97.54736328 C86.96487793 97.54687988 88.12165039 97.54639648 89.31347656 97.54589844 C90.81905121 97.53257477 90.81905121 97.53257477 92.3550415 97.51898193 C95.75058883 98.13650376 96.92326883 99.28920083 99 102 C99.37417607 104.64612049 99.51574311 106.86572873 99.4609375 109.50390625 C99.46002106 110.22360092 99.45910461 110.94329559 99.4581604 111.68479919 C99.4521331 113.20196146 99.43641295 114.71911231 99.41162109 116.23608398 C99.37506728 118.55822561 99.37060218 120.87877229 99.37109375 123.20117188 C99.36126352 124.67709712 99.34960693 126.15301157 99.3359375 127.62890625 C99.33371185 128.32270889 99.33148621 129.01651154 99.32919312 129.7313385 C99.25759799 133.36474897 99.07249503 134.89125745 97 138 C94.5196228 138.36076355 94.5196228 138.36076355 91.35693359 138.34057617 C90.17586029 138.34034958 88.99478699 138.34012299 87.77792358 138.33988953 C85.85757797 138.31666374 85.85757797 138.31666374 83.8984375 138.29296875 C82.59170074 138.28872391 81.28496399 138.28447906 79.93862915 138.28010559 C76.46308214 138.26864632 72.98791073 138.23917049 69.51251221 138.20599365 C65.9667265 138.17531569 62.42088015 138.16160516 58.875 138.14648438 C51.91651229 138.11430135 44.95827417 138.06309229 38 138 C38 137.67 38 137.34 38 137 C66.71 136.505 66.71 136.505 96 136 C96.83759314 127.99766023 96.83759314 127.99766023 97.1328125 120.0625 C97.13410156 119.06605469 97.13539063 118.06960938 97.13671875 117.04296875 C97.13285156 116.03878906 97.12898437 115.03460937 97.125 114 C97.12886719 112.96488281 97.13273438 111.92976562 97.13671875 110.86328125 C97.13542969 109.87714844 97.13414062 108.89101563 97.1328125 107.875 C97.13112061 106.54082031 97.13112061 106.54082031 97.12939453 105.1796875 C97.14066563 102.9534776 97.14066563 102.9534776 96 101 C95.26306412 100.98969254 94.52612823 100.97938507 93.76686096 100.96876526 C86.83578924 100.87095357 79.90480098 100.76846284 72.97387791 100.66066074 C69.41027032 100.60539973 65.84665457 100.55197482 62.28295898 100.50268555 C58.18984755 100.44599468 54.0968939 100.38142682 50.00390625 100.31640625 C48.71851456 100.29969376 47.43312286 100.28298126 46.10877991 100.26576233 C44.92763107 100.24581711 43.74648224 100.22587189 42.52954102 100.20532227 C41.48363297 100.18977798 40.43772491 100.1742337 39.36012268 100.15821838 C37 100 37 100 36 99 C35.9008944 97.13364212 35.87200739 95.26351806 35.87060547 93.39453125 C35.86745331 92.19658936 35.86430115 90.99864746 35.86105347 89.7644043 C35.8630777 88.46027588 35.86510193 87.15614746 35.8671875 85.8125 C35.8665144 84.47110985 35.86554432 83.12971981 35.86428833 81.78833008 C35.86281164 78.97378379 35.86496496 76.15926918 35.86962891 73.34472656 C35.87532619 69.72959369 35.87204703 66.11453505 35.86605644 62.49940491 C35.86245003 59.72855058 35.86358978 56.95771398 35.86618423 54.18685913 C35.86717967 52.20310417 35.86413259 50.21934853 35.86105347 48.2355957 C35.86578171 46.43868286 35.86578171 46.43868286 35.87060547 44.60546875 C35.87140106 43.54481201 35.87219666 42.48415527 35.87301636 41.39135742 C36 39 36 39 37 38 C39.43299787 37.87507611 41.83904923 37.81398493 44.27368164 37.79467773 C45.03460617 37.78477814 45.7955307 37.77487854 46.57951355 37.76467896 C49.1063623 37.73297376 51.63322988 37.7082711 54.16015625 37.68359375 C55.90751141 37.66303199 57.65486151 37.64203574 59.40220642 37.62062073 C64.01026318 37.56531959 68.61836541 37.51594592 73.22650146 37.46777344 C78.75065355 37.40880476 84.27472217 37.34253274 89.79880524 37.27747345 C98.1991527 37.1793628 106.59955268 37.09057606 115 37 C114.505 19.675 114.505 19.675 114 2 C76.38 1.67 38.76 1.34 0 1 C0 0.67 0 0.34 0 0 Z " fill="#C3C3C3" transform="translate(418,407)"/>
<path d="M0 0 C0.66 0.33 1.32 0.66 2 1 C-4.93962756 8.95333345 -12.27815782 16.464403 -19.73950195 23.92480469 C-21.69967207 25.8871858 -23.65166344 27.85747449 -25.60351562 29.828125 C-26.86409409 31.09163413 -28.12514505 32.35467208 -29.38671875 33.6171875 C-29.96185715 34.19951141 -30.53699554 34.78183533 -31.12956238 35.38180542 C-34.52870499 38.7619716 -37.92139065 41.47545822 -42 44 C-40.41060574 40.06785699 -37.83657498 37.66979654 -34.8125 34.75 C-31.60855547 31.64911942 -28.57248126 28.54193121 -25.67578125 25.15234375 C-21.85137812 20.72993542 -17.66741189 16.77501804 -13.375 12.8125 C-11.9029907 11.44471513 -10.43162035 10.07624226 -8.9609375 8.70703125 C-8.27870117 8.0723291 -7.59646484 7.43762695 -6.89355469 6.78369141 C-4.54391365 4.5703756 -2.26214535 2.30238114 0 0 Z " fill="#888888" transform="translate(179,136)"/>
</svg>
